G04 #@! TF.FileFunction,Copper,L2,Bot,Signal*
%FSLAX46Y46*%
G04 Gerber Fmt 4.6, Leading zero omitted, Abs format (unit mm)*
G04 Created by KiCad (PCBNEW 4.0.7-e2-6376~58~ubuntu16.04.1) date Fri Nov 23 22:20:00 2018*
%MOMM*%
%LPD*%
G01*
G04 APERTURE LIST*
%ADD10C,0.100000*%
%ADD11C,10.000000*%
%ADD12R,5.080000X1.270000*%
%ADD13C,1.000000*%
%ADD14C,1.700000*%
%ADD15C,0.812800*%
%ADD16C,0.609600*%
%ADD17C,0.635000*%
%ADD18C,0.304800*%
%ADD19C,0.203200*%
G04 APERTURE END LIST*
D10*
D11*
X15000000Y-15000000D03*
D12*
X15000000Y-4014500D03*
X15000000Y-25985500D03*
D13*
X3683000Y-20955000D03*
X3683000Y-9017000D03*
D10*
G36*
X24192388Y-7009694D02*
X22990306Y-5807612D01*
X24192388Y-4605530D01*
X25394470Y-5807612D01*
X24192388Y-7009694D01*
X24192388Y-7009694D01*
G37*
D14*
X26006552Y-8082211D02*
X26006552Y-8082211D01*
X27269412Y-10703313D02*
X27269412Y-10703313D01*
X27917714Y-13539631D02*
X27917714Y-13539631D01*
X27918983Y-16449096D02*
X27918983Y-16449096D01*
X27273157Y-19285979D02*
X27273157Y-19285979D01*
X26012586Y-21908182D02*
X26012586Y-21908182D01*
X24200407Y-24184362D02*
X24200407Y-24184362D01*
D15*
X9842500Y-4064000D03*
X14986000Y-28194000D03*
X1143000Y-17018000D03*
X1143000Y-16002000D03*
X1143000Y-12954000D03*
X1143000Y-13970000D03*
X1143000Y-14986000D03*
X2159000Y-18034000D03*
X2159000Y-17018000D03*
X2159000Y-16002000D03*
X2159000Y-11938000D03*
X2159000Y-12954000D03*
X2159000Y-13970000D03*
X2159000Y-14986000D03*
X15000000Y-15000000D03*
X21336000Y-24638000D03*
D16*
X5207000Y-21590000D03*
X3683000Y-16637000D03*
D17*
X15000000Y-4014500D02*
X9892000Y-4014500D01*
X9892000Y-4014500D02*
X9842500Y-4064000D01*
D18*
X14986000Y-28194000D02*
X14986000Y-26444000D01*
X14986000Y-26444000D02*
X15000000Y-26430000D01*
D17*
X26006552Y-8082211D02*
X26006552Y-9022753D01*
X26006552Y-9022753D02*
X25486519Y-9542786D01*
X25486519Y-9542786D02*
X25486519Y-19830244D01*
X25486519Y-19830244D02*
X21336000Y-23980763D01*
X21336000Y-23980763D02*
X21336000Y-24638000D01*
D19*
X5207000Y-21590000D02*
X5207000Y-20210598D01*
X5207000Y-20210598D02*
X3683000Y-18686598D01*
X3683000Y-18686598D02*
X3683000Y-16637000D01*
G36*
X17929585Y-728176D02*
X20645870Y-1569007D01*
X23147105Y-2921420D01*
X25338020Y-4733902D01*
X27135163Y-6937417D01*
X28470081Y-9448033D01*
X29291928Y-12170122D01*
X29569400Y-15000000D01*
X29563720Y-15406802D01*
X29207341Y-18227829D01*
X28309809Y-20925909D01*
X26905311Y-23398273D01*
X25047343Y-25550750D01*
X22806675Y-27301351D01*
X20268653Y-28583398D01*
X17529950Y-29348058D01*
X14694882Y-29566205D01*
X11871435Y-29229529D01*
X9167155Y-28350855D01*
X6685046Y-26963651D01*
X4519651Y-25120756D01*
X2753449Y-22892364D01*
X1805383Y-21047626D01*
X2579952Y-21047626D01*
X2618951Y-21260111D01*
X2698478Y-21460975D01*
X2815506Y-21642567D01*
X2965577Y-21797970D01*
X3142974Y-21921264D01*
X3340940Y-22007753D01*
X3551935Y-22054143D01*
X3767923Y-22058668D01*
X3980675Y-22021154D01*
X4182090Y-21943030D01*
X4364494Y-21827273D01*
X4520941Y-21678291D01*
X4545766Y-21643099D01*
X4545732Y-21645528D01*
X4569112Y-21772912D01*
X4616788Y-21893328D01*
X4686945Y-22002191D01*
X4776911Y-22095353D01*
X4883259Y-22169267D01*
X5001938Y-22221116D01*
X5128428Y-22248927D01*
X5257910Y-22251639D01*
X5385454Y-22229150D01*
X5506200Y-22182315D01*
X5615550Y-22112920D01*
X5709338Y-22023607D01*
X5783992Y-21917777D01*
X5836669Y-21799463D01*
X5865362Y-21673171D01*
X5867428Y-21525244D01*
X5847863Y-21426435D01*
X8878894Y-21426435D01*
X9209715Y-23336954D01*
X10947433Y-24306390D01*
X12840889Y-24918187D01*
X13483512Y-24993180D01*
X12460000Y-24993180D01*
X12403372Y-24997696D01*
X12307325Y-25027440D01*
X12223367Y-25082764D01*
X12158146Y-25159288D01*
X12116827Y-25250953D01*
X12102680Y-25350500D01*
X12102680Y-26620500D01*
X12107196Y-26677128D01*
X12136940Y-26773175D01*
X12192264Y-26857133D01*
X12268788Y-26922354D01*
X12360453Y-26963673D01*
X12460000Y-26977820D01*
X12785670Y-26977820D01*
X12776631Y-26991021D01*
X12714394Y-27136232D01*
X12681547Y-27290766D01*
X12679341Y-27448737D01*
X12707861Y-27604128D01*
X12766019Y-27751020D01*
X12851602Y-27883818D01*
X12961348Y-27997464D01*
X13091079Y-28087629D01*
X13235851Y-28150878D01*
X13390152Y-28184804D01*
X13548104Y-28188112D01*
X13703690Y-28160678D01*
X13850984Y-28103546D01*
X13984377Y-28018893D01*
X14098786Y-27909943D01*
X14189854Y-27780845D01*
X14254113Y-27636517D01*
X14289115Y-27482457D01*
X14291635Y-27302007D01*
X14260948Y-27147029D01*
X14200744Y-27000964D01*
X14185367Y-26977820D01*
X14478000Y-26977820D01*
X14478000Y-27624904D01*
X14399450Y-27701826D01*
X14315023Y-27825127D01*
X14256154Y-27962479D01*
X14225085Y-28108650D01*
X14222998Y-28258071D01*
X14249974Y-28405052D01*
X14304985Y-28543994D01*
X14385936Y-28669605D01*
X14489743Y-28777100D01*
X14612452Y-28862385D01*
X14749390Y-28922212D01*
X14895340Y-28954301D01*
X15044743Y-28957430D01*
X15191908Y-28931481D01*
X15331231Y-28877441D01*
X15457404Y-28797370D01*
X15565621Y-28694316D01*
X15651761Y-28572205D01*
X15712542Y-28435688D01*
X15745649Y-28289966D01*
X15748033Y-28119282D01*
X15719007Y-27972692D01*
X15662061Y-27834532D01*
X15579365Y-27710063D01*
X15494000Y-27624101D01*
X15494000Y-26977820D01*
X15785670Y-26977820D01*
X15776631Y-26991021D01*
X15714394Y-27136232D01*
X15681547Y-27290766D01*
X15679341Y-27448737D01*
X15707861Y-27604128D01*
X15766019Y-27751020D01*
X15851602Y-27883818D01*
X15961348Y-27997464D01*
X16091079Y-28087629D01*
X16235851Y-28150878D01*
X16390152Y-28184804D01*
X16548104Y-28188112D01*
X16703690Y-28160678D01*
X16850984Y-28103546D01*
X16984377Y-28018893D01*
X17098786Y-27909943D01*
X17189854Y-27780845D01*
X17254113Y-27636517D01*
X17289115Y-27482457D01*
X17291635Y-27302007D01*
X17260948Y-27147029D01*
X17200744Y-27000964D01*
X17185367Y-26977820D01*
X17540000Y-26977820D01*
X17596628Y-26973304D01*
X17692675Y-26943560D01*
X17776633Y-26888236D01*
X17841854Y-26811712D01*
X17883173Y-26720047D01*
X17897320Y-26620500D01*
X17897320Y-25350500D01*
X17892804Y-25293872D01*
X17863060Y-25197825D01*
X17807736Y-25113867D01*
X17731212Y-25048646D01*
X17639547Y-25007327D01*
X17540000Y-24993180D01*
X16754544Y-24993180D01*
X16800768Y-24989466D01*
X18715015Y-24446208D01*
X20486496Y-23539939D01*
X20790285Y-23336954D01*
X21121106Y-21426435D01*
X15000000Y-15305329D01*
X8878894Y-21426435D01*
X5847863Y-21426435D01*
X5842272Y-21398200D01*
X5792920Y-21278461D01*
X5721249Y-21170589D01*
X5664200Y-21113140D01*
X5664200Y-20210598D01*
X5660078Y-20168559D01*
X5656398Y-20126495D01*
X5655728Y-20124188D01*
X5655493Y-20121794D01*
X5643282Y-20081351D01*
X5631503Y-20040808D01*
X5630397Y-20038673D01*
X5629702Y-20036373D01*
X5609867Y-19999067D01*
X5590440Y-19961589D01*
X5588942Y-19959713D01*
X5587812Y-19957587D01*
X5561078Y-19924808D01*
X5534771Y-19891854D01*
X5531473Y-19888509D01*
X5531416Y-19888439D01*
X5531351Y-19888386D01*
X5530289Y-19887308D01*
X4140200Y-18497220D01*
X4140200Y-17113591D01*
X4185338Y-17070607D01*
X4259992Y-16964777D01*
X4312669Y-16846463D01*
X4341362Y-16720171D01*
X4343428Y-16572244D01*
X4318272Y-16445200D01*
X4268920Y-16325461D01*
X4197249Y-16217589D01*
X4105991Y-16125691D01*
X3998622Y-16053270D01*
X3879230Y-16003082D01*
X3752365Y-15977040D01*
X3622857Y-15976136D01*
X3495640Y-16000404D01*
X3375559Y-16048920D01*
X3267189Y-16119835D01*
X3174657Y-16210449D01*
X3101487Y-16317311D01*
X3050467Y-16436349D01*
X3023541Y-16563030D01*
X3021732Y-16692528D01*
X3045112Y-16819912D01*
X3092788Y-16940328D01*
X3162945Y-17049191D01*
X3225800Y-17114279D01*
X3225800Y-18686598D01*
X3229922Y-18728641D01*
X3233602Y-18770701D01*
X3234272Y-18773008D01*
X3234507Y-18775402D01*
X3246704Y-18815798D01*
X3258496Y-18856388D01*
X3259605Y-18858527D01*
X3260298Y-18860823D01*
X3280115Y-18898094D01*
X3299560Y-18935607D01*
X3301058Y-18937483D01*
X3302188Y-18939609D01*
X3328917Y-18972382D01*
X3355228Y-19005341D01*
X3358523Y-19008683D01*
X3358584Y-19008757D01*
X3358653Y-19008814D01*
X3359711Y-19009887D01*
X4749800Y-20399977D01*
X4749800Y-20670991D01*
X4742686Y-20635062D01*
X4660361Y-20435328D01*
X4540809Y-20255388D01*
X4388584Y-20102096D01*
X4209483Y-19981291D01*
X4010328Y-19897574D01*
X3798706Y-19854134D01*
X3582676Y-19852626D01*
X3370468Y-19893107D01*
X3170164Y-19974035D01*
X2989393Y-20092327D01*
X2835042Y-20243479D01*
X2712990Y-20421732D01*
X2627885Y-20620298D01*
X2582968Y-20831612D01*
X2579952Y-21047626D01*
X1805383Y-21047626D01*
X1453714Y-20363354D01*
X669954Y-17630056D01*
X433762Y-14817318D01*
X4851167Y-14817318D01*
X5010534Y-16800768D01*
X5553792Y-18715015D01*
X6460061Y-20486496D01*
X6663046Y-20790285D01*
X8573565Y-21121106D01*
X14694671Y-15000000D01*
X15305329Y-15000000D01*
X21426435Y-21121106D01*
X23336954Y-20790285D01*
X24306390Y-19052567D01*
X24813419Y-17483358D01*
X24813419Y-19551437D01*
X20860046Y-23504809D01*
X20820543Y-23552901D01*
X20780616Y-23600484D01*
X20778913Y-23603583D01*
X20776664Y-23606320D01*
X20747254Y-23661169D01*
X20717330Y-23715601D01*
X20716261Y-23718971D01*
X20714587Y-23722093D01*
X20696405Y-23781565D01*
X20677609Y-23840818D01*
X20677214Y-23844337D01*
X20676180Y-23847720D01*
X20669896Y-23909584D01*
X20662966Y-23971365D01*
X20662917Y-23978281D01*
X20662904Y-23978413D01*
X20662916Y-23978536D01*
X20662900Y-23980763D01*
X20662900Y-24274080D01*
X20606154Y-24406479D01*
X20575085Y-24552650D01*
X20572998Y-24702071D01*
X20599974Y-24849052D01*
X20654985Y-24987994D01*
X20735936Y-25113605D01*
X20839743Y-25221100D01*
X20962452Y-25306385D01*
X21099390Y-25366212D01*
X21245340Y-25398301D01*
X21394743Y-25401430D01*
X21541908Y-25375481D01*
X21681231Y-25321441D01*
X21807404Y-25241370D01*
X21915621Y-25138316D01*
X22001761Y-25016205D01*
X22062542Y-24879688D01*
X22095649Y-24733966D01*
X22098033Y-24563282D01*
X22069007Y-24416692D01*
X22012061Y-24278532D01*
X22009100Y-24274075D01*
X22009100Y-24259571D01*
X22100032Y-24168639D01*
X22990735Y-24168639D01*
X23011441Y-24403019D01*
X23077277Y-24628912D01*
X23185735Y-24837716D01*
X23332685Y-25021476D01*
X23344515Y-25033452D01*
X23352771Y-25041694D01*
X23534715Y-25190887D01*
X23742173Y-25301898D01*
X23967242Y-25370500D01*
X24201350Y-25394079D01*
X24435579Y-25371737D01*
X24661007Y-25304326D01*
X24869048Y-25194413D01*
X25051779Y-25046184D01*
X25202239Y-24865285D01*
X25314695Y-24658607D01*
X25384866Y-24434022D01*
X25410079Y-24200085D01*
X25389373Y-23965706D01*
X25323537Y-23739812D01*
X25215079Y-23531008D01*
X25068129Y-23347248D01*
X25056299Y-23335272D01*
X25048043Y-23327030D01*
X24866099Y-23177837D01*
X24658641Y-23066826D01*
X24433572Y-22998224D01*
X24199464Y-22974646D01*
X23965235Y-22996987D01*
X23739807Y-23064398D01*
X23531766Y-23174312D01*
X23349035Y-23322541D01*
X23198576Y-23503439D01*
X23086119Y-23710118D01*
X23015948Y-23934702D01*
X22990735Y-24168639D01*
X22100032Y-24168639D01*
X24969750Y-21298921D01*
X24884430Y-21467062D01*
X24820744Y-21693571D01*
X24802266Y-21928136D01*
X24829700Y-22161823D01*
X24902001Y-22385731D01*
X25016417Y-22591332D01*
X25168588Y-22770793D01*
X25352718Y-22917278D01*
X25366914Y-22926324D01*
X25376796Y-22932524D01*
X25587359Y-23037527D01*
X25814307Y-23099631D01*
X26048996Y-23116471D01*
X26282486Y-23087406D01*
X26505883Y-23013543D01*
X26710679Y-22897695D01*
X26889074Y-22744276D01*
X27034271Y-22559127D01*
X27140742Y-22349302D01*
X27204429Y-22122793D01*
X27222906Y-21888228D01*
X27195472Y-21654541D01*
X27123171Y-21430633D01*
X27008755Y-21225032D01*
X26856584Y-21045572D01*
X26672454Y-20899086D01*
X26658258Y-20890040D01*
X26648376Y-20883840D01*
X26437813Y-20778837D01*
X26210865Y-20716733D01*
X25976176Y-20699893D01*
X25742686Y-20728958D01*
X25519289Y-20802821D01*
X25396248Y-20872422D01*
X25692548Y-20576122D01*
X27051305Y-20576122D01*
X27228741Y-20744911D01*
X27514217Y-20725543D01*
X27790430Y-20650853D01*
X28046765Y-20523713D01*
X28273371Y-20349007D01*
X28442571Y-20159421D01*
X28419141Y-19914860D01*
X27405806Y-19560988D01*
X27051305Y-20576122D01*
X25692548Y-20576122D01*
X25962472Y-20306198D01*
X26001929Y-20258162D01*
X26041903Y-20210523D01*
X26043608Y-20207421D01*
X26045854Y-20204687D01*
X26075224Y-20149912D01*
X26088130Y-20126437D01*
X26188352Y-20262530D01*
X26399711Y-20455401D01*
X26643647Y-20433761D01*
X26998148Y-19418628D01*
X26979267Y-19412034D01*
X27069609Y-19153330D01*
X27548166Y-19153330D01*
X28561501Y-19507203D01*
X28732081Y-19330394D01*
X28717683Y-19076692D01*
X28649096Y-18798900D01*
X28527633Y-18539827D01*
X28357962Y-18309428D01*
X28146603Y-18116557D01*
X27902667Y-18138197D01*
X27548166Y-19153330D01*
X27069609Y-19153330D01*
X27121626Y-19004376D01*
X27140508Y-19010970D01*
X27495009Y-17995836D01*
X27317573Y-17827047D01*
X27032097Y-17846415D01*
X26755884Y-17921105D01*
X26499549Y-18048245D01*
X26272943Y-18222951D01*
X26159619Y-18349929D01*
X26159619Y-16540987D01*
X26711142Y-16540987D01*
X26752010Y-16772703D01*
X26837107Y-16992067D01*
X26963191Y-17190726D01*
X27125459Y-17361111D01*
X27317732Y-17496734D01*
X27532686Y-17592427D01*
X27762133Y-17644545D01*
X27778848Y-17646538D01*
X27790442Y-17647838D01*
X28025711Y-17651114D01*
X28257135Y-17608630D01*
X28475901Y-17522004D01*
X28673674Y-17394536D01*
X28842923Y-17231082D01*
X28977199Y-17037867D01*
X29071389Y-16822251D01*
X29121906Y-16592446D01*
X29126824Y-16357205D01*
X29085956Y-16125489D01*
X29000860Y-15906125D01*
X28874776Y-15707466D01*
X28712507Y-15537081D01*
X28520234Y-15401458D01*
X28305280Y-15305765D01*
X28075834Y-15253647D01*
X28059119Y-15251654D01*
X28047524Y-15250354D01*
X27812255Y-15247078D01*
X27580831Y-15289562D01*
X27362065Y-15376188D01*
X27164292Y-15503656D01*
X26995043Y-15667110D01*
X26860768Y-15860325D01*
X26766577Y-16075941D01*
X26716061Y-16305746D01*
X26711142Y-16540987D01*
X26159619Y-16540987D01*
X26159619Y-13432016D01*
X26711189Y-13432016D01*
X26713027Y-13667301D01*
X26760530Y-13897748D01*
X26851890Y-14114579D01*
X26983626Y-14309535D01*
X27150720Y-14475191D01*
X27346808Y-14605237D01*
X27564420Y-14694720D01*
X27795269Y-14740230D01*
X28030560Y-14740034D01*
X28047300Y-14738261D01*
X28058892Y-14736951D01*
X28289002Y-14687840D01*
X28505189Y-14594969D01*
X28699222Y-14461875D01*
X28863707Y-14293629D01*
X28992381Y-14096638D01*
X29080341Y-13878406D01*
X29124239Y-13647246D01*
X29122401Y-13411961D01*
X29074898Y-13181514D01*
X28983538Y-12964683D01*
X28851802Y-12769727D01*
X28684708Y-12604071D01*
X28488621Y-12474025D01*
X28271008Y-12384542D01*
X28040159Y-12339032D01*
X27804868Y-12339228D01*
X27788128Y-12341001D01*
X27776536Y-12342311D01*
X27546427Y-12391422D01*
X27330239Y-12484293D01*
X27136206Y-12617387D01*
X26971721Y-12785633D01*
X26843047Y-12982624D01*
X26755087Y-13200856D01*
X26711189Y-13432016D01*
X26159619Y-13432016D01*
X26159619Y-11175440D01*
X26220897Y-11309892D01*
X26358206Y-11500965D01*
X26530012Y-11661729D01*
X26729771Y-11786060D01*
X26949876Y-11869224D01*
X27181943Y-11908052D01*
X27417131Y-11901065D01*
X27646482Y-11848529D01*
X27662408Y-11843076D01*
X27673418Y-11839220D01*
X27886835Y-11740148D01*
X28076944Y-11601509D01*
X28236505Y-11428585D01*
X28359439Y-11227962D01*
X28441064Y-11007282D01*
X28478271Y-10774951D01*
X28469642Y-10539817D01*
X28415507Y-10310838D01*
X28317927Y-10096734D01*
X28180619Y-9905661D01*
X28008813Y-9744897D01*
X27809053Y-9620566D01*
X27588948Y-9537402D01*
X27356882Y-9498574D01*
X27121694Y-9505561D01*
X26892342Y-9558097D01*
X26876417Y-9563550D01*
X26865406Y-9567406D01*
X26651989Y-9666478D01*
X26461880Y-9805116D01*
X26302319Y-9978041D01*
X26179385Y-10178664D01*
X26159619Y-10232103D01*
X26159619Y-9821594D01*
X26482506Y-9498706D01*
X26521989Y-9450639D01*
X26561936Y-9403032D01*
X26563639Y-9399933D01*
X26565888Y-9397196D01*
X26595288Y-9342366D01*
X26625222Y-9287915D01*
X26626292Y-9284542D01*
X26627965Y-9281422D01*
X26646156Y-9221923D01*
X26664943Y-9162698D01*
X26665337Y-9159184D01*
X26666373Y-9155796D01*
X26672662Y-9093882D01*
X26673797Y-9083759D01*
X26839049Y-8955817D01*
X26993575Y-8778380D01*
X27110695Y-8574308D01*
X27185945Y-8351373D01*
X27216462Y-8118069D01*
X27201081Y-7883281D01*
X27140389Y-7655951D01*
X27036698Y-7444739D01*
X26893957Y-7257690D01*
X26717603Y-7101928D01*
X26514354Y-6983388D01*
X26291950Y-6906583D01*
X26058864Y-6874438D01*
X25823974Y-6888179D01*
X25596226Y-6947282D01*
X25384296Y-7049497D01*
X25369981Y-7058354D01*
X25360103Y-7064562D01*
X25174055Y-7208605D01*
X25019529Y-7386042D01*
X24902410Y-7590114D01*
X24827159Y-7813049D01*
X24796642Y-8046353D01*
X24812024Y-8281141D01*
X24872715Y-8508471D01*
X24976406Y-8719683D01*
X25119147Y-8906732D01*
X25146503Y-8930894D01*
X25010565Y-9066832D01*
X24971062Y-9114924D01*
X24931135Y-9162507D01*
X24929432Y-9165606D01*
X24927183Y-9168343D01*
X24897773Y-9223192D01*
X24867849Y-9277624D01*
X24866780Y-9280994D01*
X24865106Y-9284116D01*
X24846924Y-9343588D01*
X24828128Y-9402841D01*
X24827733Y-9406360D01*
X24826699Y-9409743D01*
X24820415Y-9471607D01*
X24813485Y-9533388D01*
X24813436Y-9540304D01*
X24813423Y-9540436D01*
X24813435Y-9540559D01*
X24813419Y-9542786D01*
X24813419Y-12578905D01*
X24446208Y-11284985D01*
X23539939Y-9513504D01*
X23336954Y-9209715D01*
X21426435Y-8878894D01*
X15305329Y-15000000D01*
X14694671Y-15000000D01*
X8573565Y-8878894D01*
X6663046Y-9209715D01*
X5693610Y-10947433D01*
X5081813Y-12840889D01*
X4851167Y-14817318D01*
X433762Y-14817318D01*
X432020Y-14796579D01*
X748976Y-11970851D01*
X1608750Y-9260503D01*
X1691695Y-9109626D01*
X2579952Y-9109626D01*
X2618951Y-9322111D01*
X2698478Y-9522975D01*
X2815506Y-9704567D01*
X2965577Y-9859970D01*
X3142974Y-9983264D01*
X3340940Y-10069753D01*
X3551935Y-10116143D01*
X3767923Y-10120668D01*
X3980675Y-10083154D01*
X4182090Y-10005030D01*
X4364494Y-9889273D01*
X4520941Y-9740291D01*
X4645470Y-9563759D01*
X4733339Y-9366401D01*
X4781202Y-9155735D01*
X4784647Y-8908983D01*
X4742686Y-8697062D01*
X4691784Y-8573565D01*
X8878894Y-8573565D01*
X15000000Y-14694671D01*
X21121106Y-8573565D01*
X20790285Y-6663046D01*
X19217494Y-5785619D01*
X22633663Y-5785619D01*
X22641656Y-5885848D01*
X22677255Y-5979882D01*
X22737643Y-6060275D01*
X23939725Y-7262357D01*
X23982960Y-7299206D01*
X24071907Y-7346090D01*
X24170395Y-7366337D01*
X24270624Y-7358344D01*
X24364658Y-7322745D01*
X24445051Y-7262357D01*
X25647133Y-6060275D01*
X25683982Y-6017040D01*
X25730866Y-5928093D01*
X25751113Y-5829605D01*
X25743120Y-5729376D01*
X25707521Y-5635342D01*
X25647133Y-5554949D01*
X24445051Y-4352867D01*
X24401816Y-4316018D01*
X24312869Y-4269134D01*
X24214381Y-4248887D01*
X24114152Y-4256880D01*
X24020118Y-4292479D01*
X23939725Y-4352867D01*
X22737643Y-5554949D01*
X22700794Y-5598184D01*
X22653910Y-5687131D01*
X22633663Y-5785619D01*
X19217494Y-5785619D01*
X19052567Y-5693610D01*
X17159111Y-5081813D01*
X16516488Y-5006820D01*
X17540000Y-5006820D01*
X17596628Y-5002304D01*
X17692675Y-4972560D01*
X17776633Y-4917236D01*
X17841854Y-4840712D01*
X17883173Y-4749047D01*
X17897320Y-4649500D01*
X17897320Y-3379500D01*
X17892804Y-3322872D01*
X17863060Y-3226825D01*
X17807736Y-3142867D01*
X17731212Y-3077646D01*
X17639547Y-3036327D01*
X17540000Y-3022180D01*
X12460000Y-3022180D01*
X12403372Y-3026696D01*
X12307325Y-3056440D01*
X12223367Y-3111764D01*
X12158146Y-3188288D01*
X12116827Y-3279953D01*
X12108095Y-3341400D01*
X10089959Y-3341400D01*
X10068920Y-3332556D01*
X9922536Y-3302508D01*
X9773104Y-3301464D01*
X9626315Y-3329466D01*
X9487760Y-3385445D01*
X9362718Y-3467271D01*
X9255950Y-3571826D01*
X9171523Y-3695127D01*
X9112654Y-3832479D01*
X9081585Y-3978650D01*
X9079498Y-4128071D01*
X9106474Y-4275052D01*
X9161485Y-4413994D01*
X9242436Y-4539605D01*
X9346243Y-4647100D01*
X9468952Y-4732385D01*
X9605890Y-4792212D01*
X9751840Y-4824301D01*
X9901243Y-4827430D01*
X10048408Y-4801481D01*
X10187731Y-4747441D01*
X10282026Y-4687600D01*
X12105718Y-4687600D01*
X12107196Y-4706128D01*
X12136940Y-4802175D01*
X12192264Y-4886133D01*
X12268788Y-4951354D01*
X12360453Y-4992673D01*
X12460000Y-5006820D01*
X13245456Y-5006820D01*
X13199232Y-5010534D01*
X11284985Y-5553792D01*
X9513504Y-6460061D01*
X9209715Y-6663046D01*
X8878894Y-8573565D01*
X4691784Y-8573565D01*
X4660361Y-8497328D01*
X4540809Y-8317388D01*
X4388584Y-8164096D01*
X4209483Y-8043291D01*
X4010328Y-7959574D01*
X3798706Y-7916134D01*
X3582676Y-7914626D01*
X3370468Y-7955107D01*
X3170164Y-8036035D01*
X2989393Y-8154327D01*
X2835042Y-8305479D01*
X2712990Y-8483732D01*
X2627885Y-8682298D01*
X2582968Y-8893612D01*
X2579952Y-9109626D01*
X1691695Y-9109626D01*
X2978591Y-6768770D01*
X4806325Y-4590562D01*
X7022332Y-2808846D01*
X9542207Y-1491488D01*
X12269967Y-688664D01*
X15101713Y-430955D01*
X17929585Y-728176D01*
X17929585Y-728176D01*
G37*
X17929585Y-728176D02*
X20645870Y-1569007D01*
X23147105Y-2921420D01*
X25338020Y-4733902D01*
X27135163Y-6937417D01*
X28470081Y-9448033D01*
X29291928Y-12170122D01*
X29569400Y-15000000D01*
X29563720Y-15406802D01*
X29207341Y-18227829D01*
X28309809Y-20925909D01*
X26905311Y-23398273D01*
X25047343Y-25550750D01*
X22806675Y-27301351D01*
X20268653Y-28583398D01*
X17529950Y-29348058D01*
X14694882Y-29566205D01*
X11871435Y-29229529D01*
X9167155Y-28350855D01*
X6685046Y-26963651D01*
X4519651Y-25120756D01*
X2753449Y-22892364D01*
X1805383Y-21047626D01*
X2579952Y-21047626D01*
X2618951Y-21260111D01*
X2698478Y-21460975D01*
X2815506Y-21642567D01*
X2965577Y-21797970D01*
X3142974Y-21921264D01*
X3340940Y-22007753D01*
X3551935Y-22054143D01*
X3767923Y-22058668D01*
X3980675Y-22021154D01*
X4182090Y-21943030D01*
X4364494Y-21827273D01*
X4520941Y-21678291D01*
X4545766Y-21643099D01*
X4545732Y-21645528D01*
X4569112Y-21772912D01*
X4616788Y-21893328D01*
X4686945Y-22002191D01*
X4776911Y-22095353D01*
X4883259Y-22169267D01*
X5001938Y-22221116D01*
X5128428Y-22248927D01*
X5257910Y-22251639D01*
X5385454Y-22229150D01*
X5506200Y-22182315D01*
X5615550Y-22112920D01*
X5709338Y-22023607D01*
X5783992Y-21917777D01*
X5836669Y-21799463D01*
X5865362Y-21673171D01*
X5867428Y-21525244D01*
X5847863Y-21426435D01*
X8878894Y-21426435D01*
X9209715Y-23336954D01*
X10947433Y-24306390D01*
X12840889Y-24918187D01*
X13483512Y-24993180D01*
X12460000Y-24993180D01*
X12403372Y-24997696D01*
X12307325Y-25027440D01*
X12223367Y-25082764D01*
X12158146Y-25159288D01*
X12116827Y-25250953D01*
X12102680Y-25350500D01*
X12102680Y-26620500D01*
X12107196Y-26677128D01*
X12136940Y-26773175D01*
X12192264Y-26857133D01*
X12268788Y-26922354D01*
X12360453Y-26963673D01*
X12460000Y-26977820D01*
X12785670Y-26977820D01*
X12776631Y-26991021D01*
X12714394Y-27136232D01*
X12681547Y-27290766D01*
X12679341Y-27448737D01*
X12707861Y-27604128D01*
X12766019Y-27751020D01*
X12851602Y-27883818D01*
X12961348Y-27997464D01*
X13091079Y-28087629D01*
X13235851Y-28150878D01*
X13390152Y-28184804D01*
X13548104Y-28188112D01*
X13703690Y-28160678D01*
X13850984Y-28103546D01*
X13984377Y-28018893D01*
X14098786Y-27909943D01*
X14189854Y-27780845D01*
X14254113Y-27636517D01*
X14289115Y-27482457D01*
X14291635Y-27302007D01*
X14260948Y-27147029D01*
X14200744Y-27000964D01*
X14185367Y-26977820D01*
X14478000Y-26977820D01*
X14478000Y-27624904D01*
X14399450Y-27701826D01*
X14315023Y-27825127D01*
X14256154Y-27962479D01*
X14225085Y-28108650D01*
X14222998Y-28258071D01*
X14249974Y-28405052D01*
X14304985Y-28543994D01*
X14385936Y-28669605D01*
X14489743Y-28777100D01*
X14612452Y-28862385D01*
X14749390Y-28922212D01*
X14895340Y-28954301D01*
X15044743Y-28957430D01*
X15191908Y-28931481D01*
X15331231Y-28877441D01*
X15457404Y-28797370D01*
X15565621Y-28694316D01*
X15651761Y-28572205D01*
X15712542Y-28435688D01*
X15745649Y-28289966D01*
X15748033Y-28119282D01*
X15719007Y-27972692D01*
X15662061Y-27834532D01*
X15579365Y-27710063D01*
X15494000Y-27624101D01*
X15494000Y-26977820D01*
X15785670Y-26977820D01*
X15776631Y-26991021D01*
X15714394Y-27136232D01*
X15681547Y-27290766D01*
X15679341Y-27448737D01*
X15707861Y-27604128D01*
X15766019Y-27751020D01*
X15851602Y-27883818D01*
X15961348Y-27997464D01*
X16091079Y-28087629D01*
X16235851Y-28150878D01*
X16390152Y-28184804D01*
X16548104Y-28188112D01*
X16703690Y-28160678D01*
X16850984Y-28103546D01*
X16984377Y-28018893D01*
X17098786Y-27909943D01*
X17189854Y-27780845D01*
X17254113Y-27636517D01*
X17289115Y-27482457D01*
X17291635Y-27302007D01*
X17260948Y-27147029D01*
X17200744Y-27000964D01*
X17185367Y-26977820D01*
X17540000Y-26977820D01*
X17596628Y-26973304D01*
X17692675Y-26943560D01*
X17776633Y-26888236D01*
X17841854Y-26811712D01*
X17883173Y-26720047D01*
X17897320Y-26620500D01*
X17897320Y-25350500D01*
X17892804Y-25293872D01*
X17863060Y-25197825D01*
X17807736Y-25113867D01*
X17731212Y-25048646D01*
X17639547Y-25007327D01*
X17540000Y-24993180D01*
X16754544Y-24993180D01*
X16800768Y-24989466D01*
X18715015Y-24446208D01*
X20486496Y-23539939D01*
X20790285Y-23336954D01*
X21121106Y-21426435D01*
X15000000Y-15305329D01*
X8878894Y-21426435D01*
X5847863Y-21426435D01*
X5842272Y-21398200D01*
X5792920Y-21278461D01*
X5721249Y-21170589D01*
X5664200Y-21113140D01*
X5664200Y-20210598D01*
X5660078Y-20168559D01*
X5656398Y-20126495D01*
X5655728Y-20124188D01*
X5655493Y-20121794D01*
X5643282Y-20081351D01*
X5631503Y-20040808D01*
X5630397Y-20038673D01*
X5629702Y-20036373D01*
X5609867Y-19999067D01*
X5590440Y-19961589D01*
X5588942Y-19959713D01*
X5587812Y-19957587D01*
X5561078Y-19924808D01*
X5534771Y-19891854D01*
X5531473Y-19888509D01*
X5531416Y-19888439D01*
X5531351Y-19888386D01*
X5530289Y-19887308D01*
X4140200Y-18497220D01*
X4140200Y-17113591D01*
X4185338Y-17070607D01*
X4259992Y-16964777D01*
X4312669Y-16846463D01*
X4341362Y-16720171D01*
X4343428Y-16572244D01*
X4318272Y-16445200D01*
X4268920Y-16325461D01*
X4197249Y-16217589D01*
X4105991Y-16125691D01*
X3998622Y-16053270D01*
X3879230Y-16003082D01*
X3752365Y-15977040D01*
X3622857Y-15976136D01*
X3495640Y-16000404D01*
X3375559Y-16048920D01*
X3267189Y-16119835D01*
X3174657Y-16210449D01*
X3101487Y-16317311D01*
X3050467Y-16436349D01*
X3023541Y-16563030D01*
X3021732Y-16692528D01*
X3045112Y-16819912D01*
X3092788Y-16940328D01*
X3162945Y-17049191D01*
X3225800Y-17114279D01*
X3225800Y-18686598D01*
X3229922Y-18728641D01*
X3233602Y-18770701D01*
X3234272Y-18773008D01*
X3234507Y-18775402D01*
X3246704Y-18815798D01*
X3258496Y-18856388D01*
X3259605Y-18858527D01*
X3260298Y-18860823D01*
X3280115Y-18898094D01*
X3299560Y-18935607D01*
X3301058Y-18937483D01*
X3302188Y-18939609D01*
X3328917Y-18972382D01*
X3355228Y-19005341D01*
X3358523Y-19008683D01*
X3358584Y-19008757D01*
X3358653Y-19008814D01*
X3359711Y-19009887D01*
X4749800Y-20399977D01*
X4749800Y-20670991D01*
X4742686Y-20635062D01*
X4660361Y-20435328D01*
X4540809Y-20255388D01*
X4388584Y-20102096D01*
X4209483Y-19981291D01*
X4010328Y-19897574D01*
X3798706Y-19854134D01*
X3582676Y-19852626D01*
X3370468Y-19893107D01*
X3170164Y-19974035D01*
X2989393Y-20092327D01*
X2835042Y-20243479D01*
X2712990Y-20421732D01*
X2627885Y-20620298D01*
X2582968Y-20831612D01*
X2579952Y-21047626D01*
X1805383Y-21047626D01*
X1453714Y-20363354D01*
X669954Y-17630056D01*
X433762Y-14817318D01*
X4851167Y-14817318D01*
X5010534Y-16800768D01*
X5553792Y-18715015D01*
X6460061Y-20486496D01*
X6663046Y-20790285D01*
X8573565Y-21121106D01*
X14694671Y-15000000D01*
X15305329Y-15000000D01*
X21426435Y-21121106D01*
X23336954Y-20790285D01*
X24306390Y-19052567D01*
X24813419Y-17483358D01*
X24813419Y-19551437D01*
X20860046Y-23504809D01*
X20820543Y-23552901D01*
X20780616Y-23600484D01*
X20778913Y-23603583D01*
X20776664Y-23606320D01*
X20747254Y-23661169D01*
X20717330Y-23715601D01*
X20716261Y-23718971D01*
X20714587Y-23722093D01*
X20696405Y-23781565D01*
X20677609Y-23840818D01*
X20677214Y-23844337D01*
X20676180Y-23847720D01*
X20669896Y-23909584D01*
X20662966Y-23971365D01*
X20662917Y-23978281D01*
X20662904Y-23978413D01*
X20662916Y-23978536D01*
X20662900Y-23980763D01*
X20662900Y-24274080D01*
X20606154Y-24406479D01*
X20575085Y-24552650D01*
X20572998Y-24702071D01*
X20599974Y-24849052D01*
X20654985Y-24987994D01*
X20735936Y-25113605D01*
X20839743Y-25221100D01*
X20962452Y-25306385D01*
X21099390Y-25366212D01*
X21245340Y-25398301D01*
X21394743Y-25401430D01*
X21541908Y-25375481D01*
X21681231Y-25321441D01*
X21807404Y-25241370D01*
X21915621Y-25138316D01*
X22001761Y-25016205D01*
X22062542Y-24879688D01*
X22095649Y-24733966D01*
X22098033Y-24563282D01*
X22069007Y-24416692D01*
X22012061Y-24278532D01*
X22009100Y-24274075D01*
X22009100Y-24259571D01*
X22100032Y-24168639D01*
X22990735Y-24168639D01*
X23011441Y-24403019D01*
X23077277Y-24628912D01*
X23185735Y-24837716D01*
X23332685Y-25021476D01*
X23344515Y-25033452D01*
X23352771Y-25041694D01*
X23534715Y-25190887D01*
X23742173Y-25301898D01*
X23967242Y-25370500D01*
X24201350Y-25394079D01*
X24435579Y-25371737D01*
X24661007Y-25304326D01*
X24869048Y-25194413D01*
X25051779Y-25046184D01*
X25202239Y-24865285D01*
X25314695Y-24658607D01*
X25384866Y-24434022D01*
X25410079Y-24200085D01*
X25389373Y-23965706D01*
X25323537Y-23739812D01*
X25215079Y-23531008D01*
X25068129Y-23347248D01*
X25056299Y-23335272D01*
X25048043Y-23327030D01*
X24866099Y-23177837D01*
X24658641Y-23066826D01*
X24433572Y-22998224D01*
X24199464Y-22974646D01*
X23965235Y-22996987D01*
X23739807Y-23064398D01*
X23531766Y-23174312D01*
X23349035Y-23322541D01*
X23198576Y-23503439D01*
X23086119Y-23710118D01*
X23015948Y-23934702D01*
X22990735Y-24168639D01*
X22100032Y-24168639D01*
X24969750Y-21298921D01*
X24884430Y-21467062D01*
X24820744Y-21693571D01*
X24802266Y-21928136D01*
X24829700Y-22161823D01*
X24902001Y-22385731D01*
X25016417Y-22591332D01*
X25168588Y-22770793D01*
X25352718Y-22917278D01*
X25366914Y-22926324D01*
X25376796Y-22932524D01*
X25587359Y-23037527D01*
X25814307Y-23099631D01*
X26048996Y-23116471D01*
X26282486Y-23087406D01*
X26505883Y-23013543D01*
X26710679Y-22897695D01*
X26889074Y-22744276D01*
X27034271Y-22559127D01*
X27140742Y-22349302D01*
X27204429Y-22122793D01*
X27222906Y-21888228D01*
X27195472Y-21654541D01*
X27123171Y-21430633D01*
X27008755Y-21225032D01*
X26856584Y-21045572D01*
X26672454Y-20899086D01*
X26658258Y-20890040D01*
X26648376Y-20883840D01*
X26437813Y-20778837D01*
X26210865Y-20716733D01*
X25976176Y-20699893D01*
X25742686Y-20728958D01*
X25519289Y-20802821D01*
X25396248Y-20872422D01*
X25692548Y-20576122D01*
X27051305Y-20576122D01*
X27228741Y-20744911D01*
X27514217Y-20725543D01*
X27790430Y-20650853D01*
X28046765Y-20523713D01*
X28273371Y-20349007D01*
X28442571Y-20159421D01*
X28419141Y-19914860D01*
X27405806Y-19560988D01*
X27051305Y-20576122D01*
X25692548Y-20576122D01*
X25962472Y-20306198D01*
X26001929Y-20258162D01*
X26041903Y-20210523D01*
X26043608Y-20207421D01*
X26045854Y-20204687D01*
X26075224Y-20149912D01*
X26088130Y-20126437D01*
X26188352Y-20262530D01*
X26399711Y-20455401D01*
X26643647Y-20433761D01*
X26998148Y-19418628D01*
X26979267Y-19412034D01*
X27069609Y-19153330D01*
X27548166Y-19153330D01*
X28561501Y-19507203D01*
X28732081Y-19330394D01*
X28717683Y-19076692D01*
X28649096Y-18798900D01*
X28527633Y-18539827D01*
X28357962Y-18309428D01*
X28146603Y-18116557D01*
X27902667Y-18138197D01*
X27548166Y-19153330D01*
X27069609Y-19153330D01*
X27121626Y-19004376D01*
X27140508Y-19010970D01*
X27495009Y-17995836D01*
X27317573Y-17827047D01*
X27032097Y-17846415D01*
X26755884Y-17921105D01*
X26499549Y-18048245D01*
X26272943Y-18222951D01*
X26159619Y-18349929D01*
X26159619Y-16540987D01*
X26711142Y-16540987D01*
X26752010Y-16772703D01*
X26837107Y-16992067D01*
X26963191Y-17190726D01*
X27125459Y-17361111D01*
X27317732Y-17496734D01*
X27532686Y-17592427D01*
X27762133Y-17644545D01*
X27778848Y-17646538D01*
X27790442Y-17647838D01*
X28025711Y-17651114D01*
X28257135Y-17608630D01*
X28475901Y-17522004D01*
X28673674Y-17394536D01*
X28842923Y-17231082D01*
X28977199Y-17037867D01*
X29071389Y-16822251D01*
X29121906Y-16592446D01*
X29126824Y-16357205D01*
X29085956Y-16125489D01*
X29000860Y-15906125D01*
X28874776Y-15707466D01*
X28712507Y-15537081D01*
X28520234Y-15401458D01*
X28305280Y-15305765D01*
X28075834Y-15253647D01*
X28059119Y-15251654D01*
X28047524Y-15250354D01*
X27812255Y-15247078D01*
X27580831Y-15289562D01*
X27362065Y-15376188D01*
X27164292Y-15503656D01*
X26995043Y-15667110D01*
X26860768Y-15860325D01*
X26766577Y-16075941D01*
X26716061Y-16305746D01*
X26711142Y-16540987D01*
X26159619Y-16540987D01*
X26159619Y-13432016D01*
X26711189Y-13432016D01*
X26713027Y-13667301D01*
X26760530Y-13897748D01*
X26851890Y-14114579D01*
X26983626Y-14309535D01*
X27150720Y-14475191D01*
X27346808Y-14605237D01*
X27564420Y-14694720D01*
X27795269Y-14740230D01*
X28030560Y-14740034D01*
X28047300Y-14738261D01*
X28058892Y-14736951D01*
X28289002Y-14687840D01*
X28505189Y-14594969D01*
X28699222Y-14461875D01*
X28863707Y-14293629D01*
X28992381Y-14096638D01*
X29080341Y-13878406D01*
X29124239Y-13647246D01*
X29122401Y-13411961D01*
X29074898Y-13181514D01*
X28983538Y-12964683D01*
X28851802Y-12769727D01*
X28684708Y-12604071D01*
X28488621Y-12474025D01*
X28271008Y-12384542D01*
X28040159Y-12339032D01*
X27804868Y-12339228D01*
X27788128Y-12341001D01*
X27776536Y-12342311D01*
X27546427Y-12391422D01*
X27330239Y-12484293D01*
X27136206Y-12617387D01*
X26971721Y-12785633D01*
X26843047Y-12982624D01*
X26755087Y-13200856D01*
X26711189Y-13432016D01*
X26159619Y-13432016D01*
X26159619Y-11175440D01*
X26220897Y-11309892D01*
X26358206Y-11500965D01*
X26530012Y-11661729D01*
X26729771Y-11786060D01*
X26949876Y-11869224D01*
X27181943Y-11908052D01*
X27417131Y-11901065D01*
X27646482Y-11848529D01*
X27662408Y-11843076D01*
X27673418Y-11839220D01*
X27886835Y-11740148D01*
X28076944Y-11601509D01*
X28236505Y-11428585D01*
X28359439Y-11227962D01*
X28441064Y-11007282D01*
X28478271Y-10774951D01*
X28469642Y-10539817D01*
X28415507Y-10310838D01*
X28317927Y-10096734D01*
X28180619Y-9905661D01*
X28008813Y-9744897D01*
X27809053Y-9620566D01*
X27588948Y-9537402D01*
X27356882Y-9498574D01*
X27121694Y-9505561D01*
X26892342Y-9558097D01*
X26876417Y-9563550D01*
X26865406Y-9567406D01*
X26651989Y-9666478D01*
X26461880Y-9805116D01*
X26302319Y-9978041D01*
X26179385Y-10178664D01*
X26159619Y-10232103D01*
X26159619Y-9821594D01*
X26482506Y-9498706D01*
X26521989Y-9450639D01*
X26561936Y-9403032D01*
X26563639Y-9399933D01*
X26565888Y-9397196D01*
X26595288Y-9342366D01*
X26625222Y-9287915D01*
X26626292Y-9284542D01*
X26627965Y-9281422D01*
X26646156Y-9221923D01*
X26664943Y-9162698D01*
X26665337Y-9159184D01*
X26666373Y-9155796D01*
X26672662Y-9093882D01*
X26673797Y-9083759D01*
X26839049Y-8955817D01*
X26993575Y-8778380D01*
X27110695Y-8574308D01*
X27185945Y-8351373D01*
X27216462Y-8118069D01*
X27201081Y-7883281D01*
X27140389Y-7655951D01*
X27036698Y-7444739D01*
X26893957Y-7257690D01*
X26717603Y-7101928D01*
X26514354Y-6983388D01*
X26291950Y-6906583D01*
X26058864Y-6874438D01*
X25823974Y-6888179D01*
X25596226Y-6947282D01*
X25384296Y-7049497D01*
X25369981Y-7058354D01*
X25360103Y-7064562D01*
X25174055Y-7208605D01*
X25019529Y-7386042D01*
X24902410Y-7590114D01*
X24827159Y-7813049D01*
X24796642Y-8046353D01*
X24812024Y-8281141D01*
X24872715Y-8508471D01*
X24976406Y-8719683D01*
X25119147Y-8906732D01*
X25146503Y-8930894D01*
X25010565Y-9066832D01*
X24971062Y-9114924D01*
X24931135Y-9162507D01*
X24929432Y-9165606D01*
X24927183Y-9168343D01*
X24897773Y-9223192D01*
X24867849Y-9277624D01*
X24866780Y-9280994D01*
X24865106Y-9284116D01*
X24846924Y-9343588D01*
X24828128Y-9402841D01*
X24827733Y-9406360D01*
X24826699Y-9409743D01*
X24820415Y-9471607D01*
X24813485Y-9533388D01*
X24813436Y-9540304D01*
X24813423Y-9540436D01*
X24813435Y-9540559D01*
X24813419Y-9542786D01*
X24813419Y-12578905D01*
X24446208Y-11284985D01*
X23539939Y-9513504D01*
X23336954Y-9209715D01*
X21426435Y-8878894D01*
X15305329Y-15000000D01*
X14694671Y-15000000D01*
X8573565Y-8878894D01*
X6663046Y-9209715D01*
X5693610Y-10947433D01*
X5081813Y-12840889D01*
X4851167Y-14817318D01*
X433762Y-14817318D01*
X432020Y-14796579D01*
X748976Y-11970851D01*
X1608750Y-9260503D01*
X1691695Y-9109626D01*
X2579952Y-9109626D01*
X2618951Y-9322111D01*
X2698478Y-9522975D01*
X2815506Y-9704567D01*
X2965577Y-9859970D01*
X3142974Y-9983264D01*
X3340940Y-10069753D01*
X3551935Y-10116143D01*
X3767923Y-10120668D01*
X3980675Y-10083154D01*
X4182090Y-10005030D01*
X4364494Y-9889273D01*
X4520941Y-9740291D01*
X4645470Y-9563759D01*
X4733339Y-9366401D01*
X4781202Y-9155735D01*
X4784647Y-8908983D01*
X4742686Y-8697062D01*
X4691784Y-8573565D01*
X8878894Y-8573565D01*
X15000000Y-14694671D01*
X21121106Y-8573565D01*
X20790285Y-6663046D01*
X19217494Y-5785619D01*
X22633663Y-5785619D01*
X22641656Y-5885848D01*
X22677255Y-5979882D01*
X22737643Y-6060275D01*
X23939725Y-7262357D01*
X23982960Y-7299206D01*
X24071907Y-7346090D01*
X24170395Y-7366337D01*
X24270624Y-7358344D01*
X24364658Y-7322745D01*
X24445051Y-7262357D01*
X25647133Y-6060275D01*
X25683982Y-6017040D01*
X25730866Y-5928093D01*
X25751113Y-5829605D01*
X25743120Y-5729376D01*
X25707521Y-5635342D01*
X25647133Y-5554949D01*
X24445051Y-4352867D01*
X24401816Y-4316018D01*
X24312869Y-4269134D01*
X24214381Y-4248887D01*
X24114152Y-4256880D01*
X24020118Y-4292479D01*
X23939725Y-4352867D01*
X22737643Y-5554949D01*
X22700794Y-5598184D01*
X22653910Y-5687131D01*
X22633663Y-5785619D01*
X19217494Y-5785619D01*
X19052567Y-5693610D01*
X17159111Y-5081813D01*
X16516488Y-5006820D01*
X17540000Y-5006820D01*
X17596628Y-5002304D01*
X17692675Y-4972560D01*
X17776633Y-4917236D01*
X17841854Y-4840712D01*
X17883173Y-4749047D01*
X17897320Y-4649500D01*
X17897320Y-3379500D01*
X17892804Y-3322872D01*
X17863060Y-3226825D01*
X17807736Y-3142867D01*
X17731212Y-3077646D01*
X17639547Y-3036327D01*
X17540000Y-3022180D01*
X12460000Y-3022180D01*
X12403372Y-3026696D01*
X12307325Y-3056440D01*
X12223367Y-3111764D01*
X12158146Y-3188288D01*
X12116827Y-3279953D01*
X12108095Y-3341400D01*
X10089959Y-3341400D01*
X10068920Y-3332556D01*
X9922536Y-3302508D01*
X9773104Y-3301464D01*
X9626315Y-3329466D01*
X9487760Y-3385445D01*
X9362718Y-3467271D01*
X9255950Y-3571826D01*
X9171523Y-3695127D01*
X9112654Y-3832479D01*
X9081585Y-3978650D01*
X9079498Y-4128071D01*
X9106474Y-4275052D01*
X9161485Y-4413994D01*
X9242436Y-4539605D01*
X9346243Y-4647100D01*
X9468952Y-4732385D01*
X9605890Y-4792212D01*
X9751840Y-4824301D01*
X9901243Y-4827430D01*
X10048408Y-4801481D01*
X10187731Y-4747441D01*
X10282026Y-4687600D01*
X12105718Y-4687600D01*
X12107196Y-4706128D01*
X12136940Y-4802175D01*
X12192264Y-4886133D01*
X12268788Y-4951354D01*
X12360453Y-4992673D01*
X12460000Y-5006820D01*
X13245456Y-5006820D01*
X13199232Y-5010534D01*
X11284985Y-5553792D01*
X9513504Y-6460061D01*
X9209715Y-6663046D01*
X8878894Y-8573565D01*
X4691784Y-8573565D01*
X4660361Y-8497328D01*
X4540809Y-8317388D01*
X4388584Y-8164096D01*
X4209483Y-8043291D01*
X4010328Y-7959574D01*
X3798706Y-7916134D01*
X3582676Y-7914626D01*
X3370468Y-7955107D01*
X3170164Y-8036035D01*
X2989393Y-8154327D01*
X2835042Y-8305479D01*
X2712990Y-8483732D01*
X2627885Y-8682298D01*
X2582968Y-8893612D01*
X2579952Y-9109626D01*
X1691695Y-9109626D01*
X2978591Y-6768770D01*
X4806325Y-4590562D01*
X7022332Y-2808846D01*
X9542207Y-1491488D01*
X12269967Y-688664D01*
X15101713Y-430955D01*
X17929585Y-728176D01*
M02*
