M48
;DRILL file {KiCad 4.0.7-e2-6376~58~ubuntu16.04.1} date Fri Nov 23 22:20:03 2018
;FORMAT={-:-/ absolute / metric / decimal}
FMAT,2
METRIC,TZ
T1C0.254
T2C0.457
T3C1.000
T4C0.900
%
G90
G05
M71
T1
X3.683Y-16.637
X5.207Y-21.59
T2
X1.143Y-12.954
X1.143Y-13.97
X1.143Y-14.986
X1.143Y-16.002
X1.143Y-17.018
X2.159Y-11.938
X2.159Y-12.954
X2.159Y-13.97
X2.159Y-14.986
X2.159Y-16.002
X2.159Y-17.018
X2.159Y-18.034
X9.842Y-4.064
X14.986Y-28.194
X15.Y-15.
X21.336Y-24.638
T3
X24.192Y-5.808
X24.2Y-24.184
X26.007Y-8.082
X26.013Y-21.908
X27.269Y-10.703
X27.273Y-19.286
X27.918Y-13.54
X27.919Y-16.449
T4
X13.486Y-27.381
X16.486Y-27.381
T0
M30
