G04 #@! TF.FileFunction,Copper,L1,Top,Signal*
%FSLAX46Y46*%
G04 Gerber Fmt 4.6, Leading zero omitted, Abs format (unit mm)*
G04 Created by KiCad (PCBNEW 4.0.7-e2-6376~58~ubuntu16.04.1) date Fri Nov 23 22:20:00 2018*
%MOMM*%
%LPD*%
G01*
G04 APERTURE LIST*
%ADD10C,0.100000*%
%ADD11R,1.000000X1.500000*%
%ADD12C,1.000000*%
%ADD13C,1.700000*%
%ADD14R,1.200000X0.750000*%
%ADD15R,0.750000X1.200000*%
%ADD16R,1.600000X1.000000*%
%ADD17R,1.200000X0.900000*%
%ADD18R,0.900000X1.200000*%
%ADD19R,1.060000X0.650000*%
%ADD20R,0.700000X1.500000*%
%ADD21R,1.000000X0.800000*%
%ADD22R,1.700000X0.650000*%
%ADD23C,0.812800*%
%ADD24C,0.609600*%
%ADD25C,0.635000*%
%ADD26C,0.304800*%
%ADD27C,0.203200*%
G04 APERTURE END LIST*
D10*
D11*
X6076000Y-11938000D03*
X3576000Y-11938000D03*
D12*
X19177000Y-11176000D03*
D10*
G36*
X24192388Y-7009694D02*
X22990306Y-5807612D01*
X24192388Y-4605530D01*
X25394470Y-5807612D01*
X24192388Y-7009694D01*
X24192388Y-7009694D01*
G37*
D13*
X26006552Y-8082211D02*
X26006552Y-8082211D01*
X27269412Y-10703313D02*
X27269412Y-10703313D01*
X27917714Y-13539631D02*
X27917714Y-13539631D01*
X27918983Y-16449096D02*
X27918983Y-16449096D01*
X27273157Y-19285979D02*
X27273157Y-19285979D01*
X26012586Y-21908182D02*
X26012586Y-21908182D01*
X24200407Y-24184362D02*
X24200407Y-24184362D01*
D14*
X5776000Y-10033000D03*
X3876000Y-10033000D03*
D15*
X9144000Y-13909000D03*
X9144000Y-15809000D03*
D16*
X17500000Y-16600000D03*
X17500000Y-13400000D03*
X12500000Y-16600000D03*
X12500000Y-13400000D03*
D17*
X3726000Y-19304000D03*
X5926000Y-19304000D03*
D18*
X7620000Y-13759000D03*
X7620000Y-15959000D03*
D17*
X5926000Y-17653000D03*
X3726000Y-17653000D03*
X16213000Y-1968500D03*
X14013000Y-1968500D03*
D19*
X3726000Y-14036000D03*
X3726000Y-14986000D03*
X3726000Y-15936000D03*
X5926000Y-15936000D03*
X5926000Y-14036000D03*
X5926000Y-14986000D03*
D20*
X12736000Y-25621000D03*
X15736000Y-25621000D03*
X17236000Y-25621000D03*
D21*
X11336000Y-28481000D03*
X18636000Y-28481000D03*
X18636000Y-26271000D03*
X11336000Y-26271000D03*
D14*
X12512000Y-11303000D03*
X14412000Y-11303000D03*
D12*
X8255000Y-11176000D03*
D22*
X11463000Y-3810000D03*
X11463000Y-5080000D03*
X11463000Y-6350000D03*
X11463000Y-7620000D03*
X18763000Y-7620000D03*
X18763000Y-6350000D03*
X18763000Y-5080000D03*
X18763000Y-3810000D03*
D23*
X9842500Y-4064000D03*
X14986000Y-28194000D03*
X1143000Y-17018000D03*
X1143000Y-16002000D03*
X1143000Y-12954000D03*
X1143000Y-13970000D03*
X1143000Y-14986000D03*
X2159000Y-18034000D03*
X2159000Y-17018000D03*
X2159000Y-16002000D03*
X2159000Y-11938000D03*
X2159000Y-12954000D03*
X2159000Y-13970000D03*
X2159000Y-14986000D03*
X15000000Y-15000000D03*
X21336000Y-24638000D03*
D24*
X5207000Y-21590000D03*
X3683000Y-16637000D03*
D25*
X7806306Y-4064000D02*
X9842500Y-4064000D01*
X5776000Y-6094306D02*
X5776000Y-10033000D01*
D26*
X14986000Y-26670000D02*
X14986000Y-28194000D01*
X13937000Y-25621000D02*
X14986000Y-26670000D01*
X12736000Y-25621000D02*
X13937000Y-25621000D01*
D25*
X7806306Y-4064000D02*
X5776000Y-6094306D01*
D26*
X1143000Y-16002000D02*
X1143000Y-17018000D01*
X1143000Y-14986000D02*
X1143000Y-16002000D01*
X1143000Y-13970000D02*
X1143000Y-12954000D01*
X1143000Y-14986000D02*
X1143000Y-13970000D01*
X2159000Y-14986000D02*
X1143000Y-14986000D01*
X2159000Y-14986000D02*
X3726000Y-14986000D01*
X2178572Y-14986000D02*
X2163831Y-14971259D01*
X2159000Y-17018000D02*
X2159000Y-18034000D01*
X2159000Y-16002000D02*
X2159000Y-17018000D01*
X2159000Y-14986000D02*
X2159000Y-16002000D01*
X2159000Y-12954000D02*
X2159000Y-11938000D01*
X2159000Y-13970000D02*
X2159000Y-12954000D01*
X2159000Y-14986000D02*
X2159000Y-13970000D01*
X17500000Y-16600000D02*
X15819090Y-16600000D01*
X15819090Y-16600000D02*
X15000000Y-15780910D01*
X15000000Y-15780910D02*
X15000000Y-15000000D01*
D25*
X16213000Y-1968500D02*
X16213000Y-3310758D01*
X16213000Y-3310758D02*
X16712242Y-3810000D01*
X16712242Y-3810000D02*
X18763000Y-3810000D01*
X11163297Y-13903020D02*
X11163297Y-18129060D01*
X11163297Y-18129060D02*
X11957237Y-18923000D01*
X11957237Y-18923000D02*
X15621000Y-18923000D01*
X15621000Y-18923000D02*
X21336000Y-24638000D01*
X12500000Y-13400000D02*
X11666317Y-13400000D01*
X11666317Y-13400000D02*
X11163297Y-13903020D01*
X19576942Y-3810000D02*
X23849153Y-8082211D01*
X23849153Y-8082211D02*
X26006552Y-8082211D01*
X9144000Y-13909000D02*
X11157317Y-13909000D01*
D26*
X11157317Y-13909000D02*
X11163297Y-13903020D01*
D25*
X12512000Y-11303000D02*
X12512000Y-13388000D01*
D26*
X12512000Y-13388000D02*
X12500000Y-13400000D01*
D27*
X11463000Y-5080000D02*
X12510509Y-5080000D01*
X12510509Y-5080000D02*
X17500000Y-10069491D01*
X17500000Y-10069491D02*
X17500000Y-13400000D01*
X17500000Y-13400000D02*
X18658693Y-13400000D01*
X18658693Y-13400000D02*
X26012586Y-20753893D01*
X26012586Y-20753893D02*
X26012586Y-21908182D01*
X15736000Y-25621000D02*
X15736000Y-24811127D01*
X15736000Y-24811127D02*
X15417008Y-24492135D01*
X15417008Y-24492135D02*
X5823135Y-24492135D01*
X5823135Y-24492135D02*
X5207000Y-23876000D01*
X5207000Y-23876000D02*
X5207000Y-21590000D01*
X3726000Y-19304000D02*
X3726000Y-20109000D01*
X3726000Y-20109000D02*
X5207000Y-21590000D01*
X3726000Y-19177000D02*
X3937000Y-19177000D01*
X3726000Y-15936000D02*
X3726000Y-16594000D01*
X3726000Y-16594000D02*
X3683000Y-16637000D01*
X5926000Y-15936000D02*
X7851000Y-15936000D01*
X7851000Y-15936000D02*
X7874000Y-15959000D01*
X5926000Y-17653000D02*
X5926000Y-15936000D01*
X7597000Y-15936000D02*
X7620000Y-15959000D01*
X11463000Y-3810000D02*
X12597919Y-3810000D01*
X12597919Y-3810000D02*
X18363846Y-9575927D01*
X18363846Y-9575927D02*
X20971936Y-9575927D01*
X20971936Y-9575927D02*
X27845105Y-16449096D01*
X27845105Y-16449096D02*
X27918983Y-16449096D01*
X14013000Y-1968500D02*
X12001500Y-1968500D01*
X12001500Y-1968500D02*
X11463000Y-2507000D01*
X11463000Y-2507000D02*
X11463000Y-3810000D01*
X11463000Y-6350000D02*
X12485271Y-6350000D01*
X16718580Y-15735057D02*
X18908505Y-15735057D01*
X12485271Y-6350000D02*
X15875000Y-9739729D01*
X15875000Y-9739729D02*
X15875000Y-14891477D01*
X15875000Y-14891477D02*
X16718580Y-15735057D01*
X18908505Y-15735057D02*
X24200407Y-21026959D01*
X24200407Y-21026959D02*
X24200407Y-24184362D01*
X20374789Y-7620000D02*
X18763000Y-7620000D01*
X20374789Y-7620000D02*
X26294420Y-13539631D01*
X26294420Y-13539631D02*
X27917714Y-13539631D01*
X18763000Y-6350000D02*
X17556197Y-6350000D01*
X17556197Y-6350000D02*
X15113000Y-3906803D01*
X15113000Y-3906803D02*
X15113000Y-1397000D01*
X15113000Y-1397000D02*
X15351231Y-1158769D01*
X15351231Y-1158769D02*
X17001593Y-1158769D01*
X17001593Y-1158769D02*
X17187003Y-1344179D01*
X17187003Y-1344179D02*
X17187003Y-2728896D01*
X17187003Y-2728896D02*
X17515392Y-3057285D01*
X17515392Y-3057285D02*
X19783975Y-3057285D01*
X19783975Y-3057285D02*
X22534302Y-5807612D01*
X22534302Y-5807612D02*
X24192388Y-5807612D01*
X18763000Y-5080000D02*
X19935493Y-5080000D01*
X19935493Y-5080000D02*
X25558806Y-10703313D01*
X25558806Y-10703313D02*
X27269412Y-10703313D01*
G36*
X17929585Y-728176D02*
X20645870Y-1569007D01*
X23147105Y-2921420D01*
X25338020Y-4733902D01*
X27135163Y-6937417D01*
X28470081Y-9448033D01*
X29291928Y-12170122D01*
X29569400Y-15000000D01*
X29563720Y-15406802D01*
X29207341Y-18227829D01*
X28309809Y-20925909D01*
X26905311Y-23398273D01*
X25047343Y-25550750D01*
X22806675Y-27301351D01*
X20268653Y-28583398D01*
X19493320Y-28799875D01*
X19493320Y-28081000D01*
X19488804Y-28024372D01*
X19459060Y-27928325D01*
X19403736Y-27844367D01*
X19327212Y-27779146D01*
X19235547Y-27737827D01*
X19136000Y-27723680D01*
X18136000Y-27723680D01*
X18079372Y-27728196D01*
X17983325Y-27757940D01*
X17899367Y-27813264D01*
X17834146Y-27889788D01*
X17792827Y-27981453D01*
X17778680Y-28081000D01*
X17778680Y-28881000D01*
X17783196Y-28937628D01*
X17812940Y-29033675D01*
X17868264Y-29117633D01*
X17944788Y-29182854D01*
X18012434Y-29213346D01*
X17529950Y-29348058D01*
X14694882Y-29566205D01*
X11896703Y-29232542D01*
X11988675Y-29204060D01*
X12072633Y-29148736D01*
X12137854Y-29072212D01*
X12179173Y-28980547D01*
X12193320Y-28881000D01*
X12193320Y-28081000D01*
X12188804Y-28024372D01*
X12159060Y-27928325D01*
X12103736Y-27844367D01*
X12027212Y-27779146D01*
X11935547Y-27737827D01*
X11836000Y-27723680D01*
X10836000Y-27723680D01*
X10779372Y-27728196D01*
X10683325Y-27757940D01*
X10599367Y-27813264D01*
X10534146Y-27889788D01*
X10492827Y-27981453D01*
X10478680Y-28081000D01*
X10478680Y-28776995D01*
X9167155Y-28350855D01*
X6685046Y-26963651D01*
X4519651Y-25120756D01*
X2753449Y-22892364D01*
X1453714Y-20363354D01*
X1020915Y-18854000D01*
X2768680Y-18854000D01*
X2768680Y-19754000D01*
X2773196Y-19810628D01*
X2802940Y-19906675D01*
X2858264Y-19990633D01*
X2934788Y-20055854D01*
X3026453Y-20097173D01*
X3126000Y-20111320D01*
X3269027Y-20111320D01*
X3272922Y-20151043D01*
X3276602Y-20193103D01*
X3277272Y-20195410D01*
X3277507Y-20197804D01*
X3289704Y-20238200D01*
X3301496Y-20278790D01*
X3302605Y-20280929D01*
X3303298Y-20283225D01*
X3323115Y-20320496D01*
X3342560Y-20358009D01*
X3344058Y-20359885D01*
X3345188Y-20362011D01*
X3371917Y-20394784D01*
X3398228Y-20427743D01*
X3401523Y-20431085D01*
X3401584Y-20431159D01*
X3401653Y-20431216D01*
X3402711Y-20432289D01*
X4546699Y-21576277D01*
X4545732Y-21645528D01*
X4569112Y-21772912D01*
X4616788Y-21893328D01*
X4686945Y-22002191D01*
X4749800Y-22067279D01*
X4749800Y-23876000D01*
X4753922Y-23918043D01*
X4757602Y-23960103D01*
X4758272Y-23962410D01*
X4758507Y-23964804D01*
X4770704Y-24005200D01*
X4782496Y-24045790D01*
X4783605Y-24047929D01*
X4784298Y-24050225D01*
X4804115Y-24087496D01*
X4823560Y-24125009D01*
X4825058Y-24126885D01*
X4826188Y-24129011D01*
X4852917Y-24161784D01*
X4879228Y-24194743D01*
X4882523Y-24198085D01*
X4882584Y-24198159D01*
X4882653Y-24198216D01*
X4883711Y-24199289D01*
X5499845Y-24815424D01*
X5532499Y-24842246D01*
X5564832Y-24869377D01*
X5566938Y-24870535D01*
X5568796Y-24872061D01*
X5605991Y-24892005D01*
X5643025Y-24912364D01*
X5645320Y-24913092D01*
X5647435Y-24914226D01*
X5687791Y-24926564D01*
X5728078Y-24939344D01*
X5730466Y-24939612D01*
X5732766Y-24940315D01*
X5774798Y-24944584D01*
X5816751Y-24949290D01*
X5821452Y-24949323D01*
X5821539Y-24949332D01*
X5821620Y-24949324D01*
X5823135Y-24949335D01*
X12028680Y-24949335D01*
X12028680Y-25570397D01*
X12027212Y-25569146D01*
X11935547Y-25527827D01*
X11836000Y-25513680D01*
X10836000Y-25513680D01*
X10779372Y-25518196D01*
X10683325Y-25547940D01*
X10599367Y-25603264D01*
X10534146Y-25679788D01*
X10492827Y-25771453D01*
X10478680Y-25871000D01*
X10478680Y-26671000D01*
X10483196Y-26727628D01*
X10512940Y-26823675D01*
X10568264Y-26907633D01*
X10644788Y-26972854D01*
X10736453Y-27014173D01*
X10836000Y-27028320D01*
X11836000Y-27028320D01*
X11892628Y-27023804D01*
X11988675Y-26994060D01*
X12072633Y-26938736D01*
X12137854Y-26862212D01*
X12179173Y-26770547D01*
X12193244Y-26671538D01*
X12194788Y-26672854D01*
X12286453Y-26714173D01*
X12386000Y-26728320D01*
X13012090Y-26728320D01*
X12978765Y-26750127D01*
X12865889Y-26860665D01*
X12776631Y-26991021D01*
X12714394Y-27136232D01*
X12681547Y-27290766D01*
X12679341Y-27448737D01*
X12707861Y-27604128D01*
X12766019Y-27751020D01*
X12851602Y-27883818D01*
X12961348Y-27997464D01*
X13091079Y-28087629D01*
X13235851Y-28150878D01*
X13390152Y-28184804D01*
X13548104Y-28188112D01*
X13703690Y-28160678D01*
X13850984Y-28103546D01*
X13984377Y-28018893D01*
X14098786Y-27909943D01*
X14189854Y-27780845D01*
X14254113Y-27636517D01*
X14289115Y-27482457D01*
X14291635Y-27302007D01*
X14260948Y-27147029D01*
X14200744Y-27000964D01*
X14113316Y-26869374D01*
X14001993Y-26757271D01*
X13871017Y-26668926D01*
X13725375Y-26607704D01*
X13570616Y-26575937D01*
X13412633Y-26574834D01*
X13370197Y-26582929D01*
X13387854Y-26562212D01*
X13429173Y-26470547D01*
X13443320Y-26371000D01*
X13443320Y-26129000D01*
X13726580Y-26129000D01*
X14478000Y-26880420D01*
X14478000Y-27624904D01*
X14399450Y-27701826D01*
X14315023Y-27825127D01*
X14256154Y-27962479D01*
X14225085Y-28108650D01*
X14222998Y-28258071D01*
X14249974Y-28405052D01*
X14304985Y-28543994D01*
X14385936Y-28669605D01*
X14489743Y-28777100D01*
X14612452Y-28862385D01*
X14749390Y-28922212D01*
X14895340Y-28954301D01*
X15044743Y-28957430D01*
X15191908Y-28931481D01*
X15331231Y-28877441D01*
X15457404Y-28797370D01*
X15565621Y-28694316D01*
X15651761Y-28572205D01*
X15712542Y-28435688D01*
X15745649Y-28289966D01*
X15748033Y-28119282D01*
X15719007Y-27972692D01*
X15662061Y-27834532D01*
X15579365Y-27710063D01*
X15494000Y-27624101D01*
X15494000Y-26728320D01*
X16012090Y-26728320D01*
X15978765Y-26750127D01*
X15865889Y-26860665D01*
X15776631Y-26991021D01*
X15714394Y-27136232D01*
X15681547Y-27290766D01*
X15679341Y-27448737D01*
X15707861Y-27604128D01*
X15766019Y-27751020D01*
X15851602Y-27883818D01*
X15961348Y-27997464D01*
X16091079Y-28087629D01*
X16235851Y-28150878D01*
X16390152Y-28184804D01*
X16548104Y-28188112D01*
X16703690Y-28160678D01*
X16850984Y-28103546D01*
X16984377Y-28018893D01*
X17098786Y-27909943D01*
X17189854Y-27780845D01*
X17254113Y-27636517D01*
X17289115Y-27482457D01*
X17291635Y-27302007D01*
X17260948Y-27147029D01*
X17200744Y-27000964D01*
X17113316Y-26869374D01*
X17001993Y-26757271D01*
X16959072Y-26728320D01*
X17586000Y-26728320D01*
X17642628Y-26723804D01*
X17738675Y-26694060D01*
X17778680Y-26667699D01*
X17778680Y-26671000D01*
X17783196Y-26727628D01*
X17812940Y-26823675D01*
X17868264Y-26907633D01*
X17944788Y-26972854D01*
X18036453Y-27014173D01*
X18136000Y-27028320D01*
X19136000Y-27028320D01*
X19192628Y-27023804D01*
X19288675Y-26994060D01*
X19372633Y-26938736D01*
X19437854Y-26862212D01*
X19479173Y-26770547D01*
X19493320Y-26671000D01*
X19493320Y-25871000D01*
X19488804Y-25814372D01*
X19459060Y-25718325D01*
X19403736Y-25634367D01*
X19327212Y-25569146D01*
X19235547Y-25527827D01*
X19136000Y-25513680D01*
X18136000Y-25513680D01*
X18079372Y-25518196D01*
X17983325Y-25547940D01*
X17943320Y-25574301D01*
X17943320Y-24871000D01*
X17938804Y-24814372D01*
X17909060Y-24718325D01*
X17853736Y-24634367D01*
X17777212Y-24569146D01*
X17685547Y-24527827D01*
X17586000Y-24513680D01*
X16886000Y-24513680D01*
X16829372Y-24518196D01*
X16733325Y-24547940D01*
X16649367Y-24603264D01*
X16584146Y-24679788D01*
X16542827Y-24771453D01*
X16528680Y-24871000D01*
X16528680Y-26371000D01*
X16533196Y-26427628D01*
X16562940Y-26523675D01*
X16601564Y-26582290D01*
X16570616Y-26575937D01*
X16412633Y-26574834D01*
X16370197Y-26582929D01*
X16387854Y-26562212D01*
X16429173Y-26470547D01*
X16443320Y-26371000D01*
X16443320Y-24871000D01*
X16438804Y-24814372D01*
X16409060Y-24718325D01*
X16353736Y-24634367D01*
X16277212Y-24569146D01*
X16185547Y-24527827D01*
X16086000Y-24513680D01*
X16080772Y-24513680D01*
X16063772Y-24492384D01*
X16060477Y-24489042D01*
X16060416Y-24488968D01*
X16060347Y-24488911D01*
X16059289Y-24487838D01*
X15740297Y-24168846D01*
X15707669Y-24142044D01*
X15675311Y-24114893D01*
X15673205Y-24113735D01*
X15671347Y-24112209D01*
X15634152Y-24092265D01*
X15597118Y-24071906D01*
X15594823Y-24071178D01*
X15592708Y-24070044D01*
X15552311Y-24057693D01*
X15512065Y-24044926D01*
X15509682Y-24044659D01*
X15507377Y-24043954D01*
X15465251Y-24039675D01*
X15423392Y-24034980D01*
X15418702Y-24034947D01*
X15418604Y-24034937D01*
X15418513Y-24034946D01*
X15417008Y-24034935D01*
X6012514Y-24034935D01*
X5664200Y-23686622D01*
X5664200Y-22066591D01*
X5709338Y-22023607D01*
X5783992Y-21917777D01*
X5836669Y-21799463D01*
X5865362Y-21673171D01*
X5867428Y-21525244D01*
X5842272Y-21398200D01*
X5792920Y-21278461D01*
X5721249Y-21170589D01*
X5629991Y-21078691D01*
X5522622Y-21006270D01*
X5403230Y-20956082D01*
X5276365Y-20930040D01*
X5193036Y-20929458D01*
X4371286Y-20107708D01*
X4382628Y-20106804D01*
X4478675Y-20077060D01*
X4562633Y-20021736D01*
X4627854Y-19945212D01*
X4669173Y-19853547D01*
X4683320Y-19754000D01*
X4683320Y-19672300D01*
X4716400Y-19672300D01*
X4716400Y-19814041D01*
X4739827Y-19931814D01*
X4785780Y-20042754D01*
X4852493Y-20142598D01*
X4937403Y-20227507D01*
X5037246Y-20294221D01*
X5148187Y-20340173D01*
X5265960Y-20363600D01*
X5557700Y-20363600D01*
X5710100Y-20211200D01*
X5710100Y-19519900D01*
X6141900Y-19519900D01*
X6141900Y-20211200D01*
X6294300Y-20363600D01*
X6586040Y-20363600D01*
X6703813Y-20340173D01*
X6814754Y-20294221D01*
X6914597Y-20227507D01*
X6999507Y-20142598D01*
X7066220Y-20042754D01*
X7112173Y-19931814D01*
X7135600Y-19814041D01*
X7135600Y-19672300D01*
X6983200Y-19519900D01*
X6141900Y-19519900D01*
X5710100Y-19519900D01*
X4868800Y-19519900D01*
X4716400Y-19672300D01*
X4683320Y-19672300D01*
X4683320Y-18854000D01*
X4678804Y-18797372D01*
X4649060Y-18701325D01*
X4593736Y-18617367D01*
X4517212Y-18552146D01*
X4425547Y-18510827D01*
X4326000Y-18496680D01*
X3126000Y-18496680D01*
X3069372Y-18501196D01*
X2973325Y-18530940D01*
X2889367Y-18586264D01*
X2824146Y-18662788D01*
X2782827Y-18754453D01*
X2768680Y-18854000D01*
X1020915Y-18854000D01*
X763934Y-17957800D01*
X2770400Y-17957800D01*
X2770400Y-18138023D01*
X2784065Y-18206724D01*
X2810871Y-18271439D01*
X2849787Y-18329681D01*
X2899318Y-18379212D01*
X2957560Y-18418128D01*
X3022275Y-18444934D01*
X3090976Y-18458600D01*
X3421200Y-18458600D01*
X3510100Y-18369700D01*
X3510100Y-17868900D01*
X3941900Y-17868900D01*
X3941900Y-18369700D01*
X4030800Y-18458600D01*
X4361024Y-18458600D01*
X4429725Y-18444934D01*
X4494440Y-18418128D01*
X4552682Y-18379212D01*
X4602213Y-18329681D01*
X4641129Y-18271439D01*
X4667935Y-18206724D01*
X4681600Y-18138023D01*
X4681600Y-17957800D01*
X4592700Y-17868900D01*
X3941900Y-17868900D01*
X3510100Y-17868900D01*
X2859300Y-17868900D01*
X2770400Y-17957800D01*
X763934Y-17957800D01*
X669954Y-17630056D01*
X631153Y-17167977D01*
X2770400Y-17167977D01*
X2770400Y-17348200D01*
X2859300Y-17437100D01*
X3510100Y-17437100D01*
X3510100Y-17417100D01*
X3941900Y-17417100D01*
X3941900Y-17437100D01*
X4592700Y-17437100D01*
X4681600Y-17348200D01*
X4681600Y-17167977D01*
X4667935Y-17099276D01*
X4641129Y-17034561D01*
X4602213Y-16976319D01*
X4552682Y-16926788D01*
X4494440Y-16887872D01*
X4429725Y-16861066D01*
X4361024Y-16847400D01*
X4312252Y-16847400D01*
X4312669Y-16846463D01*
X4341362Y-16720171D01*
X4342979Y-16604405D01*
X4408675Y-16584060D01*
X4492633Y-16528736D01*
X4557854Y-16452212D01*
X4599173Y-16360547D01*
X4613320Y-16261000D01*
X4613320Y-15611000D01*
X4608804Y-15554372D01*
X4579060Y-15458325D01*
X4523736Y-15374367D01*
X4447212Y-15309146D01*
X4355547Y-15267827D01*
X4256000Y-15253680D01*
X3196000Y-15253680D01*
X3139372Y-15258196D01*
X3043325Y-15287940D01*
X2959367Y-15343264D01*
X2894146Y-15419788D01*
X2852827Y-15511453D01*
X2838680Y-15611000D01*
X2838680Y-16261000D01*
X2843196Y-16317628D01*
X2872940Y-16413675D01*
X2928264Y-16497633D01*
X3004788Y-16562854D01*
X3023426Y-16571255D01*
X3021732Y-16692528D01*
X3045112Y-16819912D01*
X3058549Y-16853850D01*
X3022275Y-16861066D01*
X2957560Y-16887872D01*
X2899318Y-16926788D01*
X2849787Y-16976319D01*
X2810871Y-17034561D01*
X2784065Y-17099276D01*
X2770400Y-17167977D01*
X631153Y-17167977D01*
X432020Y-14796579D01*
X748976Y-11970851D01*
X1001117Y-11176000D01*
X2692400Y-11176000D01*
X2692400Y-12700000D01*
X2695146Y-12744107D01*
X2819400Y-13738139D01*
X2819400Y-14351000D01*
X2843719Y-14480245D01*
X2920103Y-14598950D01*
X2969045Y-14632390D01*
X3004788Y-14662854D01*
X3030773Y-14674567D01*
X3036652Y-14678584D01*
X3042158Y-14679699D01*
X3096453Y-14704173D01*
X3196000Y-14718320D01*
X4256000Y-14718320D01*
X4312628Y-14713804D01*
X4408675Y-14684060D01*
X4492633Y-14628736D01*
X4557854Y-14552212D01*
X4599173Y-14460547D01*
X4613320Y-14361000D01*
X4613320Y-13711000D01*
X4608804Y-13654372D01*
X4602700Y-13634662D01*
X4483100Y-12677861D01*
X4483100Y-11176000D01*
X4458781Y-11046755D01*
X4382397Y-10928050D01*
X4265848Y-10848416D01*
X4127500Y-10820400D01*
X3048000Y-10820400D01*
X2918755Y-10844719D01*
X2800050Y-10921103D01*
X2720416Y-11037652D01*
X2692400Y-11176000D01*
X1001117Y-11176000D01*
X1276019Y-10309400D01*
X2920400Y-10309400D01*
X2920400Y-10443023D01*
X2934065Y-10511724D01*
X2960871Y-10576439D01*
X2999787Y-10634681D01*
X3049318Y-10684212D01*
X3107560Y-10723128D01*
X3172275Y-10749934D01*
X3240976Y-10763600D01*
X3571200Y-10763600D01*
X3660100Y-10674700D01*
X3660100Y-10220500D01*
X3009300Y-10220500D01*
X2920400Y-10309400D01*
X1276019Y-10309400D01*
X1493766Y-9622977D01*
X2920400Y-9622977D01*
X2920400Y-9756600D01*
X3009300Y-9845500D01*
X3660100Y-9845500D01*
X3660100Y-9391300D01*
X4091900Y-9391300D01*
X4091900Y-9845500D01*
X4111900Y-9845500D01*
X4111900Y-10220500D01*
X4091900Y-10220500D01*
X4091900Y-10674700D01*
X4180800Y-10763600D01*
X4511024Y-10763600D01*
X4579725Y-10749934D01*
X4644440Y-10723128D01*
X4702682Y-10684212D01*
X4752213Y-10634681D01*
X4791129Y-10576439D01*
X4798701Y-10558158D01*
X4800430Y-10571065D01*
X4978400Y-11223622D01*
X4978400Y-14351000D01*
X4990787Y-14416831D01*
X4978400Y-14478000D01*
X4978400Y-15367000D01*
X5002719Y-15496245D01*
X5045533Y-15562780D01*
X5038680Y-15611000D01*
X5038680Y-16261000D01*
X5043196Y-16317628D01*
X5072940Y-16413675D01*
X5128264Y-16497633D01*
X5204788Y-16562854D01*
X5296453Y-16604173D01*
X5396000Y-16618320D01*
X5468800Y-16618320D01*
X5468800Y-16845680D01*
X5326000Y-16845680D01*
X5269372Y-16850196D01*
X5173325Y-16879940D01*
X5089367Y-16935264D01*
X5024146Y-17011788D01*
X4982827Y-17103453D01*
X4968680Y-17203000D01*
X4968680Y-18103000D01*
X4973196Y-18159628D01*
X5002940Y-18255675D01*
X5040374Y-18312483D01*
X5037246Y-18313779D01*
X4937403Y-18380493D01*
X4852493Y-18465402D01*
X4785780Y-18565246D01*
X4739827Y-18676186D01*
X4716400Y-18793959D01*
X4716400Y-18935700D01*
X4868800Y-19088100D01*
X5710100Y-19088100D01*
X5710100Y-19068100D01*
X6141900Y-19068100D01*
X6141900Y-19088100D01*
X6983200Y-19088100D01*
X7135600Y-18935700D01*
X7135600Y-18793959D01*
X7112173Y-18676186D01*
X7066220Y-18565246D01*
X6999507Y-18465402D01*
X6914597Y-18380493D01*
X6814754Y-18313779D01*
X6812110Y-18312684D01*
X6827854Y-18294212D01*
X6869173Y-18202547D01*
X6883320Y-18103000D01*
X6883320Y-17203000D01*
X6878804Y-17146372D01*
X6849060Y-17050325D01*
X6793736Y-16966367D01*
X6717212Y-16901146D01*
X6625547Y-16859827D01*
X6526000Y-16845680D01*
X6383200Y-16845680D01*
X6383200Y-16618320D01*
X6456000Y-16618320D01*
X6512628Y-16613804D01*
X6608675Y-16584060D01*
X6692633Y-16528736D01*
X6757854Y-16452212D01*
X6784454Y-16393200D01*
X6812680Y-16393200D01*
X6812680Y-16559000D01*
X6817196Y-16615628D01*
X6846940Y-16711675D01*
X6902264Y-16795633D01*
X6978788Y-16860854D01*
X7070453Y-16902173D01*
X7170000Y-16916320D01*
X8070000Y-16916320D01*
X8126628Y-16911804D01*
X8222675Y-16882060D01*
X8306633Y-16826736D01*
X8314915Y-16817019D01*
X8380402Y-16882507D01*
X8480246Y-16949220D01*
X8591186Y-16995173D01*
X8708959Y-17018600D01*
X8804100Y-17018600D01*
X8956500Y-16866200D01*
X8956500Y-16024900D01*
X9331500Y-16024900D01*
X9331500Y-16866200D01*
X9483900Y-17018600D01*
X9579041Y-17018600D01*
X9696814Y-16995173D01*
X9807754Y-16949220D01*
X9907598Y-16882507D01*
X9992507Y-16797597D01*
X10059221Y-16697754D01*
X10105173Y-16586813D01*
X10128600Y-16469040D01*
X10128600Y-16177300D01*
X9976200Y-16024900D01*
X9331500Y-16024900D01*
X8956500Y-16024900D01*
X8908100Y-16024900D01*
X8908100Y-15593100D01*
X8956500Y-15593100D01*
X8956500Y-15573100D01*
X9331500Y-15573100D01*
X9331500Y-15593100D01*
X9976200Y-15593100D01*
X10128600Y-15440700D01*
X10128600Y-15148960D01*
X10105173Y-15031187D01*
X10059221Y-14920246D01*
X10007600Y-14842991D01*
X10007600Y-14582100D01*
X10490197Y-14582100D01*
X10490197Y-18129060D01*
X10496264Y-18190936D01*
X10501683Y-18252878D01*
X10502671Y-18256278D01*
X10503016Y-18259799D01*
X10520979Y-18319294D01*
X10538333Y-18379028D01*
X10539963Y-18382172D01*
X10540985Y-18385558D01*
X10570159Y-18440426D01*
X10598788Y-18495657D01*
X10600997Y-18498424D01*
X10602658Y-18501548D01*
X10641949Y-18549723D01*
X10680745Y-18598322D01*
X10685607Y-18603253D01*
X10685685Y-18603349D01*
X10685774Y-18603423D01*
X10687343Y-18605014D01*
X11481284Y-19398954D01*
X11529351Y-19438437D01*
X11576958Y-19478384D01*
X11580057Y-19480087D01*
X11582794Y-19482336D01*
X11637624Y-19511736D01*
X11692075Y-19541670D01*
X11695448Y-19542740D01*
X11698568Y-19544413D01*
X11758067Y-19562604D01*
X11817292Y-19581391D01*
X11820806Y-19581785D01*
X11824194Y-19582821D01*
X11886108Y-19589110D01*
X11947839Y-19596034D01*
X11954755Y-19596083D01*
X11954887Y-19596096D01*
X11955010Y-19596084D01*
X11957237Y-19596100D01*
X15342192Y-19596100D01*
X20603139Y-24857046D01*
X20654985Y-24987994D01*
X20735936Y-25113605D01*
X20839743Y-25221100D01*
X20962452Y-25306385D01*
X21099390Y-25366212D01*
X21245340Y-25398301D01*
X21394743Y-25401430D01*
X21541908Y-25375481D01*
X21681231Y-25321441D01*
X21807404Y-25241370D01*
X21915621Y-25138316D01*
X22001761Y-25016205D01*
X22062542Y-24879688D01*
X22095649Y-24733966D01*
X22098033Y-24563282D01*
X22069007Y-24416692D01*
X22012061Y-24278532D01*
X21929365Y-24154063D01*
X21824067Y-24048028D01*
X21700179Y-23964465D01*
X21562420Y-23906556D01*
X21554924Y-23905017D01*
X16096954Y-18447046D01*
X16048862Y-18407543D01*
X16001279Y-18367616D01*
X15998180Y-18365913D01*
X15995443Y-18363664D01*
X15940594Y-18334254D01*
X15886162Y-18304330D01*
X15882792Y-18303261D01*
X15879670Y-18301587D01*
X15820198Y-18283405D01*
X15760945Y-18264609D01*
X15757426Y-18264214D01*
X15754043Y-18263180D01*
X15692179Y-18256896D01*
X15630398Y-18249966D01*
X15623482Y-18249917D01*
X15623350Y-18249904D01*
X15623227Y-18249916D01*
X15621000Y-18249900D01*
X12236044Y-18249900D01*
X11836397Y-17850252D01*
X11836397Y-17457320D01*
X13300000Y-17457320D01*
X13356628Y-17452804D01*
X13452675Y-17423060D01*
X13536633Y-17367736D01*
X13601854Y-17291212D01*
X13643173Y-17199547D01*
X13657320Y-17100000D01*
X13657320Y-16968300D01*
X16090400Y-16968300D01*
X16090400Y-17160041D01*
X16113827Y-17277814D01*
X16159780Y-17388754D01*
X16226493Y-17488598D01*
X16311403Y-17573507D01*
X16411246Y-17640221D01*
X16522187Y-17686173D01*
X16639960Y-17709600D01*
X17131700Y-17709600D01*
X17284100Y-17557200D01*
X17284100Y-16815900D01*
X17715900Y-16815900D01*
X17715900Y-17557200D01*
X17868300Y-17709600D01*
X18360040Y-17709600D01*
X18477813Y-17686173D01*
X18588754Y-17640221D01*
X18688597Y-17573507D01*
X18773507Y-17488598D01*
X18840220Y-17388754D01*
X18886173Y-17277814D01*
X18909600Y-17160041D01*
X18909600Y-16968300D01*
X18757200Y-16815900D01*
X17715900Y-16815900D01*
X17284100Y-16815900D01*
X16242800Y-16815900D01*
X16090400Y-16968300D01*
X13657320Y-16968300D01*
X13657320Y-16100000D01*
X13652804Y-16043372D01*
X13623060Y-15947325D01*
X13567736Y-15863367D01*
X13491212Y-15798146D01*
X13399547Y-15756827D01*
X13300000Y-15742680D01*
X11836397Y-15742680D01*
X11836397Y-14257320D01*
X13300000Y-14257320D01*
X13356628Y-14252804D01*
X13452675Y-14223060D01*
X13536633Y-14167736D01*
X13601854Y-14091212D01*
X13643173Y-13999547D01*
X13657320Y-13900000D01*
X13657320Y-12900000D01*
X13652804Y-12843372D01*
X13623060Y-12747325D01*
X13567736Y-12663367D01*
X13491212Y-12598146D01*
X13399547Y-12556827D01*
X13300000Y-12542680D01*
X13185100Y-12542680D01*
X13185100Y-12025703D01*
X13264675Y-12001060D01*
X13285523Y-11987322D01*
X13338493Y-12066598D01*
X13423403Y-12151507D01*
X13523246Y-12218221D01*
X13634187Y-12264173D01*
X13751960Y-12287600D01*
X14043700Y-12287600D01*
X14196100Y-12135200D01*
X14196100Y-11490500D01*
X14176100Y-11490500D01*
X14176100Y-11115500D01*
X14196100Y-11115500D01*
X14196100Y-10470800D01*
X14043700Y-10318400D01*
X13751960Y-10318400D01*
X13634187Y-10341827D01*
X13523246Y-10387779D01*
X13423403Y-10454493D01*
X13338493Y-10539402D01*
X13285783Y-10618289D01*
X13211547Y-10584827D01*
X13112000Y-10570680D01*
X11912000Y-10570680D01*
X11855372Y-10575196D01*
X11759325Y-10604940D01*
X11675367Y-10660264D01*
X11610146Y-10736788D01*
X11568827Y-10828453D01*
X11554680Y-10928000D01*
X11554680Y-11678000D01*
X11559196Y-11734628D01*
X11588940Y-11830675D01*
X11644264Y-11914633D01*
X11720788Y-11979854D01*
X11812453Y-12021173D01*
X11838900Y-12024931D01*
X11838900Y-12542680D01*
X11700000Y-12542680D01*
X11643372Y-12547196D01*
X11547325Y-12576940D01*
X11463367Y-12632264D01*
X11398146Y-12708788D01*
X11356827Y-12800453D01*
X11355995Y-12806307D01*
X11354931Y-12806873D01*
X11299721Y-12835491D01*
X11296956Y-12837699D01*
X11293829Y-12839361D01*
X11245638Y-12878665D01*
X11197056Y-12917447D01*
X11192128Y-12922306D01*
X11192028Y-12922388D01*
X11191951Y-12922481D01*
X11190364Y-12924046D01*
X10878509Y-13235900D01*
X10007600Y-13235900D01*
X10007600Y-13081000D01*
X9983281Y-12951755D01*
X9906897Y-12833050D01*
X9790348Y-12753416D01*
X9652000Y-12725400D01*
X6959600Y-12725400D01*
X6959600Y-11268626D01*
X7151952Y-11268626D01*
X7190951Y-11481111D01*
X7270478Y-11681975D01*
X7387506Y-11863567D01*
X7537577Y-12018970D01*
X7714974Y-12142264D01*
X7912940Y-12228753D01*
X8123935Y-12275143D01*
X8339923Y-12279668D01*
X8552675Y-12242154D01*
X8754090Y-12164030D01*
X8936494Y-12048273D01*
X9092941Y-11899291D01*
X9217470Y-11722759D01*
X9305339Y-11525401D01*
X9353202Y-11314735D01*
X9356647Y-11067983D01*
X9314686Y-10856062D01*
X9232361Y-10656328D01*
X9112809Y-10476388D01*
X8960584Y-10323096D01*
X8781483Y-10202291D01*
X8582328Y-10118574D01*
X8370706Y-10075134D01*
X8154676Y-10073626D01*
X7942468Y-10114107D01*
X7742164Y-10195035D01*
X7561393Y-10313327D01*
X7407042Y-10464479D01*
X7284990Y-10642732D01*
X7199885Y-10841298D01*
X7154968Y-11052612D01*
X7151952Y-11268626D01*
X6959600Y-11268626D01*
X6959600Y-11176000D01*
X6947070Y-11082435D01*
X6769100Y-10429878D01*
X6769100Y-9652000D01*
X6744781Y-9522755D01*
X6668397Y-9404050D01*
X6551848Y-9324416D01*
X6449100Y-9303609D01*
X6449100Y-7934900D01*
X10003400Y-7934900D01*
X10003400Y-8005041D01*
X10026827Y-8122814D01*
X10072780Y-8233754D01*
X10139493Y-8333598D01*
X10224403Y-8418507D01*
X10324246Y-8485221D01*
X10435187Y-8531173D01*
X10552960Y-8554600D01*
X11094700Y-8554600D01*
X11247100Y-8402200D01*
X11247100Y-7782500D01*
X11678900Y-7782500D01*
X11678900Y-8402200D01*
X11831300Y-8554600D01*
X12373040Y-8554600D01*
X12490813Y-8531173D01*
X12601754Y-8485221D01*
X12701597Y-8418507D01*
X12786507Y-8333598D01*
X12853220Y-8233754D01*
X12899173Y-8122814D01*
X12922600Y-8005041D01*
X12922600Y-7934900D01*
X12770200Y-7782500D01*
X11678900Y-7782500D01*
X11247100Y-7782500D01*
X10155800Y-7782500D01*
X10003400Y-7934900D01*
X6449100Y-7934900D01*
X6449100Y-6373114D01*
X8085113Y-4737100D01*
X9479744Y-4737100D01*
X9605890Y-4792212D01*
X9751840Y-4824301D01*
X9901243Y-4827430D01*
X10048408Y-4801481D01*
X10187731Y-4747441D01*
X10263596Y-4699296D01*
X10255680Y-4755000D01*
X10255680Y-5405000D01*
X10260196Y-5461628D01*
X10289940Y-5557675D01*
X10345264Y-5641633D01*
X10421788Y-5706854D01*
X10440243Y-5715173D01*
X10376367Y-5757264D01*
X10311146Y-5833788D01*
X10269827Y-5925453D01*
X10255680Y-6025000D01*
X10255680Y-6675000D01*
X10260196Y-6731628D01*
X10277118Y-6786270D01*
X10224403Y-6821493D01*
X10139493Y-6906402D01*
X10072780Y-7006246D01*
X10026827Y-7117186D01*
X10003400Y-7234959D01*
X10003400Y-7305100D01*
X10155800Y-7457500D01*
X11247100Y-7457500D01*
X11247100Y-7384100D01*
X11678900Y-7384100D01*
X11678900Y-7457500D01*
X12770200Y-7457500D01*
X12858197Y-7369504D01*
X15417800Y-9929107D01*
X15417800Y-10471696D01*
X15400597Y-10454493D01*
X15300754Y-10387779D01*
X15189813Y-10341827D01*
X15072040Y-10318400D01*
X14780300Y-10318400D01*
X14627900Y-10470800D01*
X14627900Y-11115500D01*
X14647900Y-11115500D01*
X14647900Y-11490500D01*
X14627900Y-11490500D01*
X14627900Y-12135200D01*
X14780300Y-12287600D01*
X15072040Y-12287600D01*
X15189813Y-12264173D01*
X15300754Y-12218221D01*
X15400597Y-12151507D01*
X15417800Y-12134304D01*
X15417800Y-14891477D01*
X15421922Y-14933520D01*
X15425602Y-14975580D01*
X15426272Y-14977887D01*
X15426507Y-14980281D01*
X15438704Y-15020677D01*
X15450496Y-15061267D01*
X15451605Y-15063406D01*
X15452298Y-15065702D01*
X15472115Y-15102973D01*
X15491560Y-15140486D01*
X15493058Y-15142362D01*
X15494188Y-15144488D01*
X15520917Y-15177261D01*
X15547228Y-15210220D01*
X15550523Y-15213562D01*
X15550584Y-15213636D01*
X15550653Y-15213693D01*
X15551711Y-15214766D01*
X16156386Y-15819441D01*
X16113827Y-15922186D01*
X16090400Y-16039959D01*
X16090400Y-16231700D01*
X16242800Y-16384100D01*
X17284100Y-16384100D01*
X17284100Y-16364100D01*
X17715900Y-16364100D01*
X17715900Y-16384100D01*
X18757200Y-16384100D01*
X18834085Y-16307215D01*
X23743207Y-21216338D01*
X23743207Y-23063381D01*
X23739807Y-23064398D01*
X23531766Y-23174312D01*
X23349035Y-23322541D01*
X23198576Y-23503439D01*
X23086119Y-23710118D01*
X23015948Y-23934702D01*
X22990735Y-24168639D01*
X23011441Y-24403019D01*
X23077277Y-24628912D01*
X23185735Y-24837716D01*
X23332685Y-25021476D01*
X23344515Y-25033452D01*
X23352771Y-25041694D01*
X23534715Y-25190887D01*
X23742173Y-25301898D01*
X23967242Y-25370500D01*
X24201350Y-25394079D01*
X24435579Y-25371737D01*
X24661007Y-25304326D01*
X24869048Y-25194413D01*
X25051779Y-25046184D01*
X25202239Y-24865285D01*
X25314695Y-24658607D01*
X25384866Y-24434022D01*
X25410079Y-24200085D01*
X25389373Y-23965706D01*
X25323537Y-23739812D01*
X25215079Y-23531008D01*
X25068129Y-23347248D01*
X25056299Y-23335272D01*
X25048043Y-23327030D01*
X24866099Y-23177837D01*
X24658641Y-23066826D01*
X24657607Y-23066511D01*
X24657607Y-21026959D01*
X24653484Y-20984912D01*
X24649805Y-20942857D01*
X24649135Y-20940550D01*
X24648900Y-20938155D01*
X24636695Y-20897733D01*
X24624911Y-20857170D01*
X24623803Y-20855032D01*
X24623109Y-20852734D01*
X24603283Y-20815445D01*
X24583847Y-20777950D01*
X24582349Y-20776074D01*
X24581219Y-20773948D01*
X24554490Y-20741175D01*
X24528179Y-20708216D01*
X24524880Y-20704870D01*
X24524823Y-20704800D01*
X24524758Y-20704747D01*
X24523697Y-20703670D01*
X19231794Y-15411768D01*
X19199166Y-15384966D01*
X19166808Y-15357815D01*
X19164702Y-15356657D01*
X19162844Y-15355131D01*
X19125649Y-15335187D01*
X19088615Y-15314828D01*
X19086320Y-15314100D01*
X19084205Y-15312966D01*
X19043808Y-15300615D01*
X19003562Y-15287848D01*
X19001179Y-15287581D01*
X18998874Y-15286876D01*
X18956748Y-15282597D01*
X18914889Y-15277902D01*
X18910199Y-15277869D01*
X18910101Y-15277859D01*
X18910010Y-15277868D01*
X18908505Y-15277857D01*
X16907958Y-15277857D01*
X16332200Y-14702099D01*
X16332200Y-9739729D01*
X16328077Y-9697682D01*
X16324398Y-9655627D01*
X16323728Y-9653320D01*
X16323493Y-9650925D01*
X16311293Y-9610516D01*
X16299504Y-9569939D01*
X16298395Y-9567800D01*
X16297702Y-9565504D01*
X16277885Y-9528233D01*
X16258440Y-9490720D01*
X16256942Y-9488844D01*
X16255812Y-9486718D01*
X16229083Y-9453945D01*
X16202772Y-9420986D01*
X16199477Y-9417644D01*
X16199416Y-9417570D01*
X16199347Y-9417513D01*
X16198289Y-9416440D01*
X12808560Y-6026711D01*
X12775932Y-5999909D01*
X12743574Y-5972758D01*
X12741468Y-5971600D01*
X12739610Y-5970074D01*
X12702415Y-5950130D01*
X12665381Y-5929771D01*
X12663086Y-5929043D01*
X12660971Y-5927909D01*
X12652468Y-5925309D01*
X12636060Y-5872325D01*
X12597039Y-5813108D01*
X17042800Y-10258869D01*
X17042800Y-12542680D01*
X16700000Y-12542680D01*
X16643372Y-12547196D01*
X16547325Y-12576940D01*
X16463367Y-12632264D01*
X16398146Y-12708788D01*
X16356827Y-12800453D01*
X16342680Y-12900000D01*
X16342680Y-13900000D01*
X16347196Y-13956628D01*
X16376940Y-14052675D01*
X16432264Y-14136633D01*
X16508788Y-14201854D01*
X16600453Y-14243173D01*
X16700000Y-14257320D01*
X18300000Y-14257320D01*
X18356628Y-14252804D01*
X18452675Y-14223060D01*
X18536633Y-14167736D01*
X18601854Y-14091212D01*
X18633382Y-14021267D01*
X25452639Y-20840524D01*
X25314493Y-20918669D01*
X25136098Y-21072088D01*
X24990901Y-21257237D01*
X24884430Y-21467062D01*
X24820744Y-21693571D01*
X24802266Y-21928136D01*
X24829700Y-22161823D01*
X24902001Y-22385731D01*
X25016417Y-22591332D01*
X25168588Y-22770793D01*
X25352718Y-22917278D01*
X25366914Y-22926324D01*
X25376796Y-22932524D01*
X25587359Y-23037527D01*
X25814307Y-23099631D01*
X26048996Y-23116471D01*
X26282486Y-23087406D01*
X26505883Y-23013543D01*
X26710679Y-22897695D01*
X26889074Y-22744276D01*
X27034271Y-22559127D01*
X27140742Y-22349302D01*
X27204429Y-22122793D01*
X27222906Y-21888228D01*
X27195472Y-21654541D01*
X27123171Y-21430633D01*
X27008755Y-21225032D01*
X26856584Y-21045572D01*
X26672454Y-20899086D01*
X26658258Y-20890040D01*
X26648376Y-20883840D01*
X26469786Y-20794781D01*
X26469786Y-20753893D01*
X26465664Y-20711850D01*
X26461984Y-20669790D01*
X26461314Y-20667483D01*
X26461079Y-20665089D01*
X26448882Y-20624693D01*
X26437090Y-20584103D01*
X26435981Y-20581964D01*
X26435288Y-20579668D01*
X26433403Y-20576122D01*
X27051305Y-20576122D01*
X27228741Y-20744911D01*
X27514217Y-20725543D01*
X27790430Y-20650853D01*
X28046765Y-20523713D01*
X28273371Y-20349007D01*
X28442571Y-20159421D01*
X28419141Y-19914860D01*
X27405806Y-19560988D01*
X27051305Y-20576122D01*
X26433403Y-20576122D01*
X26415471Y-20542397D01*
X26396026Y-20504884D01*
X26394528Y-20503008D01*
X26393398Y-20500882D01*
X26366644Y-20468078D01*
X26340357Y-20435150D01*
X26337064Y-20431810D01*
X26337002Y-20431734D01*
X26336932Y-20431676D01*
X26335875Y-20430604D01*
X25146835Y-19241564D01*
X25814233Y-19241564D01*
X25828631Y-19495266D01*
X25897218Y-19773058D01*
X26018681Y-20032131D01*
X26188352Y-20262530D01*
X26399711Y-20455401D01*
X26643647Y-20433761D01*
X26998148Y-19418628D01*
X26238453Y-19153330D01*
X27548166Y-19153330D01*
X28561501Y-19507203D01*
X28732081Y-19330394D01*
X28717683Y-19076692D01*
X28649096Y-18798900D01*
X28527633Y-18539827D01*
X28357962Y-18309428D01*
X28146603Y-18116557D01*
X27902667Y-18138197D01*
X27548166Y-19153330D01*
X26238453Y-19153330D01*
X25984813Y-19064755D01*
X25814233Y-19241564D01*
X25146835Y-19241564D01*
X24317808Y-18412537D01*
X26103743Y-18412537D01*
X26127173Y-18657098D01*
X27140508Y-19010970D01*
X27495009Y-17995836D01*
X27317573Y-17827047D01*
X27032097Y-17846415D01*
X26755884Y-17921105D01*
X26499549Y-18048245D01*
X26272943Y-18222951D01*
X26103743Y-18412537D01*
X24317808Y-18412537D01*
X18981982Y-13076711D01*
X18949354Y-13049909D01*
X18916996Y-13022758D01*
X18914890Y-13021600D01*
X18913032Y-13020074D01*
X18875837Y-13000130D01*
X18838803Y-12979771D01*
X18836508Y-12979043D01*
X18834393Y-12977909D01*
X18793996Y-12965558D01*
X18753750Y-12952791D01*
X18751367Y-12952524D01*
X18749062Y-12951819D01*
X18706936Y-12947540D01*
X18665077Y-12942845D01*
X18660387Y-12942812D01*
X18660289Y-12942802D01*
X18660198Y-12942811D01*
X18658693Y-12942800D01*
X18657320Y-12942800D01*
X18657320Y-12900000D01*
X18652804Y-12843372D01*
X18623060Y-12747325D01*
X18567736Y-12663367D01*
X18491212Y-12598146D01*
X18399547Y-12556827D01*
X18300000Y-12542680D01*
X17957200Y-12542680D01*
X17957200Y-11268626D01*
X18073952Y-11268626D01*
X18112951Y-11481111D01*
X18192478Y-11681975D01*
X18309506Y-11863567D01*
X18459577Y-12018970D01*
X18636974Y-12142264D01*
X18834940Y-12228753D01*
X19045935Y-12275143D01*
X19261923Y-12279668D01*
X19474675Y-12242154D01*
X19676090Y-12164030D01*
X19858494Y-12048273D01*
X20014941Y-11899291D01*
X20139470Y-11722759D01*
X20227339Y-11525401D01*
X20275202Y-11314735D01*
X20278647Y-11067983D01*
X20236686Y-10856062D01*
X20154361Y-10656328D01*
X20034809Y-10476388D01*
X19882584Y-10323096D01*
X19703483Y-10202291D01*
X19504328Y-10118574D01*
X19292706Y-10075134D01*
X19076676Y-10073626D01*
X18864468Y-10114107D01*
X18664164Y-10195035D01*
X18483393Y-10313327D01*
X18329042Y-10464479D01*
X18206990Y-10642732D01*
X18121885Y-10841298D01*
X18076968Y-11052612D01*
X18073952Y-11268626D01*
X17957200Y-11268626D01*
X17957200Y-10069491D01*
X17953077Y-10027444D01*
X17949398Y-9985389D01*
X17948728Y-9983082D01*
X17948493Y-9980687D01*
X17936293Y-9940278D01*
X17924504Y-9899701D01*
X17923395Y-9897562D01*
X17922702Y-9895266D01*
X17902885Y-9857995D01*
X17883440Y-9820482D01*
X17881942Y-9818606D01*
X17880812Y-9816480D01*
X17854083Y-9783707D01*
X17827772Y-9750748D01*
X17824477Y-9747406D01*
X17824416Y-9747332D01*
X17824347Y-9747275D01*
X17823289Y-9746202D01*
X12833798Y-4756711D01*
X12801170Y-4729909D01*
X12768812Y-4702758D01*
X12766706Y-4701600D01*
X12764848Y-4700074D01*
X12727653Y-4680130D01*
X12690619Y-4659771D01*
X12688324Y-4659043D01*
X12686209Y-4657909D01*
X12649829Y-4646786D01*
X12636060Y-4602325D01*
X12580736Y-4518367D01*
X12504212Y-4453146D01*
X12485757Y-4444827D01*
X12546284Y-4404943D01*
X18040557Y-9899216D01*
X18073185Y-9926018D01*
X18105543Y-9953169D01*
X18107649Y-9954327D01*
X18109507Y-9955853D01*
X18146702Y-9975797D01*
X18183736Y-9996156D01*
X18186031Y-9996884D01*
X18188146Y-9998018D01*
X18228502Y-10010356D01*
X18268789Y-10023136D01*
X18271177Y-10023404D01*
X18273477Y-10024107D01*
X18315509Y-10028376D01*
X18357462Y-10033082D01*
X18362163Y-10033115D01*
X18362250Y-10033124D01*
X18362331Y-10033116D01*
X18363846Y-10033127D01*
X20782558Y-10033127D01*
X26784453Y-16035022D01*
X26766577Y-16075941D01*
X26716061Y-16305746D01*
X26711142Y-16540987D01*
X26752010Y-16772703D01*
X26837107Y-16992067D01*
X26963191Y-17190726D01*
X27125459Y-17361111D01*
X27317732Y-17496734D01*
X27532686Y-17592427D01*
X27762133Y-17644545D01*
X27778848Y-17646538D01*
X27790442Y-17647838D01*
X28025711Y-17651114D01*
X28257135Y-17608630D01*
X28475901Y-17522004D01*
X28673674Y-17394536D01*
X28842923Y-17231082D01*
X28977199Y-17037867D01*
X29071389Y-16822251D01*
X29121906Y-16592446D01*
X29126824Y-16357205D01*
X29085956Y-16125489D01*
X29000860Y-15906125D01*
X28874776Y-15707466D01*
X28712507Y-15537081D01*
X28520234Y-15401458D01*
X28305280Y-15305765D01*
X28075834Y-15253647D01*
X28059119Y-15251654D01*
X28047524Y-15250354D01*
X27812255Y-15247078D01*
X27580831Y-15289562D01*
X27402689Y-15360102D01*
X21295225Y-9252638D01*
X21262597Y-9225836D01*
X21230239Y-9198685D01*
X21228133Y-9197527D01*
X21226275Y-9196001D01*
X21189080Y-9176057D01*
X21152046Y-9155698D01*
X21149751Y-9154970D01*
X21147636Y-9153836D01*
X21107239Y-9141485D01*
X21066993Y-9128718D01*
X21064610Y-9128451D01*
X21062305Y-9127746D01*
X21020179Y-9123467D01*
X20978320Y-9118772D01*
X20973630Y-9118739D01*
X20973532Y-9118729D01*
X20973441Y-9118738D01*
X20971936Y-9118727D01*
X18553224Y-9118727D01*
X12921208Y-3486711D01*
X12888580Y-3459909D01*
X12856222Y-3432758D01*
X12854116Y-3431600D01*
X12852258Y-3430074D01*
X12815063Y-3410130D01*
X12778029Y-3389771D01*
X12775734Y-3389043D01*
X12773619Y-3387909D01*
X12733222Y-3375558D01*
X12692976Y-3362791D01*
X12690593Y-3362524D01*
X12688288Y-3361819D01*
X12646162Y-3357540D01*
X12643786Y-3357274D01*
X12636060Y-3332325D01*
X12580736Y-3248367D01*
X12504212Y-3183146D01*
X12412547Y-3141827D01*
X12313000Y-3127680D01*
X11920200Y-3127680D01*
X11920200Y-2696378D01*
X12190878Y-2425700D01*
X13056254Y-2425700D01*
X13060196Y-2475128D01*
X13089940Y-2571175D01*
X13145264Y-2655133D01*
X13221788Y-2720354D01*
X13313453Y-2761673D01*
X13413000Y-2775820D01*
X14613000Y-2775820D01*
X14655800Y-2772407D01*
X14655800Y-3906803D01*
X14659922Y-3948846D01*
X14663602Y-3990906D01*
X14664272Y-3993213D01*
X14664507Y-3995607D01*
X14676704Y-4036003D01*
X14688496Y-4076593D01*
X14689605Y-4078732D01*
X14690298Y-4081028D01*
X14710115Y-4118299D01*
X14729560Y-4155812D01*
X14731058Y-4157688D01*
X14732188Y-4159814D01*
X14758917Y-4192587D01*
X14785228Y-4225546D01*
X14788523Y-4228888D01*
X14788584Y-4228962D01*
X14788653Y-4229019D01*
X14789711Y-4230092D01*
X17232908Y-6673289D01*
X17265536Y-6700091D01*
X17297894Y-6727242D01*
X17300000Y-6728400D01*
X17301858Y-6729926D01*
X17339053Y-6749870D01*
X17376087Y-6770229D01*
X17378382Y-6770957D01*
X17380497Y-6772091D01*
X17420853Y-6784429D01*
X17461140Y-6797209D01*
X17463528Y-6797477D01*
X17465828Y-6798180D01*
X17507860Y-6802449D01*
X17549813Y-6807155D01*
X17554514Y-6807188D01*
X17554601Y-6807197D01*
X17554682Y-6807189D01*
X17556197Y-6807200D01*
X17583599Y-6807200D01*
X17589940Y-6827675D01*
X17645264Y-6911633D01*
X17721788Y-6976854D01*
X17740243Y-6985173D01*
X17676367Y-7027264D01*
X17611146Y-7103788D01*
X17569827Y-7195453D01*
X17555680Y-7295000D01*
X17555680Y-7945000D01*
X17560196Y-8001628D01*
X17589940Y-8097675D01*
X17645264Y-8181633D01*
X17721788Y-8246854D01*
X17813453Y-8288173D01*
X17913000Y-8302320D01*
X19613000Y-8302320D01*
X19669628Y-8297804D01*
X19765675Y-8268060D01*
X19849633Y-8212736D01*
X19914854Y-8136212D01*
X19941454Y-8077200D01*
X20185411Y-8077200D01*
X25971130Y-13862920D01*
X26003784Y-13889742D01*
X26036117Y-13916873D01*
X26038223Y-13918031D01*
X26040081Y-13919557D01*
X26077276Y-13939501D01*
X26114310Y-13959860D01*
X26116605Y-13960588D01*
X26118720Y-13961722D01*
X26159076Y-13974060D01*
X26199363Y-13986840D01*
X26201751Y-13987108D01*
X26204051Y-13987811D01*
X26246083Y-13992080D01*
X26288036Y-13996786D01*
X26292737Y-13996819D01*
X26292824Y-13996828D01*
X26292905Y-13996820D01*
X26294420Y-13996831D01*
X26802278Y-13996831D01*
X26851890Y-14114579D01*
X26983626Y-14309535D01*
X27150720Y-14475191D01*
X27346808Y-14605237D01*
X27564420Y-14694720D01*
X27795269Y-14740230D01*
X28030560Y-14740034D01*
X28047300Y-14738261D01*
X28058892Y-14736951D01*
X28289002Y-14687840D01*
X28505189Y-14594969D01*
X28699222Y-14461875D01*
X28863707Y-14293629D01*
X28992381Y-14096638D01*
X29080341Y-13878406D01*
X29124239Y-13647246D01*
X29122401Y-13411961D01*
X29074898Y-13181514D01*
X28983538Y-12964683D01*
X28851802Y-12769727D01*
X28684708Y-12604071D01*
X28488621Y-12474025D01*
X28271008Y-12384542D01*
X28040159Y-12339032D01*
X27804868Y-12339228D01*
X27788128Y-12341001D01*
X27776536Y-12342311D01*
X27546427Y-12391422D01*
X27330239Y-12484293D01*
X27136206Y-12617387D01*
X26971721Y-12785633D01*
X26843047Y-12982624D01*
X26802819Y-13082431D01*
X26483799Y-13082431D01*
X20698078Y-7296711D01*
X20665450Y-7269909D01*
X20633092Y-7242758D01*
X20630986Y-7241600D01*
X20629128Y-7240074D01*
X20591933Y-7220130D01*
X20554899Y-7199771D01*
X20552604Y-7199043D01*
X20550489Y-7197909D01*
X20510092Y-7185558D01*
X20469846Y-7172791D01*
X20467463Y-7172524D01*
X20465158Y-7171819D01*
X20423032Y-7167540D01*
X20381173Y-7162845D01*
X20376483Y-7162812D01*
X20376385Y-7162802D01*
X20376294Y-7162811D01*
X20374789Y-7162800D01*
X19942401Y-7162800D01*
X19936060Y-7142325D01*
X19880736Y-7058367D01*
X19804212Y-6993146D01*
X19785757Y-6984827D01*
X19849633Y-6942736D01*
X19914854Y-6866212D01*
X19956173Y-6774547D01*
X19970320Y-6675000D01*
X19970320Y-6025000D01*
X19965804Y-5968372D01*
X19936060Y-5872325D01*
X19880736Y-5788367D01*
X19804212Y-5723146D01*
X19785757Y-5714827D01*
X19849633Y-5672736D01*
X19864365Y-5655450D01*
X25235517Y-11026603D01*
X25268180Y-11053433D01*
X25300503Y-11080555D01*
X25302608Y-11081712D01*
X25304468Y-11083240D01*
X25341662Y-11103182D01*
X25378696Y-11123542D01*
X25380993Y-11124271D01*
X25383107Y-11125404D01*
X25423489Y-11137751D01*
X25463749Y-11150522D01*
X25466132Y-11150789D01*
X25468437Y-11151494D01*
X25510563Y-11155773D01*
X25552422Y-11160468D01*
X25557112Y-11160501D01*
X25557210Y-11160511D01*
X25557301Y-11160502D01*
X25558806Y-11160513D01*
X26152816Y-11160513D01*
X26220897Y-11309892D01*
X26358206Y-11500965D01*
X26530012Y-11661729D01*
X26729771Y-11786060D01*
X26949876Y-11869224D01*
X27181943Y-11908052D01*
X27417131Y-11901065D01*
X27646482Y-11848529D01*
X27662408Y-11843076D01*
X27673418Y-11839220D01*
X27886835Y-11740148D01*
X28076944Y-11601509D01*
X28236505Y-11428585D01*
X28359439Y-11227962D01*
X28441064Y-11007282D01*
X28478271Y-10774951D01*
X28469642Y-10539817D01*
X28415507Y-10310838D01*
X28317927Y-10096734D01*
X28180619Y-9905661D01*
X28008813Y-9744897D01*
X27809053Y-9620566D01*
X27588948Y-9537402D01*
X27356882Y-9498574D01*
X27121694Y-9505561D01*
X26892342Y-9558097D01*
X26876417Y-9563550D01*
X26865406Y-9567406D01*
X26651989Y-9666478D01*
X26461880Y-9805116D01*
X26302319Y-9978041D01*
X26179385Y-10178664D01*
X26154437Y-10246113D01*
X25748185Y-10246113D01*
X24257383Y-8755311D01*
X25003594Y-8755311D01*
X25119147Y-8906732D01*
X25295501Y-9062494D01*
X25498751Y-9181034D01*
X25721154Y-9257839D01*
X25954240Y-9289984D01*
X26189131Y-9276243D01*
X26416878Y-9217139D01*
X26628808Y-9114925D01*
X26643123Y-9106068D01*
X26653001Y-9099860D01*
X26839049Y-8955817D01*
X26993575Y-8778380D01*
X27110695Y-8574308D01*
X27185945Y-8351373D01*
X27216462Y-8118069D01*
X27201081Y-7883281D01*
X27140389Y-7655951D01*
X27036698Y-7444739D01*
X26893957Y-7257690D01*
X26717603Y-7101928D01*
X26514354Y-6983388D01*
X26291950Y-6906583D01*
X26058864Y-6874438D01*
X25823974Y-6888179D01*
X25596226Y-6947282D01*
X25384296Y-7049497D01*
X25369981Y-7058354D01*
X25360103Y-7064562D01*
X25174055Y-7208605D01*
X25019529Y-7386042D01*
X25006289Y-7409111D01*
X24127960Y-7409111D01*
X24057173Y-7338323D01*
X24071907Y-7346090D01*
X24170395Y-7366337D01*
X24270624Y-7358344D01*
X24364658Y-7322745D01*
X24445051Y-7262357D01*
X25647133Y-6060275D01*
X25683982Y-6017040D01*
X25730866Y-5928093D01*
X25751113Y-5829605D01*
X25743120Y-5729376D01*
X25707521Y-5635342D01*
X25647133Y-5554949D01*
X24445051Y-4352867D01*
X24401816Y-4316018D01*
X24312869Y-4269134D01*
X24214381Y-4248887D01*
X24114152Y-4256880D01*
X24020118Y-4292479D01*
X23939725Y-4352867D01*
X22942180Y-5350412D01*
X22723680Y-5350412D01*
X20107264Y-2733996D01*
X20074636Y-2707194D01*
X20042278Y-2680043D01*
X20040172Y-2678885D01*
X20038314Y-2677359D01*
X20001119Y-2657415D01*
X19964085Y-2637056D01*
X19961790Y-2636328D01*
X19959675Y-2635194D01*
X19919278Y-2622843D01*
X19879032Y-2610076D01*
X19876649Y-2609809D01*
X19874344Y-2609104D01*
X19832218Y-2604825D01*
X19790359Y-2600130D01*
X19785669Y-2600097D01*
X19785571Y-2600087D01*
X19785480Y-2600096D01*
X19783975Y-2600085D01*
X17704770Y-2600085D01*
X17644203Y-2539518D01*
X17644203Y-1344179D01*
X17640081Y-1302136D01*
X17636401Y-1260076D01*
X17635731Y-1257769D01*
X17635496Y-1255375D01*
X17623299Y-1214979D01*
X17611507Y-1174389D01*
X17610398Y-1172250D01*
X17609705Y-1169954D01*
X17589888Y-1132683D01*
X17570443Y-1095170D01*
X17568945Y-1093294D01*
X17567815Y-1091168D01*
X17541061Y-1058364D01*
X17514774Y-1025436D01*
X17511481Y-1022096D01*
X17511419Y-1022020D01*
X17511349Y-1021962D01*
X17510292Y-1020890D01*
X17324882Y-835480D01*
X17292254Y-808678D01*
X17259896Y-781527D01*
X17257790Y-780369D01*
X17255932Y-778843D01*
X17218737Y-758899D01*
X17181703Y-738540D01*
X17179408Y-737812D01*
X17177293Y-736678D01*
X17136896Y-724327D01*
X17096650Y-711560D01*
X17094267Y-711293D01*
X17091962Y-710588D01*
X17049836Y-706309D01*
X17007977Y-701614D01*
X17003287Y-701581D01*
X17003189Y-701571D01*
X17003098Y-701580D01*
X17001593Y-701569D01*
X15351231Y-701569D01*
X15309234Y-705687D01*
X15267129Y-709370D01*
X15264817Y-710042D01*
X15262427Y-710276D01*
X15222047Y-722468D01*
X15181442Y-734265D01*
X15179304Y-735373D01*
X15177006Y-736067D01*
X15139717Y-755893D01*
X15102222Y-775329D01*
X15100346Y-776827D01*
X15098220Y-777957D01*
X15065447Y-804686D01*
X15032488Y-830997D01*
X15029142Y-834296D01*
X15029072Y-834353D01*
X15029019Y-834418D01*
X15027942Y-835479D01*
X14789711Y-1073711D01*
X14762909Y-1106339D01*
X14735758Y-1138697D01*
X14734600Y-1140803D01*
X14733074Y-1142661D01*
X14714973Y-1176420D01*
X14712547Y-1175327D01*
X14613000Y-1161180D01*
X13413000Y-1161180D01*
X13356372Y-1165696D01*
X13260325Y-1195440D01*
X13176367Y-1250764D01*
X13111146Y-1327288D01*
X13069827Y-1418953D01*
X13056703Y-1511300D01*
X12001500Y-1511300D01*
X11959457Y-1515422D01*
X11917397Y-1519102D01*
X11915090Y-1519772D01*
X11912696Y-1520007D01*
X11872300Y-1532204D01*
X11831710Y-1543996D01*
X11829571Y-1545105D01*
X11827275Y-1545798D01*
X11790004Y-1565615D01*
X11752491Y-1585060D01*
X11750615Y-1586558D01*
X11748489Y-1587688D01*
X11715716Y-1614417D01*
X11682757Y-1640728D01*
X11679415Y-1644023D01*
X11679341Y-1644084D01*
X11679284Y-1644153D01*
X11678211Y-1645211D01*
X11139711Y-2183711D01*
X11112909Y-2216339D01*
X11085758Y-2248697D01*
X11084600Y-2250803D01*
X11083074Y-2252661D01*
X11063130Y-2289856D01*
X11042771Y-2326890D01*
X11042043Y-2329185D01*
X11040909Y-2331300D01*
X11028558Y-2371697D01*
X11015791Y-2411943D01*
X11015524Y-2414326D01*
X11014819Y-2416631D01*
X11010540Y-2458757D01*
X11005845Y-2500616D01*
X11005812Y-2505306D01*
X11005802Y-2505404D01*
X11005811Y-2505495D01*
X11005800Y-2507000D01*
X11005800Y-3127680D01*
X10613000Y-3127680D01*
X10556372Y-3132196D01*
X10460325Y-3161940D01*
X10376367Y-3217264D01*
X10311146Y-3293788D01*
X10269827Y-3385453D01*
X10263653Y-3428894D01*
X10206679Y-3390465D01*
X10068920Y-3332556D01*
X9922536Y-3302508D01*
X9773104Y-3301464D01*
X9626315Y-3329466D01*
X9487760Y-3385445D01*
X9479424Y-3390900D01*
X7806306Y-3390900D01*
X7744381Y-3396972D01*
X7682488Y-3402387D01*
X7679093Y-3403373D01*
X7675567Y-3403719D01*
X7615985Y-3421708D01*
X7556338Y-3439037D01*
X7553198Y-3440664D01*
X7549808Y-3441688D01*
X7494905Y-3470881D01*
X7439709Y-3499491D01*
X7436942Y-3501700D01*
X7433818Y-3503361D01*
X7385643Y-3542652D01*
X7337044Y-3581448D01*
X7332118Y-3586306D01*
X7332017Y-3586388D01*
X7331940Y-3586481D01*
X7330352Y-3588047D01*
X5300046Y-5618352D01*
X5260543Y-5666444D01*
X5220616Y-5714027D01*
X5218913Y-5717126D01*
X5216664Y-5719863D01*
X5187254Y-5774712D01*
X5157330Y-5829144D01*
X5156261Y-5832514D01*
X5154587Y-5835636D01*
X5136405Y-5895108D01*
X5117609Y-5954361D01*
X5117214Y-5957880D01*
X5116180Y-5961263D01*
X5109896Y-6023127D01*
X5102966Y-6084908D01*
X5102917Y-6091824D01*
X5102904Y-6091956D01*
X5102916Y-6092079D01*
X5102900Y-6094306D01*
X5102900Y-9304039D01*
X5014255Y-9320719D01*
X4895550Y-9397103D01*
X4815916Y-9513652D01*
X4811054Y-9537663D01*
X4791129Y-9489561D01*
X4752213Y-9431319D01*
X4702682Y-9381788D01*
X4644440Y-9342872D01*
X4579725Y-9316066D01*
X4511024Y-9302400D01*
X4180800Y-9302400D01*
X4091900Y-9391300D01*
X3660100Y-9391300D01*
X3571200Y-9302400D01*
X3240976Y-9302400D01*
X3172275Y-9316066D01*
X3107560Y-9342872D01*
X3049318Y-9381788D01*
X2999787Y-9431319D01*
X2960871Y-9489561D01*
X2934065Y-9554276D01*
X2920400Y-9622977D01*
X1493766Y-9622977D01*
X1608750Y-9260503D01*
X2978591Y-6768770D01*
X4806325Y-4590562D01*
X7022332Y-2808846D01*
X9542207Y-1491488D01*
X12269967Y-688664D01*
X15101713Y-430955D01*
X17929585Y-728176D01*
X17929585Y-728176D01*
G37*
X17929585Y-728176D02*
X20645870Y-1569007D01*
X23147105Y-2921420D01*
X25338020Y-4733902D01*
X27135163Y-6937417D01*
X28470081Y-9448033D01*
X29291928Y-12170122D01*
X29569400Y-15000000D01*
X29563720Y-15406802D01*
X29207341Y-18227829D01*
X28309809Y-20925909D01*
X26905311Y-23398273D01*
X25047343Y-25550750D01*
X22806675Y-27301351D01*
X20268653Y-28583398D01*
X19493320Y-28799875D01*
X19493320Y-28081000D01*
X19488804Y-28024372D01*
X19459060Y-27928325D01*
X19403736Y-27844367D01*
X19327212Y-27779146D01*
X19235547Y-27737827D01*
X19136000Y-27723680D01*
X18136000Y-27723680D01*
X18079372Y-27728196D01*
X17983325Y-27757940D01*
X17899367Y-27813264D01*
X17834146Y-27889788D01*
X17792827Y-27981453D01*
X17778680Y-28081000D01*
X17778680Y-28881000D01*
X17783196Y-28937628D01*
X17812940Y-29033675D01*
X17868264Y-29117633D01*
X17944788Y-29182854D01*
X18012434Y-29213346D01*
X17529950Y-29348058D01*
X14694882Y-29566205D01*
X11896703Y-29232542D01*
X11988675Y-29204060D01*
X12072633Y-29148736D01*
X12137854Y-29072212D01*
X12179173Y-28980547D01*
X12193320Y-28881000D01*
X12193320Y-28081000D01*
X12188804Y-28024372D01*
X12159060Y-27928325D01*
X12103736Y-27844367D01*
X12027212Y-27779146D01*
X11935547Y-27737827D01*
X11836000Y-27723680D01*
X10836000Y-27723680D01*
X10779372Y-27728196D01*
X10683325Y-27757940D01*
X10599367Y-27813264D01*
X10534146Y-27889788D01*
X10492827Y-27981453D01*
X10478680Y-28081000D01*
X10478680Y-28776995D01*
X9167155Y-28350855D01*
X6685046Y-26963651D01*
X4519651Y-25120756D01*
X2753449Y-22892364D01*
X1453714Y-20363354D01*
X1020915Y-18854000D01*
X2768680Y-18854000D01*
X2768680Y-19754000D01*
X2773196Y-19810628D01*
X2802940Y-19906675D01*
X2858264Y-19990633D01*
X2934788Y-20055854D01*
X3026453Y-20097173D01*
X3126000Y-20111320D01*
X3269027Y-20111320D01*
X3272922Y-20151043D01*
X3276602Y-20193103D01*
X3277272Y-20195410D01*
X3277507Y-20197804D01*
X3289704Y-20238200D01*
X3301496Y-20278790D01*
X3302605Y-20280929D01*
X3303298Y-20283225D01*
X3323115Y-20320496D01*
X3342560Y-20358009D01*
X3344058Y-20359885D01*
X3345188Y-20362011D01*
X3371917Y-20394784D01*
X3398228Y-20427743D01*
X3401523Y-20431085D01*
X3401584Y-20431159D01*
X3401653Y-20431216D01*
X3402711Y-20432289D01*
X4546699Y-21576277D01*
X4545732Y-21645528D01*
X4569112Y-21772912D01*
X4616788Y-21893328D01*
X4686945Y-22002191D01*
X4749800Y-22067279D01*
X4749800Y-23876000D01*
X4753922Y-23918043D01*
X4757602Y-23960103D01*
X4758272Y-23962410D01*
X4758507Y-23964804D01*
X4770704Y-24005200D01*
X4782496Y-24045790D01*
X4783605Y-24047929D01*
X4784298Y-24050225D01*
X4804115Y-24087496D01*
X4823560Y-24125009D01*
X4825058Y-24126885D01*
X4826188Y-24129011D01*
X4852917Y-24161784D01*
X4879228Y-24194743D01*
X4882523Y-24198085D01*
X4882584Y-24198159D01*
X4882653Y-24198216D01*
X4883711Y-24199289D01*
X5499845Y-24815424D01*
X5532499Y-24842246D01*
X5564832Y-24869377D01*
X5566938Y-24870535D01*
X5568796Y-24872061D01*
X5605991Y-24892005D01*
X5643025Y-24912364D01*
X5645320Y-24913092D01*
X5647435Y-24914226D01*
X5687791Y-24926564D01*
X5728078Y-24939344D01*
X5730466Y-24939612D01*
X5732766Y-24940315D01*
X5774798Y-24944584D01*
X5816751Y-24949290D01*
X5821452Y-24949323D01*
X5821539Y-24949332D01*
X5821620Y-24949324D01*
X5823135Y-24949335D01*
X12028680Y-24949335D01*
X12028680Y-25570397D01*
X12027212Y-25569146D01*
X11935547Y-25527827D01*
X11836000Y-25513680D01*
X10836000Y-25513680D01*
X10779372Y-25518196D01*
X10683325Y-25547940D01*
X10599367Y-25603264D01*
X10534146Y-25679788D01*
X10492827Y-25771453D01*
X10478680Y-25871000D01*
X10478680Y-26671000D01*
X10483196Y-26727628D01*
X10512940Y-26823675D01*
X10568264Y-26907633D01*
X10644788Y-26972854D01*
X10736453Y-27014173D01*
X10836000Y-27028320D01*
X11836000Y-27028320D01*
X11892628Y-27023804D01*
X11988675Y-26994060D01*
X12072633Y-26938736D01*
X12137854Y-26862212D01*
X12179173Y-26770547D01*
X12193244Y-26671538D01*
X12194788Y-26672854D01*
X12286453Y-26714173D01*
X12386000Y-26728320D01*
X13012090Y-26728320D01*
X12978765Y-26750127D01*
X12865889Y-26860665D01*
X12776631Y-26991021D01*
X12714394Y-27136232D01*
X12681547Y-27290766D01*
X12679341Y-27448737D01*
X12707861Y-27604128D01*
X12766019Y-27751020D01*
X12851602Y-27883818D01*
X12961348Y-27997464D01*
X13091079Y-28087629D01*
X13235851Y-28150878D01*
X13390152Y-28184804D01*
X13548104Y-28188112D01*
X13703690Y-28160678D01*
X13850984Y-28103546D01*
X13984377Y-28018893D01*
X14098786Y-27909943D01*
X14189854Y-27780845D01*
X14254113Y-27636517D01*
X14289115Y-27482457D01*
X14291635Y-27302007D01*
X14260948Y-27147029D01*
X14200744Y-27000964D01*
X14113316Y-26869374D01*
X14001993Y-26757271D01*
X13871017Y-26668926D01*
X13725375Y-26607704D01*
X13570616Y-26575937D01*
X13412633Y-26574834D01*
X13370197Y-26582929D01*
X13387854Y-26562212D01*
X13429173Y-26470547D01*
X13443320Y-26371000D01*
X13443320Y-26129000D01*
X13726580Y-26129000D01*
X14478000Y-26880420D01*
X14478000Y-27624904D01*
X14399450Y-27701826D01*
X14315023Y-27825127D01*
X14256154Y-27962479D01*
X14225085Y-28108650D01*
X14222998Y-28258071D01*
X14249974Y-28405052D01*
X14304985Y-28543994D01*
X14385936Y-28669605D01*
X14489743Y-28777100D01*
X14612452Y-28862385D01*
X14749390Y-28922212D01*
X14895340Y-28954301D01*
X15044743Y-28957430D01*
X15191908Y-28931481D01*
X15331231Y-28877441D01*
X15457404Y-28797370D01*
X15565621Y-28694316D01*
X15651761Y-28572205D01*
X15712542Y-28435688D01*
X15745649Y-28289966D01*
X15748033Y-28119282D01*
X15719007Y-27972692D01*
X15662061Y-27834532D01*
X15579365Y-27710063D01*
X15494000Y-27624101D01*
X15494000Y-26728320D01*
X16012090Y-26728320D01*
X15978765Y-26750127D01*
X15865889Y-26860665D01*
X15776631Y-26991021D01*
X15714394Y-27136232D01*
X15681547Y-27290766D01*
X15679341Y-27448737D01*
X15707861Y-27604128D01*
X15766019Y-27751020D01*
X15851602Y-27883818D01*
X15961348Y-27997464D01*
X16091079Y-28087629D01*
X16235851Y-28150878D01*
X16390152Y-28184804D01*
X16548104Y-28188112D01*
X16703690Y-28160678D01*
X16850984Y-28103546D01*
X16984377Y-28018893D01*
X17098786Y-27909943D01*
X17189854Y-27780845D01*
X17254113Y-27636517D01*
X17289115Y-27482457D01*
X17291635Y-27302007D01*
X17260948Y-27147029D01*
X17200744Y-27000964D01*
X17113316Y-26869374D01*
X17001993Y-26757271D01*
X16959072Y-26728320D01*
X17586000Y-26728320D01*
X17642628Y-26723804D01*
X17738675Y-26694060D01*
X17778680Y-26667699D01*
X17778680Y-26671000D01*
X17783196Y-26727628D01*
X17812940Y-26823675D01*
X17868264Y-26907633D01*
X17944788Y-26972854D01*
X18036453Y-27014173D01*
X18136000Y-27028320D01*
X19136000Y-27028320D01*
X19192628Y-27023804D01*
X19288675Y-26994060D01*
X19372633Y-26938736D01*
X19437854Y-26862212D01*
X19479173Y-26770547D01*
X19493320Y-26671000D01*
X19493320Y-25871000D01*
X19488804Y-25814372D01*
X19459060Y-25718325D01*
X19403736Y-25634367D01*
X19327212Y-25569146D01*
X19235547Y-25527827D01*
X19136000Y-25513680D01*
X18136000Y-25513680D01*
X18079372Y-25518196D01*
X17983325Y-25547940D01*
X17943320Y-25574301D01*
X17943320Y-24871000D01*
X17938804Y-24814372D01*
X17909060Y-24718325D01*
X17853736Y-24634367D01*
X17777212Y-24569146D01*
X17685547Y-24527827D01*
X17586000Y-24513680D01*
X16886000Y-24513680D01*
X16829372Y-24518196D01*
X16733325Y-24547940D01*
X16649367Y-24603264D01*
X16584146Y-24679788D01*
X16542827Y-24771453D01*
X16528680Y-24871000D01*
X16528680Y-26371000D01*
X16533196Y-26427628D01*
X16562940Y-26523675D01*
X16601564Y-26582290D01*
X16570616Y-26575937D01*
X16412633Y-26574834D01*
X16370197Y-26582929D01*
X16387854Y-26562212D01*
X16429173Y-26470547D01*
X16443320Y-26371000D01*
X16443320Y-24871000D01*
X16438804Y-24814372D01*
X16409060Y-24718325D01*
X16353736Y-24634367D01*
X16277212Y-24569146D01*
X16185547Y-24527827D01*
X16086000Y-24513680D01*
X16080772Y-24513680D01*
X16063772Y-24492384D01*
X16060477Y-24489042D01*
X16060416Y-24488968D01*
X16060347Y-24488911D01*
X16059289Y-24487838D01*
X15740297Y-24168846D01*
X15707669Y-24142044D01*
X15675311Y-24114893D01*
X15673205Y-24113735D01*
X15671347Y-24112209D01*
X15634152Y-24092265D01*
X15597118Y-24071906D01*
X15594823Y-24071178D01*
X15592708Y-24070044D01*
X15552311Y-24057693D01*
X15512065Y-24044926D01*
X15509682Y-24044659D01*
X15507377Y-24043954D01*
X15465251Y-24039675D01*
X15423392Y-24034980D01*
X15418702Y-24034947D01*
X15418604Y-24034937D01*
X15418513Y-24034946D01*
X15417008Y-24034935D01*
X6012514Y-24034935D01*
X5664200Y-23686622D01*
X5664200Y-22066591D01*
X5709338Y-22023607D01*
X5783992Y-21917777D01*
X5836669Y-21799463D01*
X5865362Y-21673171D01*
X5867428Y-21525244D01*
X5842272Y-21398200D01*
X5792920Y-21278461D01*
X5721249Y-21170589D01*
X5629991Y-21078691D01*
X5522622Y-21006270D01*
X5403230Y-20956082D01*
X5276365Y-20930040D01*
X5193036Y-20929458D01*
X4371286Y-20107708D01*
X4382628Y-20106804D01*
X4478675Y-20077060D01*
X4562633Y-20021736D01*
X4627854Y-19945212D01*
X4669173Y-19853547D01*
X4683320Y-19754000D01*
X4683320Y-19672300D01*
X4716400Y-19672300D01*
X4716400Y-19814041D01*
X4739827Y-19931814D01*
X4785780Y-20042754D01*
X4852493Y-20142598D01*
X4937403Y-20227507D01*
X5037246Y-20294221D01*
X5148187Y-20340173D01*
X5265960Y-20363600D01*
X5557700Y-20363600D01*
X5710100Y-20211200D01*
X5710100Y-19519900D01*
X6141900Y-19519900D01*
X6141900Y-20211200D01*
X6294300Y-20363600D01*
X6586040Y-20363600D01*
X6703813Y-20340173D01*
X6814754Y-20294221D01*
X6914597Y-20227507D01*
X6999507Y-20142598D01*
X7066220Y-20042754D01*
X7112173Y-19931814D01*
X7135600Y-19814041D01*
X7135600Y-19672300D01*
X6983200Y-19519900D01*
X6141900Y-19519900D01*
X5710100Y-19519900D01*
X4868800Y-19519900D01*
X4716400Y-19672300D01*
X4683320Y-19672300D01*
X4683320Y-18854000D01*
X4678804Y-18797372D01*
X4649060Y-18701325D01*
X4593736Y-18617367D01*
X4517212Y-18552146D01*
X4425547Y-18510827D01*
X4326000Y-18496680D01*
X3126000Y-18496680D01*
X3069372Y-18501196D01*
X2973325Y-18530940D01*
X2889367Y-18586264D01*
X2824146Y-18662788D01*
X2782827Y-18754453D01*
X2768680Y-18854000D01*
X1020915Y-18854000D01*
X763934Y-17957800D01*
X2770400Y-17957800D01*
X2770400Y-18138023D01*
X2784065Y-18206724D01*
X2810871Y-18271439D01*
X2849787Y-18329681D01*
X2899318Y-18379212D01*
X2957560Y-18418128D01*
X3022275Y-18444934D01*
X3090976Y-18458600D01*
X3421200Y-18458600D01*
X3510100Y-18369700D01*
X3510100Y-17868900D01*
X3941900Y-17868900D01*
X3941900Y-18369700D01*
X4030800Y-18458600D01*
X4361024Y-18458600D01*
X4429725Y-18444934D01*
X4494440Y-18418128D01*
X4552682Y-18379212D01*
X4602213Y-18329681D01*
X4641129Y-18271439D01*
X4667935Y-18206724D01*
X4681600Y-18138023D01*
X4681600Y-17957800D01*
X4592700Y-17868900D01*
X3941900Y-17868900D01*
X3510100Y-17868900D01*
X2859300Y-17868900D01*
X2770400Y-17957800D01*
X763934Y-17957800D01*
X669954Y-17630056D01*
X631153Y-17167977D01*
X2770400Y-17167977D01*
X2770400Y-17348200D01*
X2859300Y-17437100D01*
X3510100Y-17437100D01*
X3510100Y-17417100D01*
X3941900Y-17417100D01*
X3941900Y-17437100D01*
X4592700Y-17437100D01*
X4681600Y-17348200D01*
X4681600Y-17167977D01*
X4667935Y-17099276D01*
X4641129Y-17034561D01*
X4602213Y-16976319D01*
X4552682Y-16926788D01*
X4494440Y-16887872D01*
X4429725Y-16861066D01*
X4361024Y-16847400D01*
X4312252Y-16847400D01*
X4312669Y-16846463D01*
X4341362Y-16720171D01*
X4342979Y-16604405D01*
X4408675Y-16584060D01*
X4492633Y-16528736D01*
X4557854Y-16452212D01*
X4599173Y-16360547D01*
X4613320Y-16261000D01*
X4613320Y-15611000D01*
X4608804Y-15554372D01*
X4579060Y-15458325D01*
X4523736Y-15374367D01*
X4447212Y-15309146D01*
X4355547Y-15267827D01*
X4256000Y-15253680D01*
X3196000Y-15253680D01*
X3139372Y-15258196D01*
X3043325Y-15287940D01*
X2959367Y-15343264D01*
X2894146Y-15419788D01*
X2852827Y-15511453D01*
X2838680Y-15611000D01*
X2838680Y-16261000D01*
X2843196Y-16317628D01*
X2872940Y-16413675D01*
X2928264Y-16497633D01*
X3004788Y-16562854D01*
X3023426Y-16571255D01*
X3021732Y-16692528D01*
X3045112Y-16819912D01*
X3058549Y-16853850D01*
X3022275Y-16861066D01*
X2957560Y-16887872D01*
X2899318Y-16926788D01*
X2849787Y-16976319D01*
X2810871Y-17034561D01*
X2784065Y-17099276D01*
X2770400Y-17167977D01*
X631153Y-17167977D01*
X432020Y-14796579D01*
X748976Y-11970851D01*
X1001117Y-11176000D01*
X2692400Y-11176000D01*
X2692400Y-12700000D01*
X2695146Y-12744107D01*
X2819400Y-13738139D01*
X2819400Y-14351000D01*
X2843719Y-14480245D01*
X2920103Y-14598950D01*
X2969045Y-14632390D01*
X3004788Y-14662854D01*
X3030773Y-14674567D01*
X3036652Y-14678584D01*
X3042158Y-14679699D01*
X3096453Y-14704173D01*
X3196000Y-14718320D01*
X4256000Y-14718320D01*
X4312628Y-14713804D01*
X4408675Y-14684060D01*
X4492633Y-14628736D01*
X4557854Y-14552212D01*
X4599173Y-14460547D01*
X4613320Y-14361000D01*
X4613320Y-13711000D01*
X4608804Y-13654372D01*
X4602700Y-13634662D01*
X4483100Y-12677861D01*
X4483100Y-11176000D01*
X4458781Y-11046755D01*
X4382397Y-10928050D01*
X4265848Y-10848416D01*
X4127500Y-10820400D01*
X3048000Y-10820400D01*
X2918755Y-10844719D01*
X2800050Y-10921103D01*
X2720416Y-11037652D01*
X2692400Y-11176000D01*
X1001117Y-11176000D01*
X1276019Y-10309400D01*
X2920400Y-10309400D01*
X2920400Y-10443023D01*
X2934065Y-10511724D01*
X2960871Y-10576439D01*
X2999787Y-10634681D01*
X3049318Y-10684212D01*
X3107560Y-10723128D01*
X3172275Y-10749934D01*
X3240976Y-10763600D01*
X3571200Y-10763600D01*
X3660100Y-10674700D01*
X3660100Y-10220500D01*
X3009300Y-10220500D01*
X2920400Y-10309400D01*
X1276019Y-10309400D01*
X1493766Y-9622977D01*
X2920400Y-9622977D01*
X2920400Y-9756600D01*
X3009300Y-9845500D01*
X3660100Y-9845500D01*
X3660100Y-9391300D01*
X4091900Y-9391300D01*
X4091900Y-9845500D01*
X4111900Y-9845500D01*
X4111900Y-10220500D01*
X4091900Y-10220500D01*
X4091900Y-10674700D01*
X4180800Y-10763600D01*
X4511024Y-10763600D01*
X4579725Y-10749934D01*
X4644440Y-10723128D01*
X4702682Y-10684212D01*
X4752213Y-10634681D01*
X4791129Y-10576439D01*
X4798701Y-10558158D01*
X4800430Y-10571065D01*
X4978400Y-11223622D01*
X4978400Y-14351000D01*
X4990787Y-14416831D01*
X4978400Y-14478000D01*
X4978400Y-15367000D01*
X5002719Y-15496245D01*
X5045533Y-15562780D01*
X5038680Y-15611000D01*
X5038680Y-16261000D01*
X5043196Y-16317628D01*
X5072940Y-16413675D01*
X5128264Y-16497633D01*
X5204788Y-16562854D01*
X5296453Y-16604173D01*
X5396000Y-16618320D01*
X5468800Y-16618320D01*
X5468800Y-16845680D01*
X5326000Y-16845680D01*
X5269372Y-16850196D01*
X5173325Y-16879940D01*
X5089367Y-16935264D01*
X5024146Y-17011788D01*
X4982827Y-17103453D01*
X4968680Y-17203000D01*
X4968680Y-18103000D01*
X4973196Y-18159628D01*
X5002940Y-18255675D01*
X5040374Y-18312483D01*
X5037246Y-18313779D01*
X4937403Y-18380493D01*
X4852493Y-18465402D01*
X4785780Y-18565246D01*
X4739827Y-18676186D01*
X4716400Y-18793959D01*
X4716400Y-18935700D01*
X4868800Y-19088100D01*
X5710100Y-19088100D01*
X5710100Y-19068100D01*
X6141900Y-19068100D01*
X6141900Y-19088100D01*
X6983200Y-19088100D01*
X7135600Y-18935700D01*
X7135600Y-18793959D01*
X7112173Y-18676186D01*
X7066220Y-18565246D01*
X6999507Y-18465402D01*
X6914597Y-18380493D01*
X6814754Y-18313779D01*
X6812110Y-18312684D01*
X6827854Y-18294212D01*
X6869173Y-18202547D01*
X6883320Y-18103000D01*
X6883320Y-17203000D01*
X6878804Y-17146372D01*
X6849060Y-17050325D01*
X6793736Y-16966367D01*
X6717212Y-16901146D01*
X6625547Y-16859827D01*
X6526000Y-16845680D01*
X6383200Y-16845680D01*
X6383200Y-16618320D01*
X6456000Y-16618320D01*
X6512628Y-16613804D01*
X6608675Y-16584060D01*
X6692633Y-16528736D01*
X6757854Y-16452212D01*
X6784454Y-16393200D01*
X6812680Y-16393200D01*
X6812680Y-16559000D01*
X6817196Y-16615628D01*
X6846940Y-16711675D01*
X6902264Y-16795633D01*
X6978788Y-16860854D01*
X7070453Y-16902173D01*
X7170000Y-16916320D01*
X8070000Y-16916320D01*
X8126628Y-16911804D01*
X8222675Y-16882060D01*
X8306633Y-16826736D01*
X8314915Y-16817019D01*
X8380402Y-16882507D01*
X8480246Y-16949220D01*
X8591186Y-16995173D01*
X8708959Y-17018600D01*
X8804100Y-17018600D01*
X8956500Y-16866200D01*
X8956500Y-16024900D01*
X9331500Y-16024900D01*
X9331500Y-16866200D01*
X9483900Y-17018600D01*
X9579041Y-17018600D01*
X9696814Y-16995173D01*
X9807754Y-16949220D01*
X9907598Y-16882507D01*
X9992507Y-16797597D01*
X10059221Y-16697754D01*
X10105173Y-16586813D01*
X10128600Y-16469040D01*
X10128600Y-16177300D01*
X9976200Y-16024900D01*
X9331500Y-16024900D01*
X8956500Y-16024900D01*
X8908100Y-16024900D01*
X8908100Y-15593100D01*
X8956500Y-15593100D01*
X8956500Y-15573100D01*
X9331500Y-15573100D01*
X9331500Y-15593100D01*
X9976200Y-15593100D01*
X10128600Y-15440700D01*
X10128600Y-15148960D01*
X10105173Y-15031187D01*
X10059221Y-14920246D01*
X10007600Y-14842991D01*
X10007600Y-14582100D01*
X10490197Y-14582100D01*
X10490197Y-18129060D01*
X10496264Y-18190936D01*
X10501683Y-18252878D01*
X10502671Y-18256278D01*
X10503016Y-18259799D01*
X10520979Y-18319294D01*
X10538333Y-18379028D01*
X10539963Y-18382172D01*
X10540985Y-18385558D01*
X10570159Y-18440426D01*
X10598788Y-18495657D01*
X10600997Y-18498424D01*
X10602658Y-18501548D01*
X10641949Y-18549723D01*
X10680745Y-18598322D01*
X10685607Y-18603253D01*
X10685685Y-18603349D01*
X10685774Y-18603423D01*
X10687343Y-18605014D01*
X11481284Y-19398954D01*
X11529351Y-19438437D01*
X11576958Y-19478384D01*
X11580057Y-19480087D01*
X11582794Y-19482336D01*
X11637624Y-19511736D01*
X11692075Y-19541670D01*
X11695448Y-19542740D01*
X11698568Y-19544413D01*
X11758067Y-19562604D01*
X11817292Y-19581391D01*
X11820806Y-19581785D01*
X11824194Y-19582821D01*
X11886108Y-19589110D01*
X11947839Y-19596034D01*
X11954755Y-19596083D01*
X11954887Y-19596096D01*
X11955010Y-19596084D01*
X11957237Y-19596100D01*
X15342192Y-19596100D01*
X20603139Y-24857046D01*
X20654985Y-24987994D01*
X20735936Y-25113605D01*
X20839743Y-25221100D01*
X20962452Y-25306385D01*
X21099390Y-25366212D01*
X21245340Y-25398301D01*
X21394743Y-25401430D01*
X21541908Y-25375481D01*
X21681231Y-25321441D01*
X21807404Y-25241370D01*
X21915621Y-25138316D01*
X22001761Y-25016205D01*
X22062542Y-24879688D01*
X22095649Y-24733966D01*
X22098033Y-24563282D01*
X22069007Y-24416692D01*
X22012061Y-24278532D01*
X21929365Y-24154063D01*
X21824067Y-24048028D01*
X21700179Y-23964465D01*
X21562420Y-23906556D01*
X21554924Y-23905017D01*
X16096954Y-18447046D01*
X16048862Y-18407543D01*
X16001279Y-18367616D01*
X15998180Y-18365913D01*
X15995443Y-18363664D01*
X15940594Y-18334254D01*
X15886162Y-18304330D01*
X15882792Y-18303261D01*
X15879670Y-18301587D01*
X15820198Y-18283405D01*
X15760945Y-18264609D01*
X15757426Y-18264214D01*
X15754043Y-18263180D01*
X15692179Y-18256896D01*
X15630398Y-18249966D01*
X15623482Y-18249917D01*
X15623350Y-18249904D01*
X15623227Y-18249916D01*
X15621000Y-18249900D01*
X12236044Y-18249900D01*
X11836397Y-17850252D01*
X11836397Y-17457320D01*
X13300000Y-17457320D01*
X13356628Y-17452804D01*
X13452675Y-17423060D01*
X13536633Y-17367736D01*
X13601854Y-17291212D01*
X13643173Y-17199547D01*
X13657320Y-17100000D01*
X13657320Y-16968300D01*
X16090400Y-16968300D01*
X16090400Y-17160041D01*
X16113827Y-17277814D01*
X16159780Y-17388754D01*
X16226493Y-17488598D01*
X16311403Y-17573507D01*
X16411246Y-17640221D01*
X16522187Y-17686173D01*
X16639960Y-17709600D01*
X17131700Y-17709600D01*
X17284100Y-17557200D01*
X17284100Y-16815900D01*
X17715900Y-16815900D01*
X17715900Y-17557200D01*
X17868300Y-17709600D01*
X18360040Y-17709600D01*
X18477813Y-17686173D01*
X18588754Y-17640221D01*
X18688597Y-17573507D01*
X18773507Y-17488598D01*
X18840220Y-17388754D01*
X18886173Y-17277814D01*
X18909600Y-17160041D01*
X18909600Y-16968300D01*
X18757200Y-16815900D01*
X17715900Y-16815900D01*
X17284100Y-16815900D01*
X16242800Y-16815900D01*
X16090400Y-16968300D01*
X13657320Y-16968300D01*
X13657320Y-16100000D01*
X13652804Y-16043372D01*
X13623060Y-15947325D01*
X13567736Y-15863367D01*
X13491212Y-15798146D01*
X13399547Y-15756827D01*
X13300000Y-15742680D01*
X11836397Y-15742680D01*
X11836397Y-14257320D01*
X13300000Y-14257320D01*
X13356628Y-14252804D01*
X13452675Y-14223060D01*
X13536633Y-14167736D01*
X13601854Y-14091212D01*
X13643173Y-13999547D01*
X13657320Y-13900000D01*
X13657320Y-12900000D01*
X13652804Y-12843372D01*
X13623060Y-12747325D01*
X13567736Y-12663367D01*
X13491212Y-12598146D01*
X13399547Y-12556827D01*
X13300000Y-12542680D01*
X13185100Y-12542680D01*
X13185100Y-12025703D01*
X13264675Y-12001060D01*
X13285523Y-11987322D01*
X13338493Y-12066598D01*
X13423403Y-12151507D01*
X13523246Y-12218221D01*
X13634187Y-12264173D01*
X13751960Y-12287600D01*
X14043700Y-12287600D01*
X14196100Y-12135200D01*
X14196100Y-11490500D01*
X14176100Y-11490500D01*
X14176100Y-11115500D01*
X14196100Y-11115500D01*
X14196100Y-10470800D01*
X14043700Y-10318400D01*
X13751960Y-10318400D01*
X13634187Y-10341827D01*
X13523246Y-10387779D01*
X13423403Y-10454493D01*
X13338493Y-10539402D01*
X13285783Y-10618289D01*
X13211547Y-10584827D01*
X13112000Y-10570680D01*
X11912000Y-10570680D01*
X11855372Y-10575196D01*
X11759325Y-10604940D01*
X11675367Y-10660264D01*
X11610146Y-10736788D01*
X11568827Y-10828453D01*
X11554680Y-10928000D01*
X11554680Y-11678000D01*
X11559196Y-11734628D01*
X11588940Y-11830675D01*
X11644264Y-11914633D01*
X11720788Y-11979854D01*
X11812453Y-12021173D01*
X11838900Y-12024931D01*
X11838900Y-12542680D01*
X11700000Y-12542680D01*
X11643372Y-12547196D01*
X11547325Y-12576940D01*
X11463367Y-12632264D01*
X11398146Y-12708788D01*
X11356827Y-12800453D01*
X11355995Y-12806307D01*
X11354931Y-12806873D01*
X11299721Y-12835491D01*
X11296956Y-12837699D01*
X11293829Y-12839361D01*
X11245638Y-12878665D01*
X11197056Y-12917447D01*
X11192128Y-12922306D01*
X11192028Y-12922388D01*
X11191951Y-12922481D01*
X11190364Y-12924046D01*
X10878509Y-13235900D01*
X10007600Y-13235900D01*
X10007600Y-13081000D01*
X9983281Y-12951755D01*
X9906897Y-12833050D01*
X9790348Y-12753416D01*
X9652000Y-12725400D01*
X6959600Y-12725400D01*
X6959600Y-11268626D01*
X7151952Y-11268626D01*
X7190951Y-11481111D01*
X7270478Y-11681975D01*
X7387506Y-11863567D01*
X7537577Y-12018970D01*
X7714974Y-12142264D01*
X7912940Y-12228753D01*
X8123935Y-12275143D01*
X8339923Y-12279668D01*
X8552675Y-12242154D01*
X8754090Y-12164030D01*
X8936494Y-12048273D01*
X9092941Y-11899291D01*
X9217470Y-11722759D01*
X9305339Y-11525401D01*
X9353202Y-11314735D01*
X9356647Y-11067983D01*
X9314686Y-10856062D01*
X9232361Y-10656328D01*
X9112809Y-10476388D01*
X8960584Y-10323096D01*
X8781483Y-10202291D01*
X8582328Y-10118574D01*
X8370706Y-10075134D01*
X8154676Y-10073626D01*
X7942468Y-10114107D01*
X7742164Y-10195035D01*
X7561393Y-10313327D01*
X7407042Y-10464479D01*
X7284990Y-10642732D01*
X7199885Y-10841298D01*
X7154968Y-11052612D01*
X7151952Y-11268626D01*
X6959600Y-11268626D01*
X6959600Y-11176000D01*
X6947070Y-11082435D01*
X6769100Y-10429878D01*
X6769100Y-9652000D01*
X6744781Y-9522755D01*
X6668397Y-9404050D01*
X6551848Y-9324416D01*
X6449100Y-9303609D01*
X6449100Y-7934900D01*
X10003400Y-7934900D01*
X10003400Y-8005041D01*
X10026827Y-8122814D01*
X10072780Y-8233754D01*
X10139493Y-8333598D01*
X10224403Y-8418507D01*
X10324246Y-8485221D01*
X10435187Y-8531173D01*
X10552960Y-8554600D01*
X11094700Y-8554600D01*
X11247100Y-8402200D01*
X11247100Y-7782500D01*
X11678900Y-7782500D01*
X11678900Y-8402200D01*
X11831300Y-8554600D01*
X12373040Y-8554600D01*
X12490813Y-8531173D01*
X12601754Y-8485221D01*
X12701597Y-8418507D01*
X12786507Y-8333598D01*
X12853220Y-8233754D01*
X12899173Y-8122814D01*
X12922600Y-8005041D01*
X12922600Y-7934900D01*
X12770200Y-7782500D01*
X11678900Y-7782500D01*
X11247100Y-7782500D01*
X10155800Y-7782500D01*
X10003400Y-7934900D01*
X6449100Y-7934900D01*
X6449100Y-6373114D01*
X8085113Y-4737100D01*
X9479744Y-4737100D01*
X9605890Y-4792212D01*
X9751840Y-4824301D01*
X9901243Y-4827430D01*
X10048408Y-4801481D01*
X10187731Y-4747441D01*
X10263596Y-4699296D01*
X10255680Y-4755000D01*
X10255680Y-5405000D01*
X10260196Y-5461628D01*
X10289940Y-5557675D01*
X10345264Y-5641633D01*
X10421788Y-5706854D01*
X10440243Y-5715173D01*
X10376367Y-5757264D01*
X10311146Y-5833788D01*
X10269827Y-5925453D01*
X10255680Y-6025000D01*
X10255680Y-6675000D01*
X10260196Y-6731628D01*
X10277118Y-6786270D01*
X10224403Y-6821493D01*
X10139493Y-6906402D01*
X10072780Y-7006246D01*
X10026827Y-7117186D01*
X10003400Y-7234959D01*
X10003400Y-7305100D01*
X10155800Y-7457500D01*
X11247100Y-7457500D01*
X11247100Y-7384100D01*
X11678900Y-7384100D01*
X11678900Y-7457500D01*
X12770200Y-7457500D01*
X12858197Y-7369504D01*
X15417800Y-9929107D01*
X15417800Y-10471696D01*
X15400597Y-10454493D01*
X15300754Y-10387779D01*
X15189813Y-10341827D01*
X15072040Y-10318400D01*
X14780300Y-10318400D01*
X14627900Y-10470800D01*
X14627900Y-11115500D01*
X14647900Y-11115500D01*
X14647900Y-11490500D01*
X14627900Y-11490500D01*
X14627900Y-12135200D01*
X14780300Y-12287600D01*
X15072040Y-12287600D01*
X15189813Y-12264173D01*
X15300754Y-12218221D01*
X15400597Y-12151507D01*
X15417800Y-12134304D01*
X15417800Y-14891477D01*
X15421922Y-14933520D01*
X15425602Y-14975580D01*
X15426272Y-14977887D01*
X15426507Y-14980281D01*
X15438704Y-15020677D01*
X15450496Y-15061267D01*
X15451605Y-15063406D01*
X15452298Y-15065702D01*
X15472115Y-15102973D01*
X15491560Y-15140486D01*
X15493058Y-15142362D01*
X15494188Y-15144488D01*
X15520917Y-15177261D01*
X15547228Y-15210220D01*
X15550523Y-15213562D01*
X15550584Y-15213636D01*
X15550653Y-15213693D01*
X15551711Y-15214766D01*
X16156386Y-15819441D01*
X16113827Y-15922186D01*
X16090400Y-16039959D01*
X16090400Y-16231700D01*
X16242800Y-16384100D01*
X17284100Y-16384100D01*
X17284100Y-16364100D01*
X17715900Y-16364100D01*
X17715900Y-16384100D01*
X18757200Y-16384100D01*
X18834085Y-16307215D01*
X23743207Y-21216338D01*
X23743207Y-23063381D01*
X23739807Y-23064398D01*
X23531766Y-23174312D01*
X23349035Y-23322541D01*
X23198576Y-23503439D01*
X23086119Y-23710118D01*
X23015948Y-23934702D01*
X22990735Y-24168639D01*
X23011441Y-24403019D01*
X23077277Y-24628912D01*
X23185735Y-24837716D01*
X23332685Y-25021476D01*
X23344515Y-25033452D01*
X23352771Y-25041694D01*
X23534715Y-25190887D01*
X23742173Y-25301898D01*
X23967242Y-25370500D01*
X24201350Y-25394079D01*
X24435579Y-25371737D01*
X24661007Y-25304326D01*
X24869048Y-25194413D01*
X25051779Y-25046184D01*
X25202239Y-24865285D01*
X25314695Y-24658607D01*
X25384866Y-24434022D01*
X25410079Y-24200085D01*
X25389373Y-23965706D01*
X25323537Y-23739812D01*
X25215079Y-23531008D01*
X25068129Y-23347248D01*
X25056299Y-23335272D01*
X25048043Y-23327030D01*
X24866099Y-23177837D01*
X24658641Y-23066826D01*
X24657607Y-23066511D01*
X24657607Y-21026959D01*
X24653484Y-20984912D01*
X24649805Y-20942857D01*
X24649135Y-20940550D01*
X24648900Y-20938155D01*
X24636695Y-20897733D01*
X24624911Y-20857170D01*
X24623803Y-20855032D01*
X24623109Y-20852734D01*
X24603283Y-20815445D01*
X24583847Y-20777950D01*
X24582349Y-20776074D01*
X24581219Y-20773948D01*
X24554490Y-20741175D01*
X24528179Y-20708216D01*
X24524880Y-20704870D01*
X24524823Y-20704800D01*
X24524758Y-20704747D01*
X24523697Y-20703670D01*
X19231794Y-15411768D01*
X19199166Y-15384966D01*
X19166808Y-15357815D01*
X19164702Y-15356657D01*
X19162844Y-15355131D01*
X19125649Y-15335187D01*
X19088615Y-15314828D01*
X19086320Y-15314100D01*
X19084205Y-15312966D01*
X19043808Y-15300615D01*
X19003562Y-15287848D01*
X19001179Y-15287581D01*
X18998874Y-15286876D01*
X18956748Y-15282597D01*
X18914889Y-15277902D01*
X18910199Y-15277869D01*
X18910101Y-15277859D01*
X18910010Y-15277868D01*
X18908505Y-15277857D01*
X16907958Y-15277857D01*
X16332200Y-14702099D01*
X16332200Y-9739729D01*
X16328077Y-9697682D01*
X16324398Y-9655627D01*
X16323728Y-9653320D01*
X16323493Y-9650925D01*
X16311293Y-9610516D01*
X16299504Y-9569939D01*
X16298395Y-9567800D01*
X16297702Y-9565504D01*
X16277885Y-9528233D01*
X16258440Y-9490720D01*
X16256942Y-9488844D01*
X16255812Y-9486718D01*
X16229083Y-9453945D01*
X16202772Y-9420986D01*
X16199477Y-9417644D01*
X16199416Y-9417570D01*
X16199347Y-9417513D01*
X16198289Y-9416440D01*
X12808560Y-6026711D01*
X12775932Y-5999909D01*
X12743574Y-5972758D01*
X12741468Y-5971600D01*
X12739610Y-5970074D01*
X12702415Y-5950130D01*
X12665381Y-5929771D01*
X12663086Y-5929043D01*
X12660971Y-5927909D01*
X12652468Y-5925309D01*
X12636060Y-5872325D01*
X12597039Y-5813108D01*
X17042800Y-10258869D01*
X17042800Y-12542680D01*
X16700000Y-12542680D01*
X16643372Y-12547196D01*
X16547325Y-12576940D01*
X16463367Y-12632264D01*
X16398146Y-12708788D01*
X16356827Y-12800453D01*
X16342680Y-12900000D01*
X16342680Y-13900000D01*
X16347196Y-13956628D01*
X16376940Y-14052675D01*
X16432264Y-14136633D01*
X16508788Y-14201854D01*
X16600453Y-14243173D01*
X16700000Y-14257320D01*
X18300000Y-14257320D01*
X18356628Y-14252804D01*
X18452675Y-14223060D01*
X18536633Y-14167736D01*
X18601854Y-14091212D01*
X18633382Y-14021267D01*
X25452639Y-20840524D01*
X25314493Y-20918669D01*
X25136098Y-21072088D01*
X24990901Y-21257237D01*
X24884430Y-21467062D01*
X24820744Y-21693571D01*
X24802266Y-21928136D01*
X24829700Y-22161823D01*
X24902001Y-22385731D01*
X25016417Y-22591332D01*
X25168588Y-22770793D01*
X25352718Y-22917278D01*
X25366914Y-22926324D01*
X25376796Y-22932524D01*
X25587359Y-23037527D01*
X25814307Y-23099631D01*
X26048996Y-23116471D01*
X26282486Y-23087406D01*
X26505883Y-23013543D01*
X26710679Y-22897695D01*
X26889074Y-22744276D01*
X27034271Y-22559127D01*
X27140742Y-22349302D01*
X27204429Y-22122793D01*
X27222906Y-21888228D01*
X27195472Y-21654541D01*
X27123171Y-21430633D01*
X27008755Y-21225032D01*
X26856584Y-21045572D01*
X26672454Y-20899086D01*
X26658258Y-20890040D01*
X26648376Y-20883840D01*
X26469786Y-20794781D01*
X26469786Y-20753893D01*
X26465664Y-20711850D01*
X26461984Y-20669790D01*
X26461314Y-20667483D01*
X26461079Y-20665089D01*
X26448882Y-20624693D01*
X26437090Y-20584103D01*
X26435981Y-20581964D01*
X26435288Y-20579668D01*
X26433403Y-20576122D01*
X27051305Y-20576122D01*
X27228741Y-20744911D01*
X27514217Y-20725543D01*
X27790430Y-20650853D01*
X28046765Y-20523713D01*
X28273371Y-20349007D01*
X28442571Y-20159421D01*
X28419141Y-19914860D01*
X27405806Y-19560988D01*
X27051305Y-20576122D01*
X26433403Y-20576122D01*
X26415471Y-20542397D01*
X26396026Y-20504884D01*
X26394528Y-20503008D01*
X26393398Y-20500882D01*
X26366644Y-20468078D01*
X26340357Y-20435150D01*
X26337064Y-20431810D01*
X26337002Y-20431734D01*
X26336932Y-20431676D01*
X26335875Y-20430604D01*
X25146835Y-19241564D01*
X25814233Y-19241564D01*
X25828631Y-19495266D01*
X25897218Y-19773058D01*
X26018681Y-20032131D01*
X26188352Y-20262530D01*
X26399711Y-20455401D01*
X26643647Y-20433761D01*
X26998148Y-19418628D01*
X26238453Y-19153330D01*
X27548166Y-19153330D01*
X28561501Y-19507203D01*
X28732081Y-19330394D01*
X28717683Y-19076692D01*
X28649096Y-18798900D01*
X28527633Y-18539827D01*
X28357962Y-18309428D01*
X28146603Y-18116557D01*
X27902667Y-18138197D01*
X27548166Y-19153330D01*
X26238453Y-19153330D01*
X25984813Y-19064755D01*
X25814233Y-19241564D01*
X25146835Y-19241564D01*
X24317808Y-18412537D01*
X26103743Y-18412537D01*
X26127173Y-18657098D01*
X27140508Y-19010970D01*
X27495009Y-17995836D01*
X27317573Y-17827047D01*
X27032097Y-17846415D01*
X26755884Y-17921105D01*
X26499549Y-18048245D01*
X26272943Y-18222951D01*
X26103743Y-18412537D01*
X24317808Y-18412537D01*
X18981982Y-13076711D01*
X18949354Y-13049909D01*
X18916996Y-13022758D01*
X18914890Y-13021600D01*
X18913032Y-13020074D01*
X18875837Y-13000130D01*
X18838803Y-12979771D01*
X18836508Y-12979043D01*
X18834393Y-12977909D01*
X18793996Y-12965558D01*
X18753750Y-12952791D01*
X18751367Y-12952524D01*
X18749062Y-12951819D01*
X18706936Y-12947540D01*
X18665077Y-12942845D01*
X18660387Y-12942812D01*
X18660289Y-12942802D01*
X18660198Y-12942811D01*
X18658693Y-12942800D01*
X18657320Y-12942800D01*
X18657320Y-12900000D01*
X18652804Y-12843372D01*
X18623060Y-12747325D01*
X18567736Y-12663367D01*
X18491212Y-12598146D01*
X18399547Y-12556827D01*
X18300000Y-12542680D01*
X17957200Y-12542680D01*
X17957200Y-11268626D01*
X18073952Y-11268626D01*
X18112951Y-11481111D01*
X18192478Y-11681975D01*
X18309506Y-11863567D01*
X18459577Y-12018970D01*
X18636974Y-12142264D01*
X18834940Y-12228753D01*
X19045935Y-12275143D01*
X19261923Y-12279668D01*
X19474675Y-12242154D01*
X19676090Y-12164030D01*
X19858494Y-12048273D01*
X20014941Y-11899291D01*
X20139470Y-11722759D01*
X20227339Y-11525401D01*
X20275202Y-11314735D01*
X20278647Y-11067983D01*
X20236686Y-10856062D01*
X20154361Y-10656328D01*
X20034809Y-10476388D01*
X19882584Y-10323096D01*
X19703483Y-10202291D01*
X19504328Y-10118574D01*
X19292706Y-10075134D01*
X19076676Y-10073626D01*
X18864468Y-10114107D01*
X18664164Y-10195035D01*
X18483393Y-10313327D01*
X18329042Y-10464479D01*
X18206990Y-10642732D01*
X18121885Y-10841298D01*
X18076968Y-11052612D01*
X18073952Y-11268626D01*
X17957200Y-11268626D01*
X17957200Y-10069491D01*
X17953077Y-10027444D01*
X17949398Y-9985389D01*
X17948728Y-9983082D01*
X17948493Y-9980687D01*
X17936293Y-9940278D01*
X17924504Y-9899701D01*
X17923395Y-9897562D01*
X17922702Y-9895266D01*
X17902885Y-9857995D01*
X17883440Y-9820482D01*
X17881942Y-9818606D01*
X17880812Y-9816480D01*
X17854083Y-9783707D01*
X17827772Y-9750748D01*
X17824477Y-9747406D01*
X17824416Y-9747332D01*
X17824347Y-9747275D01*
X17823289Y-9746202D01*
X12833798Y-4756711D01*
X12801170Y-4729909D01*
X12768812Y-4702758D01*
X12766706Y-4701600D01*
X12764848Y-4700074D01*
X12727653Y-4680130D01*
X12690619Y-4659771D01*
X12688324Y-4659043D01*
X12686209Y-4657909D01*
X12649829Y-4646786D01*
X12636060Y-4602325D01*
X12580736Y-4518367D01*
X12504212Y-4453146D01*
X12485757Y-4444827D01*
X12546284Y-4404943D01*
X18040557Y-9899216D01*
X18073185Y-9926018D01*
X18105543Y-9953169D01*
X18107649Y-9954327D01*
X18109507Y-9955853D01*
X18146702Y-9975797D01*
X18183736Y-9996156D01*
X18186031Y-9996884D01*
X18188146Y-9998018D01*
X18228502Y-10010356D01*
X18268789Y-10023136D01*
X18271177Y-10023404D01*
X18273477Y-10024107D01*
X18315509Y-10028376D01*
X18357462Y-10033082D01*
X18362163Y-10033115D01*
X18362250Y-10033124D01*
X18362331Y-10033116D01*
X18363846Y-10033127D01*
X20782558Y-10033127D01*
X26784453Y-16035022D01*
X26766577Y-16075941D01*
X26716061Y-16305746D01*
X26711142Y-16540987D01*
X26752010Y-16772703D01*
X26837107Y-16992067D01*
X26963191Y-17190726D01*
X27125459Y-17361111D01*
X27317732Y-17496734D01*
X27532686Y-17592427D01*
X27762133Y-17644545D01*
X27778848Y-17646538D01*
X27790442Y-17647838D01*
X28025711Y-17651114D01*
X28257135Y-17608630D01*
X28475901Y-17522004D01*
X28673674Y-17394536D01*
X28842923Y-17231082D01*
X28977199Y-17037867D01*
X29071389Y-16822251D01*
X29121906Y-16592446D01*
X29126824Y-16357205D01*
X29085956Y-16125489D01*
X29000860Y-15906125D01*
X28874776Y-15707466D01*
X28712507Y-15537081D01*
X28520234Y-15401458D01*
X28305280Y-15305765D01*
X28075834Y-15253647D01*
X28059119Y-15251654D01*
X28047524Y-15250354D01*
X27812255Y-15247078D01*
X27580831Y-15289562D01*
X27402689Y-15360102D01*
X21295225Y-9252638D01*
X21262597Y-9225836D01*
X21230239Y-9198685D01*
X21228133Y-9197527D01*
X21226275Y-9196001D01*
X21189080Y-9176057D01*
X21152046Y-9155698D01*
X21149751Y-9154970D01*
X21147636Y-9153836D01*
X21107239Y-9141485D01*
X21066993Y-9128718D01*
X21064610Y-9128451D01*
X21062305Y-9127746D01*
X21020179Y-9123467D01*
X20978320Y-9118772D01*
X20973630Y-9118739D01*
X20973532Y-9118729D01*
X20973441Y-9118738D01*
X20971936Y-9118727D01*
X18553224Y-9118727D01*
X12921208Y-3486711D01*
X12888580Y-3459909D01*
X12856222Y-3432758D01*
X12854116Y-3431600D01*
X12852258Y-3430074D01*
X12815063Y-3410130D01*
X12778029Y-3389771D01*
X12775734Y-3389043D01*
X12773619Y-3387909D01*
X12733222Y-3375558D01*
X12692976Y-3362791D01*
X12690593Y-3362524D01*
X12688288Y-3361819D01*
X12646162Y-3357540D01*
X12643786Y-3357274D01*
X12636060Y-3332325D01*
X12580736Y-3248367D01*
X12504212Y-3183146D01*
X12412547Y-3141827D01*
X12313000Y-3127680D01*
X11920200Y-3127680D01*
X11920200Y-2696378D01*
X12190878Y-2425700D01*
X13056254Y-2425700D01*
X13060196Y-2475128D01*
X13089940Y-2571175D01*
X13145264Y-2655133D01*
X13221788Y-2720354D01*
X13313453Y-2761673D01*
X13413000Y-2775820D01*
X14613000Y-2775820D01*
X14655800Y-2772407D01*
X14655800Y-3906803D01*
X14659922Y-3948846D01*
X14663602Y-3990906D01*
X14664272Y-3993213D01*
X14664507Y-3995607D01*
X14676704Y-4036003D01*
X14688496Y-4076593D01*
X14689605Y-4078732D01*
X14690298Y-4081028D01*
X14710115Y-4118299D01*
X14729560Y-4155812D01*
X14731058Y-4157688D01*
X14732188Y-4159814D01*
X14758917Y-4192587D01*
X14785228Y-4225546D01*
X14788523Y-4228888D01*
X14788584Y-4228962D01*
X14788653Y-4229019D01*
X14789711Y-4230092D01*
X17232908Y-6673289D01*
X17265536Y-6700091D01*
X17297894Y-6727242D01*
X17300000Y-6728400D01*
X17301858Y-6729926D01*
X17339053Y-6749870D01*
X17376087Y-6770229D01*
X17378382Y-6770957D01*
X17380497Y-6772091D01*
X17420853Y-6784429D01*
X17461140Y-6797209D01*
X17463528Y-6797477D01*
X17465828Y-6798180D01*
X17507860Y-6802449D01*
X17549813Y-6807155D01*
X17554514Y-6807188D01*
X17554601Y-6807197D01*
X17554682Y-6807189D01*
X17556197Y-6807200D01*
X17583599Y-6807200D01*
X17589940Y-6827675D01*
X17645264Y-6911633D01*
X17721788Y-6976854D01*
X17740243Y-6985173D01*
X17676367Y-7027264D01*
X17611146Y-7103788D01*
X17569827Y-7195453D01*
X17555680Y-7295000D01*
X17555680Y-7945000D01*
X17560196Y-8001628D01*
X17589940Y-8097675D01*
X17645264Y-8181633D01*
X17721788Y-8246854D01*
X17813453Y-8288173D01*
X17913000Y-8302320D01*
X19613000Y-8302320D01*
X19669628Y-8297804D01*
X19765675Y-8268060D01*
X19849633Y-8212736D01*
X19914854Y-8136212D01*
X19941454Y-8077200D01*
X20185411Y-8077200D01*
X25971130Y-13862920D01*
X26003784Y-13889742D01*
X26036117Y-13916873D01*
X26038223Y-13918031D01*
X26040081Y-13919557D01*
X26077276Y-13939501D01*
X26114310Y-13959860D01*
X26116605Y-13960588D01*
X26118720Y-13961722D01*
X26159076Y-13974060D01*
X26199363Y-13986840D01*
X26201751Y-13987108D01*
X26204051Y-13987811D01*
X26246083Y-13992080D01*
X26288036Y-13996786D01*
X26292737Y-13996819D01*
X26292824Y-13996828D01*
X26292905Y-13996820D01*
X26294420Y-13996831D01*
X26802278Y-13996831D01*
X26851890Y-14114579D01*
X26983626Y-14309535D01*
X27150720Y-14475191D01*
X27346808Y-14605237D01*
X27564420Y-14694720D01*
X27795269Y-14740230D01*
X28030560Y-14740034D01*
X28047300Y-14738261D01*
X28058892Y-14736951D01*
X28289002Y-14687840D01*
X28505189Y-14594969D01*
X28699222Y-14461875D01*
X28863707Y-14293629D01*
X28992381Y-14096638D01*
X29080341Y-13878406D01*
X29124239Y-13647246D01*
X29122401Y-13411961D01*
X29074898Y-13181514D01*
X28983538Y-12964683D01*
X28851802Y-12769727D01*
X28684708Y-12604071D01*
X28488621Y-12474025D01*
X28271008Y-12384542D01*
X28040159Y-12339032D01*
X27804868Y-12339228D01*
X27788128Y-12341001D01*
X27776536Y-12342311D01*
X27546427Y-12391422D01*
X27330239Y-12484293D01*
X27136206Y-12617387D01*
X26971721Y-12785633D01*
X26843047Y-12982624D01*
X26802819Y-13082431D01*
X26483799Y-13082431D01*
X20698078Y-7296711D01*
X20665450Y-7269909D01*
X20633092Y-7242758D01*
X20630986Y-7241600D01*
X20629128Y-7240074D01*
X20591933Y-7220130D01*
X20554899Y-7199771D01*
X20552604Y-7199043D01*
X20550489Y-7197909D01*
X20510092Y-7185558D01*
X20469846Y-7172791D01*
X20467463Y-7172524D01*
X20465158Y-7171819D01*
X20423032Y-7167540D01*
X20381173Y-7162845D01*
X20376483Y-7162812D01*
X20376385Y-7162802D01*
X20376294Y-7162811D01*
X20374789Y-7162800D01*
X19942401Y-7162800D01*
X19936060Y-7142325D01*
X19880736Y-7058367D01*
X19804212Y-6993146D01*
X19785757Y-6984827D01*
X19849633Y-6942736D01*
X19914854Y-6866212D01*
X19956173Y-6774547D01*
X19970320Y-6675000D01*
X19970320Y-6025000D01*
X19965804Y-5968372D01*
X19936060Y-5872325D01*
X19880736Y-5788367D01*
X19804212Y-5723146D01*
X19785757Y-5714827D01*
X19849633Y-5672736D01*
X19864365Y-5655450D01*
X25235517Y-11026603D01*
X25268180Y-11053433D01*
X25300503Y-11080555D01*
X25302608Y-11081712D01*
X25304468Y-11083240D01*
X25341662Y-11103182D01*
X25378696Y-11123542D01*
X25380993Y-11124271D01*
X25383107Y-11125404D01*
X25423489Y-11137751D01*
X25463749Y-11150522D01*
X25466132Y-11150789D01*
X25468437Y-11151494D01*
X25510563Y-11155773D01*
X25552422Y-11160468D01*
X25557112Y-11160501D01*
X25557210Y-11160511D01*
X25557301Y-11160502D01*
X25558806Y-11160513D01*
X26152816Y-11160513D01*
X26220897Y-11309892D01*
X26358206Y-11500965D01*
X26530012Y-11661729D01*
X26729771Y-11786060D01*
X26949876Y-11869224D01*
X27181943Y-11908052D01*
X27417131Y-11901065D01*
X27646482Y-11848529D01*
X27662408Y-11843076D01*
X27673418Y-11839220D01*
X27886835Y-11740148D01*
X28076944Y-11601509D01*
X28236505Y-11428585D01*
X28359439Y-11227962D01*
X28441064Y-11007282D01*
X28478271Y-10774951D01*
X28469642Y-10539817D01*
X28415507Y-10310838D01*
X28317927Y-10096734D01*
X28180619Y-9905661D01*
X28008813Y-9744897D01*
X27809053Y-9620566D01*
X27588948Y-9537402D01*
X27356882Y-9498574D01*
X27121694Y-9505561D01*
X26892342Y-9558097D01*
X26876417Y-9563550D01*
X26865406Y-9567406D01*
X26651989Y-9666478D01*
X26461880Y-9805116D01*
X26302319Y-9978041D01*
X26179385Y-10178664D01*
X26154437Y-10246113D01*
X25748185Y-10246113D01*
X24257383Y-8755311D01*
X25003594Y-8755311D01*
X25119147Y-8906732D01*
X25295501Y-9062494D01*
X25498751Y-9181034D01*
X25721154Y-9257839D01*
X25954240Y-9289984D01*
X26189131Y-9276243D01*
X26416878Y-9217139D01*
X26628808Y-9114925D01*
X26643123Y-9106068D01*
X26653001Y-9099860D01*
X26839049Y-8955817D01*
X26993575Y-8778380D01*
X27110695Y-8574308D01*
X27185945Y-8351373D01*
X27216462Y-8118069D01*
X27201081Y-7883281D01*
X27140389Y-7655951D01*
X27036698Y-7444739D01*
X26893957Y-7257690D01*
X26717603Y-7101928D01*
X26514354Y-6983388D01*
X26291950Y-6906583D01*
X26058864Y-6874438D01*
X25823974Y-6888179D01*
X25596226Y-6947282D01*
X25384296Y-7049497D01*
X25369981Y-7058354D01*
X25360103Y-7064562D01*
X25174055Y-7208605D01*
X25019529Y-7386042D01*
X25006289Y-7409111D01*
X24127960Y-7409111D01*
X24057173Y-7338323D01*
X24071907Y-7346090D01*
X24170395Y-7366337D01*
X24270624Y-7358344D01*
X24364658Y-7322745D01*
X24445051Y-7262357D01*
X25647133Y-6060275D01*
X25683982Y-6017040D01*
X25730866Y-5928093D01*
X25751113Y-5829605D01*
X25743120Y-5729376D01*
X25707521Y-5635342D01*
X25647133Y-5554949D01*
X24445051Y-4352867D01*
X24401816Y-4316018D01*
X24312869Y-4269134D01*
X24214381Y-4248887D01*
X24114152Y-4256880D01*
X24020118Y-4292479D01*
X23939725Y-4352867D01*
X22942180Y-5350412D01*
X22723680Y-5350412D01*
X20107264Y-2733996D01*
X20074636Y-2707194D01*
X20042278Y-2680043D01*
X20040172Y-2678885D01*
X20038314Y-2677359D01*
X20001119Y-2657415D01*
X19964085Y-2637056D01*
X19961790Y-2636328D01*
X19959675Y-2635194D01*
X19919278Y-2622843D01*
X19879032Y-2610076D01*
X19876649Y-2609809D01*
X19874344Y-2609104D01*
X19832218Y-2604825D01*
X19790359Y-2600130D01*
X19785669Y-2600097D01*
X19785571Y-2600087D01*
X19785480Y-2600096D01*
X19783975Y-2600085D01*
X17704770Y-2600085D01*
X17644203Y-2539518D01*
X17644203Y-1344179D01*
X17640081Y-1302136D01*
X17636401Y-1260076D01*
X17635731Y-1257769D01*
X17635496Y-1255375D01*
X17623299Y-1214979D01*
X17611507Y-1174389D01*
X17610398Y-1172250D01*
X17609705Y-1169954D01*
X17589888Y-1132683D01*
X17570443Y-1095170D01*
X17568945Y-1093294D01*
X17567815Y-1091168D01*
X17541061Y-1058364D01*
X17514774Y-1025436D01*
X17511481Y-1022096D01*
X17511419Y-1022020D01*
X17511349Y-1021962D01*
X17510292Y-1020890D01*
X17324882Y-835480D01*
X17292254Y-808678D01*
X17259896Y-781527D01*
X17257790Y-780369D01*
X17255932Y-778843D01*
X17218737Y-758899D01*
X17181703Y-738540D01*
X17179408Y-737812D01*
X17177293Y-736678D01*
X17136896Y-724327D01*
X17096650Y-711560D01*
X17094267Y-711293D01*
X17091962Y-710588D01*
X17049836Y-706309D01*
X17007977Y-701614D01*
X17003287Y-701581D01*
X17003189Y-701571D01*
X17003098Y-701580D01*
X17001593Y-701569D01*
X15351231Y-701569D01*
X15309234Y-705687D01*
X15267129Y-709370D01*
X15264817Y-710042D01*
X15262427Y-710276D01*
X15222047Y-722468D01*
X15181442Y-734265D01*
X15179304Y-735373D01*
X15177006Y-736067D01*
X15139717Y-755893D01*
X15102222Y-775329D01*
X15100346Y-776827D01*
X15098220Y-777957D01*
X15065447Y-804686D01*
X15032488Y-830997D01*
X15029142Y-834296D01*
X15029072Y-834353D01*
X15029019Y-834418D01*
X15027942Y-835479D01*
X14789711Y-1073711D01*
X14762909Y-1106339D01*
X14735758Y-1138697D01*
X14734600Y-1140803D01*
X14733074Y-1142661D01*
X14714973Y-1176420D01*
X14712547Y-1175327D01*
X14613000Y-1161180D01*
X13413000Y-1161180D01*
X13356372Y-1165696D01*
X13260325Y-1195440D01*
X13176367Y-1250764D01*
X13111146Y-1327288D01*
X13069827Y-1418953D01*
X13056703Y-1511300D01*
X12001500Y-1511300D01*
X11959457Y-1515422D01*
X11917397Y-1519102D01*
X11915090Y-1519772D01*
X11912696Y-1520007D01*
X11872300Y-1532204D01*
X11831710Y-1543996D01*
X11829571Y-1545105D01*
X11827275Y-1545798D01*
X11790004Y-1565615D01*
X11752491Y-1585060D01*
X11750615Y-1586558D01*
X11748489Y-1587688D01*
X11715716Y-1614417D01*
X11682757Y-1640728D01*
X11679415Y-1644023D01*
X11679341Y-1644084D01*
X11679284Y-1644153D01*
X11678211Y-1645211D01*
X11139711Y-2183711D01*
X11112909Y-2216339D01*
X11085758Y-2248697D01*
X11084600Y-2250803D01*
X11083074Y-2252661D01*
X11063130Y-2289856D01*
X11042771Y-2326890D01*
X11042043Y-2329185D01*
X11040909Y-2331300D01*
X11028558Y-2371697D01*
X11015791Y-2411943D01*
X11015524Y-2414326D01*
X11014819Y-2416631D01*
X11010540Y-2458757D01*
X11005845Y-2500616D01*
X11005812Y-2505306D01*
X11005802Y-2505404D01*
X11005811Y-2505495D01*
X11005800Y-2507000D01*
X11005800Y-3127680D01*
X10613000Y-3127680D01*
X10556372Y-3132196D01*
X10460325Y-3161940D01*
X10376367Y-3217264D01*
X10311146Y-3293788D01*
X10269827Y-3385453D01*
X10263653Y-3428894D01*
X10206679Y-3390465D01*
X10068920Y-3332556D01*
X9922536Y-3302508D01*
X9773104Y-3301464D01*
X9626315Y-3329466D01*
X9487760Y-3385445D01*
X9479424Y-3390900D01*
X7806306Y-3390900D01*
X7744381Y-3396972D01*
X7682488Y-3402387D01*
X7679093Y-3403373D01*
X7675567Y-3403719D01*
X7615985Y-3421708D01*
X7556338Y-3439037D01*
X7553198Y-3440664D01*
X7549808Y-3441688D01*
X7494905Y-3470881D01*
X7439709Y-3499491D01*
X7436942Y-3501700D01*
X7433818Y-3503361D01*
X7385643Y-3542652D01*
X7337044Y-3581448D01*
X7332118Y-3586306D01*
X7332017Y-3586388D01*
X7331940Y-3586481D01*
X7330352Y-3588047D01*
X5300046Y-5618352D01*
X5260543Y-5666444D01*
X5220616Y-5714027D01*
X5218913Y-5717126D01*
X5216664Y-5719863D01*
X5187254Y-5774712D01*
X5157330Y-5829144D01*
X5156261Y-5832514D01*
X5154587Y-5835636D01*
X5136405Y-5895108D01*
X5117609Y-5954361D01*
X5117214Y-5957880D01*
X5116180Y-5961263D01*
X5109896Y-6023127D01*
X5102966Y-6084908D01*
X5102917Y-6091824D01*
X5102904Y-6091956D01*
X5102916Y-6092079D01*
X5102900Y-6094306D01*
X5102900Y-9304039D01*
X5014255Y-9320719D01*
X4895550Y-9397103D01*
X4815916Y-9513652D01*
X4811054Y-9537663D01*
X4791129Y-9489561D01*
X4752213Y-9431319D01*
X4702682Y-9381788D01*
X4644440Y-9342872D01*
X4579725Y-9316066D01*
X4511024Y-9302400D01*
X4180800Y-9302400D01*
X4091900Y-9391300D01*
X3660100Y-9391300D01*
X3571200Y-9302400D01*
X3240976Y-9302400D01*
X3172275Y-9316066D01*
X3107560Y-9342872D01*
X3049318Y-9381788D01*
X2999787Y-9431319D01*
X2960871Y-9489561D01*
X2934065Y-9554276D01*
X2920400Y-9622977D01*
X1493766Y-9622977D01*
X1608750Y-9260503D01*
X2978591Y-6768770D01*
X4806325Y-4590562D01*
X7022332Y-2808846D01*
X9542207Y-1491488D01*
X12269967Y-688664D01*
X15101713Y-430955D01*
X17929585Y-728176D01*
G36*
X6311900Y-10477500D02*
X6315480Y-10504233D01*
X6502400Y-11189606D01*
X6502400Y-12813652D01*
X6483050Y-12826103D01*
X6403416Y-12942652D01*
X6375400Y-13081000D01*
X6375400Y-14122400D01*
X5435600Y-14122400D01*
X5435600Y-11176000D01*
X5432020Y-11149267D01*
X5245100Y-10463894D01*
X5245100Y-9753600D01*
X6311900Y-9753600D01*
X6311900Y-10477500D01*
X6311900Y-10477500D01*
G37*
X6311900Y-10477500D02*
X6315480Y-10504233D01*
X6502400Y-11189606D01*
X6502400Y-12813652D01*
X6483050Y-12826103D01*
X6403416Y-12942652D01*
X6375400Y-13081000D01*
X6375400Y-14122400D01*
X5435600Y-14122400D01*
X5435600Y-11176000D01*
X5432020Y-11149267D01*
X5245100Y-10463894D01*
X5245100Y-9753600D01*
X6311900Y-9753600D01*
X6311900Y-10477500D01*
G36*
X4025900Y-12700000D02*
X4026685Y-12712602D01*
X4152900Y-13722322D01*
X4152900Y-14249400D01*
X3276600Y-14249400D01*
X3276600Y-13716000D01*
X3275815Y-13703398D01*
X3149600Y-12693678D01*
X3149600Y-11277600D01*
X4025900Y-11277600D01*
X4025900Y-12700000D01*
X4025900Y-12700000D01*
G37*
X4025900Y-12700000D02*
X4026685Y-12712602D01*
X4152900Y-13722322D01*
X4152900Y-14249400D01*
X3276600Y-14249400D01*
X3276600Y-13716000D01*
X3275815Y-13703398D01*
X3149600Y-12693678D01*
X3149600Y-11277600D01*
X4025900Y-11277600D01*
X4025900Y-12700000D01*
G36*
X9550400Y-14856142D02*
X9519000Y-14851680D01*
X8769000Y-14851680D01*
X8712372Y-14856196D01*
X8616325Y-14885940D01*
X8532367Y-14941264D01*
X8472590Y-15011400D01*
X8138396Y-15011400D01*
X8070000Y-15001680D01*
X7170000Y-15001680D01*
X7113372Y-15006196D01*
X7017325Y-15035940D01*
X6933367Y-15091264D01*
X6868146Y-15167788D01*
X6826827Y-15259453D01*
X6825982Y-15265400D01*
X6538469Y-15265400D01*
X6456000Y-15253680D01*
X5435600Y-15253680D01*
X5435600Y-14718320D01*
X6456000Y-14718320D01*
X6512628Y-14713804D01*
X6608675Y-14684060D01*
X6692633Y-14628736D01*
X6734995Y-14579032D01*
X6759305Y-14575578D01*
X6785369Y-14563829D01*
X6807128Y-14545284D01*
X6822859Y-14521411D01*
X6831316Y-14494102D01*
X6832600Y-14478000D01*
X6832600Y-13182600D01*
X9550400Y-13182600D01*
X9550400Y-14856142D01*
X9550400Y-14856142D01*
G37*
X9550400Y-14856142D02*
X9519000Y-14851680D01*
X8769000Y-14851680D01*
X8712372Y-14856196D01*
X8616325Y-14885940D01*
X8532367Y-14941264D01*
X8472590Y-15011400D01*
X8138396Y-15011400D01*
X8070000Y-15001680D01*
X7170000Y-15001680D01*
X7113372Y-15006196D01*
X7017325Y-15035940D01*
X6933367Y-15091264D01*
X6868146Y-15167788D01*
X6826827Y-15259453D01*
X6825982Y-15265400D01*
X6538469Y-15265400D01*
X6456000Y-15253680D01*
X5435600Y-15253680D01*
X5435600Y-14718320D01*
X6456000Y-14718320D01*
X6512628Y-14713804D01*
X6608675Y-14684060D01*
X6692633Y-14628736D01*
X6734995Y-14579032D01*
X6759305Y-14575578D01*
X6785369Y-14563829D01*
X6807128Y-14545284D01*
X6822859Y-14521411D01*
X6831316Y-14494102D01*
X6832600Y-14478000D01*
X6832600Y-13182600D01*
X9550400Y-13182600D01*
X9550400Y-14856142D01*
M02*
