G04 #@! TF.FileFunction,Legend,Bot*
%FSLAX46Y46*%
G04 Gerber Fmt 4.6, Leading zero omitted, Abs format (unit mm)*
G04 Created by KiCad (PCBNEW 4.0.7-e2-6376~58~ubuntu16.04.1) date Fri Nov 23 22:20:00 2018*
%MOMM*%
%LPD*%
G01*
G04 APERTURE LIST*
%ADD10C,0.100000*%
%ADD11C,0.304800*%
%ADD12C,0.150000*%
G04 APERTURE END LIST*
D10*
D11*
X4180114Y-18193144D02*
X4107543Y-18265715D01*
X4034971Y-18483429D01*
X4034971Y-18628572D01*
X4107543Y-18846287D01*
X4252686Y-18991429D01*
X4397829Y-19064001D01*
X4688114Y-19136572D01*
X4905829Y-19136572D01*
X5196114Y-19064001D01*
X5341257Y-18991429D01*
X5486400Y-18846287D01*
X5558971Y-18628572D01*
X5558971Y-18483429D01*
X5486400Y-18265715D01*
X5413829Y-18193144D01*
X4034971Y-16669144D02*
X4760686Y-17177144D01*
X4034971Y-17540001D02*
X5558971Y-17540001D01*
X5558971Y-16959429D01*
X5486400Y-16814287D01*
X5413829Y-16741715D01*
X5268686Y-16669144D01*
X5050971Y-16669144D01*
X4905829Y-16741715D01*
X4833257Y-16814287D01*
X4760686Y-16959429D01*
X4760686Y-17540001D01*
X5413829Y-16088572D02*
X5486400Y-16016001D01*
X5558971Y-15870858D01*
X5558971Y-15508001D01*
X5486400Y-15362858D01*
X5413829Y-15290287D01*
X5268686Y-15217715D01*
X5123543Y-15217715D01*
X4905829Y-15290287D01*
X4034971Y-16161144D01*
X4034971Y-15217715D01*
X5558971Y-14274286D02*
X5558971Y-14129143D01*
X5486400Y-13984000D01*
X5413829Y-13911429D01*
X5268686Y-13838858D01*
X4978400Y-13766286D01*
X4615543Y-13766286D01*
X4325257Y-13838858D01*
X4180114Y-13911429D01*
X4107543Y-13984000D01*
X4034971Y-14129143D01*
X4034971Y-14274286D01*
X4107543Y-14419429D01*
X4180114Y-14492000D01*
X4325257Y-14564572D01*
X4615543Y-14637143D01*
X4978400Y-14637143D01*
X5268686Y-14564572D01*
X5413829Y-14492000D01*
X5486400Y-14419429D01*
X5558971Y-14274286D01*
X5558971Y-13258286D02*
X5558971Y-12314857D01*
X4978400Y-12822857D01*
X4978400Y-12605143D01*
X4905829Y-12460000D01*
X4833257Y-12387429D01*
X4688114Y-12314857D01*
X4325257Y-12314857D01*
X4180114Y-12387429D01*
X4107543Y-12460000D01*
X4034971Y-12605143D01*
X4034971Y-13040571D01*
X4107543Y-13185714D01*
X4180114Y-13258286D01*
X5413829Y-11734285D02*
X5486400Y-11661714D01*
X5558971Y-11516571D01*
X5558971Y-11153714D01*
X5486400Y-11008571D01*
X5413829Y-10936000D01*
X5268686Y-10863428D01*
X5123543Y-10863428D01*
X4905829Y-10936000D01*
X4034971Y-11806857D01*
X4034971Y-10863428D01*
X2968171Y-16161143D02*
X2968171Y-15217714D01*
X2387600Y-15725714D01*
X2387600Y-15508000D01*
X2315029Y-15362857D01*
X2242457Y-15290286D01*
X2097314Y-15217714D01*
X1734457Y-15217714D01*
X1589314Y-15290286D01*
X1516743Y-15362857D01*
X1444171Y-15508000D01*
X1444171Y-15943428D01*
X1516743Y-16088571D01*
X1589314Y-16161143D01*
X2968171Y-14782285D02*
X1444171Y-14274285D01*
X2968171Y-13766285D01*
D10*
X6446464Y-21004601D02*
G75*
G03X6450000Y-9000000I-7806464J6004601D01*
G01*
X6433470Y-21003354D02*
G75*
G03X7420000Y-24340000I1716530J-1306646D01*
G01*
X11370000Y-25780000D02*
X7420000Y-24340000D01*
X22540000Y-23700000D02*
X20460000Y-25780000D01*
X22540000Y-6300000D02*
X22540000Y-23700000D01*
X22540000Y-6300000D02*
X20460000Y-4220000D01*
X11370000Y-4220000D02*
X7420000Y-5660000D01*
X7411831Y-5674756D02*
G75*
G03X6450000Y-9000000I738169J-2015244D01*
G01*
X20460000Y-25780000D02*
X18000000Y-25780000D01*
X12000000Y-25780000D02*
X11370000Y-25780000D01*
X20460000Y-4220000D02*
X18000000Y-4220000D01*
X12000000Y-4220000D02*
X11370000Y-4220000D01*
D12*
X15771714Y-2214571D02*
X15628857Y-2262190D01*
X15581238Y-2309810D01*
X15533619Y-2405048D01*
X15533619Y-2547905D01*
X15581238Y-2643143D01*
X15628857Y-2690762D01*
X15724095Y-2738381D01*
X16105048Y-2738381D01*
X16105048Y-1738381D01*
X15771714Y-1738381D01*
X15676476Y-1786000D01*
X15628857Y-1833619D01*
X15581238Y-1928857D01*
X15581238Y-2024095D01*
X15628857Y-2119333D01*
X15676476Y-2166952D01*
X15771714Y-2214571D01*
X16105048Y-2214571D01*
X15247905Y-1738381D02*
X14676476Y-1738381D01*
X14962191Y-2738381D02*
X14962191Y-1738381D01*
X13819333Y-2738381D02*
X14390762Y-2738381D01*
X14105048Y-2738381D02*
X14105048Y-1738381D01*
X14200286Y-1881238D01*
X14295524Y-1976476D01*
X14390762Y-2024095D01*
M02*
